<svg width="264" height="140" viewBox="0 0 264 140" fill="none" xmlns="http://www.w3.org/2000/svg">
<g filter="url(#filter0_d_13_12650)">
<path d="M54.1677 82.805L210.51 82.8051C211.345 82.8019 212.144 82.4691 212.734 81.8791C213.324 81.289 213.657 80.4897 213.66 79.6553L213.66 53.4897C213.657 52.6552 213.324 51.8559 212.734 51.2659C212.144 50.6758 211.345 50.343 210.51 50.3399L54.1677 50.3398C53.3333 50.343 52.5339 50.6758 51.9439 51.2658C51.3539 51.8559 51.021 52.6552 51.0179 53.4896L51.0179 79.6474C51.0189 80.4832 51.3509 81.2845 51.9411 81.8763C52.5314 82.468 53.3319 82.8019 54.1677 82.805Z" fill="url(#paint0_linear_13_12650)"/>
<path d="M54.1676 50.0001L210.51 50.0001C211.435 50.0011 212.323 50.3691 212.977 51.0233C213.631 51.6775 213.999 52.5646 214 53.4898L214 79.6475C213.999 80.5727 213.631 81.4597 212.977 82.1139C212.323 82.7682 211.435 83.1362 210.51 83.1372L54.1676 83.1372C53.2424 83.1362 52.3554 82.7682 51.7012 82.1139C51.047 81.4597 50.679 80.5727 50.6779 79.6475L50.678 53.4898C50.679 52.5645 51.047 51.6775 51.7012 51.0233C52.3554 50.3691 53.2424 50.0011 54.1676 50.0001ZM210.51 82.4666C211.257 82.4655 211.973 82.168 212.501 81.6394C213.028 81.1108 213.324 80.3944 213.324 79.6475L213.324 53.4898C213.323 52.7438 213.026 52.0287 212.499 51.5013C211.971 50.9738 211.256 50.677 210.51 50.676L54.1676 50.6759C53.4217 50.677 52.7066 50.9738 52.1791 51.5012C51.6516 52.0287 51.3549 52.7438 51.3538 53.4898L51.3538 79.6475C51.3549 80.3934 51.6516 81.1085 52.1791 81.636C52.7066 82.1635 53.4217 82.4603 54.1676 82.4613L210.51 82.4666Z" fill="url(#paint1_linear_13_12650)"/>
<path d="M54.1677 89.5627L210.51 89.5627C211.345 89.5596 212.144 89.2268 212.734 88.6368C213.324 88.0467 213.657 87.2474 213.66 86.413L213.66 60.2473C213.657 59.4129 213.324 58.6136 212.734 58.0235C212.144 57.4335 211.345 57.1007 210.51 57.0976L54.1677 57.0975C53.3333 57.1007 52.5339 57.4335 51.9439 58.0235C51.3539 58.6136 51.021 59.4129 51.0179 60.2473L51.0179 86.4103C51.0203 87.2452 51.3529 88.0452 51.943 88.6358C52.5331 89.2264 53.3328 89.5596 54.1677 89.5627Z" fill="url(#paint2_linear_13_12650)"/>
<path d="M54.1676 56.7576L210.51 56.7576C211.435 56.7587 212.323 57.1267 212.977 57.7809C213.631 58.4351 213.999 59.3221 214 60.2473L214 86.4103C213.999 87.3355 213.631 88.2225 212.977 88.8768C212.323 89.531 211.435 89.899 210.51 89.9L54.1676 89.9C53.2424 89.899 52.3554 89.531 51.7012 88.8767C51.047 88.2225 50.679 87.3355 50.6779 86.4103L50.678 60.2473C50.679 59.3221 51.047 58.4351 51.7012 57.7809C52.3554 57.1267 53.2424 56.7587 54.1676 56.7576ZM210.51 89.2281C211.256 89.227 211.971 88.9302 212.499 88.4028C213.026 87.8753 213.323 87.1602 213.324 86.4143L213.324 60.2473C213.323 59.5013 213.027 58.786 212.499 58.2584C211.972 57.7309 211.256 57.4342 210.51 57.4335L54.1676 57.4335C53.4216 57.4342 52.7063 57.7309 52.1787 58.2584C51.6512 58.786 51.3545 59.5013 51.3538 60.2473L51.3538 86.4103C51.3538 87.1569 51.6502 87.873 52.1777 88.4014C52.7053 88.9297 53.421 89.227 54.1676 89.2281L210.51 89.2281Z" fill="url(#paint3_linear_13_12650)"/>
<mask id="path-5-outside-1_13_12650" maskUnits="userSpaceOnUse" x="63" y="62.9" width="138" height="17" fill="black">
<rect fill="white" x="63" y="62.9" width="138" height="17"/>
<path d="M76.82 76.4H77.04L77.98 72.96L79.9 64.98L82.16 65.34L79.98 73.28L78.64 78.74L74.98 79L73.84 73.66L73.16 71.02L72.56 73.28L71.22 78.74L67.62 79L66.42 73.66L64.34 65.48L66.94 64.98L68.56 72.7L69.46 76.4H69.68L70.74 72.7L72.2 67.3L71.74 65.48L74.38 64.98L75.96 72.7L76.82 76.4ZM89.4961 73.84C89.4961 72.92 89.4161 72.3067 89.2561 72C89.0961 71.6934 88.7228 71.54 88.1361 71.54C87.5494 71.54 86.8828 71.7734 86.1361 72.24V73.7L86.3561 78.4L83.6561 78.9L83.8961 74.04L83.6561 63.92L86.3961 63.42L86.1361 68.6V70.94C86.3361 70.6734 86.5628 70.4134 86.8161 70.16C87.0694 69.9067 87.4628 69.62 87.9961 69.3C88.5294 68.98 89.0961 68.82 89.6961 68.82C90.3094 68.82 90.8228 69.06 91.2361 69.54C91.6494 70.0067 91.8561 70.6467 91.8561 71.46L91.7361 73.7L91.9561 78.5L89.2561 79L89.4961 73.84ZM97.7639 76.86C98.1506 76.86 98.5572 76.76 98.9839 76.56C99.4106 76.36 99.7439 76.16 99.9839 75.96L100.344 75.66L101.264 76.78C101.131 77.0067 100.924 77.2667 100.644 77.56C100.364 77.8534 100.077 78.1067 99.7839 78.32C99.5039 78.52 99.1239 78.7067 98.6439 78.88C98.1772 79.04 97.6906 79.12 97.1839 79.12C96.1039 79.12 95.2239 78.7134 94.5439 77.9C93.8639 77.0734 93.5239 76.0134 93.5239 74.72C93.5239 73.0934 93.9972 71.6667 94.9439 70.44C95.8906 69.2134 96.9972 68.6 98.2639 68.6C99.2372 68.6 99.9906 68.8734 100.524 69.42C101.071 69.9667 101.344 70.7334 101.344 71.72C101.344 72.3067 101.244 72.9734 101.044 73.72L100.644 74.14L95.6439 74.6C95.8706 76.1067 96.5772 76.86 97.7639 76.86ZM97.7639 70.66C97.1772 70.66 96.6839 70.9 96.2839 71.38C95.8839 71.8467 95.6506 72.4467 95.5839 73.18L98.9839 72.76C99.0239 72.4534 99.0439 72.2 99.0439 72C99.0439 71.1067 98.6172 70.66 97.7639 70.66ZM106.69 76.86C107.076 76.86 107.483 76.76 107.91 76.56C108.336 76.36 108.67 76.16 108.91 75.96L109.27 75.66L110.19 76.78C110.056 77.0067 109.85 77.2667 109.57 77.56C109.29 77.8534 109.003 78.1067 108.71 78.32C108.43 78.52 108.05 78.7067 107.57 78.88C107.103 79.04 106.616 79.12 106.11 79.12C105.03 79.12 104.15 78.7134 103.47 77.9C102.79 77.0734 102.45 76.0134 102.45 74.72C102.45 73.0934 102.923 71.6667 103.87 70.44C104.816 69.2134 105.923 68.6 107.19 68.6C108.163 68.6 108.916 68.8734 109.45 69.42C109.996 69.9667 110.27 70.7334 110.27 71.72C110.27 72.3067 110.17 72.9734 109.97 73.72L109.57 74.14L104.57 74.6C104.796 76.1067 105.503 76.86 106.69 76.86ZM106.69 70.66C106.103 70.66 105.61 70.9 105.21 71.38C104.81 71.8467 104.576 72.4467 104.51 73.18L107.91 72.76C107.95 72.4534 107.97 72.2 107.97 72C107.97 71.1067 107.543 70.66 106.69 70.66ZM114.755 63.42L114.495 73.7L114.715 78.4L112.015 78.9L112.255 74.04L112.015 63.92L114.755 63.42ZM119.56 74.72C119.56 73.0134 120.02 71.5667 120.94 70.38C121.86 69.1934 122.933 68.6 124.16 68.6C125.4 68.6 126.36 69 127.04 69.8C127.733 70.6 128.08 71.66 128.08 72.98C128.08 74.74 127.633 76.2067 126.74 77.38C125.86 78.54 124.747 79.12 123.4 79.12C122.293 79.12 121.373 78.7067 120.64 77.88C119.92 77.04 119.56 75.9867 119.56 74.72ZM125.84 74.02C125.84 72.0867 125.18 71.12 123.86 71.12C122.487 71.12 121.8 72.0267 121.8 73.84C121.8 74.7867 121.993 75.5267 122.38 76.06C122.767 76.5934 123.273 76.86 123.9 76.86C124.54 76.86 125.02 76.62 125.34 76.14C125.673 75.6467 125.84 74.94 125.84 74.02ZM135.148 65.88C134.655 65.76 134.208 65.7 133.808 65.7C133.408 65.7 133.115 65.82 132.928 66.06C132.755 66.3 132.668 66.72 132.668 67.32L132.648 69.22H134.808L134.588 70.86H132.648L132.628 73.7L132.848 78.4L130.148 78.9L130.388 74.04L130.308 70.86H128.988L129.208 69.22H130.268L130.248 67.7C130.248 66.5134 130.615 65.5067 131.348 64.68C132.082 63.84 132.975 63.42 134.028 63.42C134.588 63.42 135.168 63.48 135.768 63.6L135.148 65.88ZM146.409 67.24H142.149L142.029 70.92H145.849L145.629 73.04H141.969L141.949 73.7L142.189 78.9H139.389L139.629 74.04L139.389 65.1H146.629L146.409 67.24ZM147.197 74.72C147.197 73.0134 147.657 71.5667 148.577 70.38C149.497 69.1934 150.57 68.6 151.797 68.6C153.037 68.6 153.997 69 154.677 69.8C155.37 70.6 155.717 71.66 155.717 72.98C155.717 74.74 155.27 76.2067 154.377 77.38C153.497 78.54 152.383 79.12 151.037 79.12C149.93 79.12 149.01 78.7067 148.277 77.88C147.557 77.04 147.197 75.9867 147.197 74.72ZM153.477 74.02C153.477 72.0867 152.817 71.12 151.497 71.12C150.123 71.12 149.437 72.0267 149.437 73.84C149.437 74.7867 149.63 75.5267 150.017 76.06C150.403 76.5934 150.91 76.86 151.537 76.86C152.177 76.86 152.657 76.62 152.977 76.14C153.31 75.6467 153.477 74.94 153.477 74.02ZM157.225 69.24L159.645 68.72C159.765 69.7467 159.845 70.72 159.885 71.64C161.098 69.76 162.238 68.82 163.305 68.82L163.085 71.94C162.312 71.94 161.698 72.0134 161.245 72.16C160.805 72.2934 160.352 72.5667 159.885 72.98V73.7L160.105 78.4L157.425 78.9L157.665 74.04C157.612 72.2534 157.465 70.6534 157.225 69.24ZM165.354 69.22V67.04L168.054 66.52L167.794 69.22H170.214L169.994 70.86H167.714L167.614 75.04C167.614 75.6667 167.674 76.0867 167.794 76.3C167.914 76.5 168.134 76.6 168.454 76.6C168.774 76.6 169.201 76.5267 169.734 76.38L169.854 77.8C168.974 78.5334 168.201 78.9 167.534 78.9C166.867 78.9 166.321 78.66 165.894 78.18C165.467 77.6867 165.254 77.0467 165.254 76.26L165.374 74.02L165.354 70.86H163.974L164.194 69.22H165.354ZM174.083 78.9C173.363 78.9 172.777 78.6667 172.323 78.2C171.883 77.72 171.663 77.0934 171.663 76.32L171.783 74.02L171.563 69.22L174.243 68.72L173.983 74.8C173.983 75.3734 174.083 75.7934 174.283 76.06C174.497 76.3267 174.83 76.46 175.283 76.46C175.737 76.46 176.363 76.2334 177.163 75.78V74.58L176.943 69.32L179.643 68.82L179.403 73.82L179.423 75.46C179.423 76.3134 179.643 77.1734 180.083 78.04L178.003 78.96C177.563 78.0934 177.297 77.4 177.203 76.88C176.003 78.2267 174.963 78.9 174.083 78.9ZM187.679 73.84C187.679 72.92 187.599 72.3067 187.439 72C187.279 71.6934 186.905 71.54 186.319 71.54C185.732 71.54 185.065 71.7734 184.319 72.24V73.7L184.539 78.4L181.859 78.9L182.099 74.04C182.045 72.2534 181.899 70.6534 181.659 69.24L184.079 68.72C184.172 69.4934 184.239 70.2467 184.279 70.98C184.479 70.7134 184.705 70.4534 184.959 70.2C185.212 69.9334 185.612 69.64 186.159 69.32C186.705 68.9867 187.279 68.82 187.879 68.82C188.492 68.82 189.005 69.06 189.419 69.54C189.832 70.0067 190.039 70.6467 190.039 71.46L189.919 73.7L190.139 78.5L187.439 79L187.679 73.84ZM195.948 76.86C196.334 76.86 196.741 76.76 197.168 76.56C197.594 76.36 197.928 76.16 198.168 75.96L198.528 75.66L199.448 76.78C199.314 77.0067 199.108 77.2667 198.828 77.56C198.548 77.8534 198.261 78.1067 197.968 78.32C197.688 78.52 197.308 78.7067 196.828 78.88C196.361 79.04 195.874 79.12 195.368 79.12C194.288 79.12 193.408 78.7134 192.728 77.9C192.048 77.0734 191.708 76.0134 191.708 74.72C191.708 73.0934 192.181 71.6667 193.128 70.44C194.074 69.2134 195.181 68.6 196.448 68.6C197.421 68.6 198.174 68.8734 198.708 69.42C199.254 69.9667 199.528 70.7334 199.528 71.72C199.528 72.3067 199.428 72.9734 199.228 73.72L198.828 74.14L193.827 74.6C194.054 76.1067 194.761 76.86 195.948 76.86ZM195.948 70.66C195.361 70.66 194.868 70.9 194.468 71.38C194.068 71.8467 193.834 72.4467 193.768 73.18L197.168 72.76C197.208 72.4534 197.228 72.2 197.228 72C197.228 71.1067 196.801 70.66 195.948 70.66Z"/>
</mask>
<path d="M76.82 76.4H77.04L77.98 72.96L79.9 64.98L82.16 65.34L79.98 73.28L78.64 78.74L74.98 79L73.84 73.66L73.16 71.02L72.56 73.28L71.22 78.74L67.62 79L66.42 73.66L64.34 65.48L66.94 64.98L68.56 72.7L69.46 76.4H69.68L70.74 72.7L72.2 67.3L71.74 65.48L74.38 64.98L75.96 72.7L76.82 76.4ZM89.4961 73.84C89.4961 72.92 89.4161 72.3067 89.2561 72C89.0961 71.6934 88.7228 71.54 88.1361 71.54C87.5494 71.54 86.8828 71.7734 86.1361 72.24V73.7L86.3561 78.4L83.6561 78.9L83.8961 74.04L83.6561 63.92L86.3961 63.42L86.1361 68.6V70.94C86.3361 70.6734 86.5628 70.4134 86.8161 70.16C87.0694 69.9067 87.4628 69.62 87.9961 69.3C88.5294 68.98 89.0961 68.82 89.6961 68.82C90.3094 68.82 90.8228 69.06 91.2361 69.54C91.6494 70.0067 91.8561 70.6467 91.8561 71.46L91.7361 73.7L91.9561 78.5L89.2561 79L89.4961 73.84ZM97.7639 76.86C98.1506 76.86 98.5572 76.76 98.9839 76.56C99.4106 76.36 99.7439 76.16 99.9839 75.96L100.344 75.66L101.264 76.78C101.131 77.0067 100.924 77.2667 100.644 77.56C100.364 77.8534 100.077 78.1067 99.7839 78.32C99.5039 78.52 99.1239 78.7067 98.6439 78.88C98.1772 79.04 97.6906 79.12 97.1839 79.12C96.1039 79.12 95.2239 78.7134 94.5439 77.9C93.8639 77.0734 93.5239 76.0134 93.5239 74.72C93.5239 73.0934 93.9972 71.6667 94.9439 70.44C95.8906 69.2134 96.9972 68.6 98.2639 68.6C99.2372 68.6 99.9906 68.8734 100.524 69.42C101.071 69.9667 101.344 70.7334 101.344 71.72C101.344 72.3067 101.244 72.9734 101.044 73.72L100.644 74.14L95.6439 74.6C95.8706 76.1067 96.5772 76.86 97.7639 76.86ZM97.7639 70.66C97.1772 70.66 96.6839 70.9 96.2839 71.38C95.8839 71.8467 95.6506 72.4467 95.5839 73.18L98.9839 72.76C99.0239 72.4534 99.0439 72.2 99.0439 72C99.0439 71.1067 98.6172 70.66 97.7639 70.66ZM106.69 76.86C107.076 76.86 107.483 76.76 107.91 76.56C108.336 76.36 108.67 76.16 108.91 75.96L109.27 75.66L110.19 76.78C110.056 77.0067 109.85 77.2667 109.57 77.56C109.29 77.8534 109.003 78.1067 108.71 78.32C108.43 78.52 108.05 78.7067 107.57 78.88C107.103 79.04 106.616 79.12 106.11 79.12C105.03 79.12 104.15 78.7134 103.47 77.9C102.79 77.0734 102.45 76.0134 102.45 74.72C102.45 73.0934 102.923 71.6667 103.87 70.44C104.816 69.2134 105.923 68.6 107.19 68.6C108.163 68.6 108.916 68.8734 109.45 69.42C109.996 69.9667 110.27 70.7334 110.27 71.72C110.27 72.3067 110.17 72.9734 109.97 73.72L109.57 74.14L104.57 74.6C104.796 76.1067 105.503 76.86 106.69 76.86ZM106.69 70.66C106.103 70.66 105.61 70.9 105.21 71.38C104.81 71.8467 104.576 72.4467 104.51 73.18L107.91 72.76C107.95 72.4534 107.97 72.2 107.97 72C107.97 71.1067 107.543 70.66 106.69 70.66ZM114.755 63.42L114.495 73.7L114.715 78.4L112.015 78.9L112.255 74.04L112.015 63.92L114.755 63.42ZM119.56 74.72C119.56 73.0134 120.02 71.5667 120.94 70.38C121.86 69.1934 122.933 68.6 124.16 68.6C125.4 68.6 126.36 69 127.04 69.8C127.733 70.6 128.08 71.66 128.08 72.98C128.08 74.74 127.633 76.2067 126.74 77.38C125.86 78.54 124.747 79.12 123.4 79.12C122.293 79.12 121.373 78.7067 120.64 77.88C119.92 77.04 119.56 75.9867 119.56 74.72ZM125.84 74.02C125.84 72.0867 125.18 71.12 123.86 71.12C122.487 71.12 121.8 72.0267 121.8 73.84C121.8 74.7867 121.993 75.5267 122.38 76.06C122.767 76.5934 123.273 76.86 123.9 76.86C124.54 76.86 125.02 76.62 125.34 76.14C125.673 75.6467 125.84 74.94 125.84 74.02ZM135.148 65.88C134.655 65.76 134.208 65.7 133.808 65.7C133.408 65.7 133.115 65.82 132.928 66.06C132.755 66.3 132.668 66.72 132.668 67.32L132.648 69.22H134.808L134.588 70.86H132.648L132.628 73.7L132.848 78.4L130.148 78.9L130.388 74.04L130.308 70.86H128.988L129.208 69.22H130.268L130.248 67.7C130.248 66.5134 130.615 65.5067 131.348 64.68C132.082 63.84 132.975 63.42 134.028 63.42C134.588 63.42 135.168 63.48 135.768 63.6L135.148 65.88ZM146.409 67.24H142.149L142.029 70.92H145.849L145.629 73.04H141.969L141.949 73.7L142.189 78.9H139.389L139.629 74.04L139.389 65.1H146.629L146.409 67.24ZM147.197 74.72C147.197 73.0134 147.657 71.5667 148.577 70.38C149.497 69.1934 150.57 68.6 151.797 68.6C153.037 68.6 153.997 69 154.677 69.8C155.37 70.6 155.717 71.66 155.717 72.98C155.717 74.74 155.27 76.2067 154.377 77.38C153.497 78.54 152.383 79.12 151.037 79.12C149.93 79.12 149.01 78.7067 148.277 77.88C147.557 77.04 147.197 75.9867 147.197 74.72ZM153.477 74.02C153.477 72.0867 152.817 71.12 151.497 71.12C150.123 71.12 149.437 72.0267 149.437 73.84C149.437 74.7867 149.63 75.5267 150.017 76.06C150.403 76.5934 150.91 76.86 151.537 76.86C152.177 76.86 152.657 76.62 152.977 76.14C153.31 75.6467 153.477 74.94 153.477 74.02ZM157.225 69.24L159.645 68.72C159.765 69.7467 159.845 70.72 159.885 71.64C161.098 69.76 162.238 68.82 163.305 68.82L163.085 71.94C162.312 71.94 161.698 72.0134 161.245 72.16C160.805 72.2934 160.352 72.5667 159.885 72.98V73.7L160.105 78.4L157.425 78.9L157.665 74.04C157.612 72.2534 157.465 70.6534 157.225 69.24ZM165.354 69.22V67.04L168.054 66.52L167.794 69.22H170.214L169.994 70.86H167.714L167.614 75.04C167.614 75.6667 167.674 76.0867 167.794 76.3C167.914 76.5 168.134 76.6 168.454 76.6C168.774 76.6 169.201 76.5267 169.734 76.38L169.854 77.8C168.974 78.5334 168.201 78.9 167.534 78.9C166.867 78.9 166.321 78.66 165.894 78.18C165.467 77.6867 165.254 77.0467 165.254 76.26L165.374 74.02L165.354 70.86H163.974L164.194 69.22H165.354ZM174.083 78.9C173.363 78.9 172.777 78.6667 172.323 78.2C171.883 77.72 171.663 77.0934 171.663 76.32L171.783 74.02L171.563 69.22L174.243 68.72L173.983 74.8C173.983 75.3734 174.083 75.7934 174.283 76.06C174.497 76.3267 174.83 76.46 175.283 76.46C175.737 76.46 176.363 76.2334 177.163 75.78V74.58L176.943 69.32L179.643 68.82L179.403 73.82L179.423 75.46C179.423 76.3134 179.643 77.1734 180.083 78.04L178.003 78.96C177.563 78.0934 177.297 77.4 177.203 76.88C176.003 78.2267 174.963 78.9 174.083 78.9ZM187.679 73.84C187.679 72.92 187.599 72.3067 187.439 72C187.279 71.6934 186.905 71.54 186.319 71.54C185.732 71.54 185.065 71.7734 184.319 72.24V73.7L184.539 78.4L181.859 78.9L182.099 74.04C182.045 72.2534 181.899 70.6534 181.659 69.24L184.079 68.72C184.172 69.4934 184.239 70.2467 184.279 70.98C184.479 70.7134 184.705 70.4534 184.959 70.2C185.212 69.9334 185.612 69.64 186.159 69.32C186.705 68.9867 187.279 68.82 187.879 68.82C188.492 68.82 189.005 69.06 189.419 69.54C189.832 70.0067 190.039 70.6467 190.039 71.46L189.919 73.7L190.139 78.5L187.439 79L187.679 73.84ZM195.948 76.86C196.334 76.86 196.741 76.76 197.168 76.56C197.594 76.36 197.928 76.16 198.168 75.96L198.528 75.66L199.448 76.78C199.314 77.0067 199.108 77.2667 198.828 77.56C198.548 77.8534 198.261 78.1067 197.968 78.32C197.688 78.52 197.308 78.7067 196.828 78.88C196.361 79.04 195.874 79.12 195.368 79.12C194.288 79.12 193.408 78.7134 192.728 77.9C192.048 77.0734 191.708 76.0134 191.708 74.72C191.708 73.0934 192.181 71.6667 193.128 70.44C194.074 69.2134 195.181 68.6 196.448 68.6C197.421 68.6 198.174 68.8734 198.708 69.42C199.254 69.9667 199.528 70.7334 199.528 71.72C199.528 72.3067 199.428 72.9734 199.228 73.72L198.828 74.14L193.827 74.6C194.054 76.1067 194.761 76.86 195.948 76.86ZM195.948 70.66C195.361 70.66 194.868 70.9 194.468 71.38C194.068 71.8467 193.834 72.4467 193.768 73.18L197.168 72.76C197.208 72.4534 197.228 72.2 197.228 72C197.228 71.1067 196.801 70.66 195.948 70.66Z" fill="#FF172D"/>
<path d="M76.82 76.4L76.333 76.5132C76.3856 76.7397 76.5875 76.9 76.82 76.9V76.4ZM77.04 76.4V76.9C77.2654 76.9 77.4629 76.7492 77.5223 76.5318L77.04 76.4ZM77.98 72.96L78.4623 73.0918C78.4637 73.0869 78.4649 73.082 78.4661 73.077L77.98 72.96ZM79.9 64.98L79.9787 64.4862C79.7209 64.4452 79.4749 64.6093 79.4139 64.8631L79.9 64.98ZM82.16 65.34L82.6422 65.4724C82.6798 65.3353 82.6573 65.1887 82.5803 65.0692C82.5033 64.9497 82.379 64.8686 82.2387 64.8462L82.16 65.34ZM79.98 73.28L79.4977 73.1476L79.4944 73.1608L79.98 73.28ZM78.64 78.74L78.6754 79.2388C78.892 79.2234 79.0738 79.07 79.1256 78.8592L78.64 78.74ZM74.98 79L74.491 79.1044C74.5431 79.3482 74.7668 79.5164 75.0154 79.4988L74.98 79ZM73.84 73.66L74.329 73.5556C74.3275 73.5488 74.3259 73.542 74.3242 73.5353L73.84 73.66ZM73.16 71.02L73.6442 70.8953C73.5875 70.6751 73.3893 70.5209 73.1619 70.52C72.9344 70.5192 72.7351 70.6719 72.6767 70.8917L73.16 71.02ZM72.56 73.28L72.0767 73.1517L72.0744 73.1608L72.56 73.28ZM71.22 78.74L71.256 79.2387C71.4723 79.2231 71.6539 79.0698 71.7056 78.8592L71.22 78.74ZM67.62 79L67.1322 79.1096C67.1864 79.3511 67.4092 79.5166 67.656 79.4987L67.62 79ZM66.42 73.66L66.908 73.5504L66.9046 73.5368L66.42 73.66ZM64.34 65.48L64.2456 64.989C64.1103 65.015 63.9918 65.0957 63.9179 65.2119C63.8441 65.3282 63.8215 65.4698 63.8554 65.6032L64.34 65.48ZM66.94 64.98L67.4293 64.8773C67.3733 64.6103 67.1135 64.4375 66.8456 64.489L66.94 64.98ZM68.56 72.7L68.0707 72.8027C68.0717 72.8079 68.0729 72.8131 68.0742 72.8182L68.56 72.7ZM69.46 76.4L68.9742 76.5182C69.0287 76.7423 69.2294 76.9 69.46 76.9V76.4ZM69.68 76.4V76.9C69.9031 76.9 70.0992 76.7522 70.1607 76.5377L69.68 76.4ZM70.74 72.7L71.2207 72.8377L71.2227 72.8305L70.74 72.7ZM72.2 67.3L72.6827 67.4305C72.705 67.3478 72.7058 67.2606 72.6848 67.1775L72.2 67.3ZM71.74 65.48L71.647 64.9888C71.5115 65.0144 71.3927 65.0948 71.3185 65.211C71.2444 65.3272 71.2215 65.4689 71.2552 65.6025L71.74 65.48ZM74.38 64.98L74.8698 64.8798C74.8151 64.612 74.5555 64.4379 74.287 64.4888L74.38 64.98ZM75.96 72.7L75.47 72.8003L75.473 72.8132L75.96 72.7ZM76.82 76.9H77.04V75.9H76.82V76.9ZM77.5223 76.5318L78.4623 73.0918L77.4977 72.8282L76.5577 76.2682L77.5223 76.5318ZM78.4661 73.077L80.3861 65.097L79.4139 64.8631L77.4939 72.8431L78.4661 73.077ZM79.8213 65.4738L82.0813 65.8338L82.2387 64.8462L79.9787 64.4862L79.8213 65.4738ZM81.6778 65.2076L79.4978 73.1476L80.4622 73.4124L82.6422 65.4724L81.6778 65.2076ZM79.4944 73.1608L78.1544 78.6208L79.1256 78.8592L80.4656 73.3992L79.4944 73.1608ZM78.6046 78.2413L74.9446 78.5013L75.0154 79.4988L78.6754 79.2388L78.6046 78.2413ZM75.469 78.8956L74.329 73.5556L73.351 73.7644L74.491 79.1044L75.469 78.8956ZM74.3242 73.5353L73.6442 70.8953L72.6758 71.1447L73.3558 73.7847L74.3242 73.5353ZM72.6767 70.8917L72.0767 73.1517L73.0433 73.4083L73.6433 71.1483L72.6767 70.8917ZM72.0744 73.1608L70.7344 78.6208L71.7056 78.8592L73.0456 73.3992L72.0744 73.1608ZM71.184 78.2413L67.584 78.5013L67.656 79.4987L71.256 79.2387L71.184 78.2413ZM68.1078 78.8904L66.9078 73.5504L65.9322 73.7696L67.1322 79.1096L68.1078 78.8904ZM66.9046 73.5368L64.8246 65.3568L63.8554 65.6032L65.9354 73.7832L66.9046 73.5368ZM64.4344 65.971L67.0344 65.471L66.8456 64.489L64.2456 64.989L64.4344 65.971ZM66.4507 65.0827L68.0707 72.8027L69.0493 72.5973L67.4293 64.8773L66.4507 65.0827ZM68.0742 72.8182L68.9742 76.5182L69.9458 76.2818L69.0458 72.5818L68.0742 72.8182ZM69.46 76.9H69.68V75.9H69.46V76.9ZM70.1607 76.5377L71.2207 72.8377L70.2593 72.5623L69.1993 76.2623L70.1607 76.5377ZM71.2227 72.8305L72.6827 67.4305L71.7173 67.1695L70.2573 72.5695L71.2227 72.8305ZM72.6848 67.1775L72.2248 65.3575L71.2552 65.6025L71.7152 67.4225L72.6848 67.1775ZM71.833 65.9713L74.473 65.4713L74.287 64.4888L71.647 64.9888L71.833 65.9713ZM73.8902 65.0803L75.4702 72.8003L76.4498 72.5998L74.8698 64.8798L73.8902 65.0803ZM75.473 72.8132L76.333 76.5132L77.307 76.2868L76.447 72.5868L75.473 72.8132ZM89.4961 73.84L89.9956 73.8633C89.9959 73.8555 89.9961 73.8478 89.9961 73.84H89.4961ZM89.2561 72L89.6994 71.7687L89.2561 72ZM86.1361 72.24L85.8711 71.816C85.7249 71.9074 85.6361 72.0676 85.6361 72.24H86.1361ZM86.1361 73.7H85.6361C85.6361 73.7078 85.6363 73.7156 85.6366 73.7234L86.1361 73.7ZM86.3561 78.4L86.4471 78.8917C86.6928 78.8462 86.8672 78.6263 86.8555 78.3766L86.3561 78.4ZM83.6561 78.9L83.1567 78.8754C83.1492 79.028 83.2119 79.1758 83.327 79.2764C83.442 79.377 83.5968 79.4195 83.7471 79.3917L83.6561 78.9ZM83.8961 74.04L84.3955 74.0647C84.3961 74.0525 84.3962 74.0403 84.396 74.0282L83.8961 74.04ZM83.6561 63.92L83.5663 63.4281C83.3243 63.4723 83.1504 63.6859 83.1562 63.9319L83.6561 63.92ZM86.3961 63.42L86.8955 63.4451C86.9031 63.2926 86.8407 63.1449 86.7259 63.0442C86.6111 62.9435 86.4566 62.9007 86.3063 62.9281L86.3961 63.42ZM86.1361 68.6L85.6367 68.575C85.6363 68.5833 85.6361 68.5917 85.6361 68.6H86.1361ZM86.1361 70.94H85.6361C85.6361 71.1552 85.7738 71.3463 85.978 71.4144C86.1822 71.4824 86.407 71.4122 86.5361 71.24L86.1361 70.94ZM86.8161 70.16L87.1696 70.5136L86.8161 70.16ZM87.9961 69.3L87.7388 68.8713L87.9961 69.3ZM91.2361 69.54L90.8572 69.8663L90.8618 69.8715L91.2361 69.54ZM91.8561 71.46L92.3554 71.4868C92.3559 71.4779 92.3561 71.4689 92.3561 71.46H91.8561ZM91.7361 73.7L91.2368 73.6733C91.2359 73.6898 91.2359 73.7064 91.2366 73.7229L91.7361 73.7ZM91.9561 78.5L92.0471 78.9917C92.2927 78.9462 92.467 78.7266 92.4556 78.4771L91.9561 78.5ZM89.2561 79L88.7566 78.9768C88.7495 79.1292 88.8125 79.2766 88.9275 79.3769C89.0425 79.4772 89.1971 79.5195 89.3471 79.4917L89.2561 79ZM89.9961 73.84C89.9961 73.3677 89.9757 72.9611 89.9319 72.6254C89.8893 72.2989 89.82 71.9999 89.6994 71.7687L88.8128 72.2313C88.8522 72.3068 88.9029 72.4678 88.9403 72.7547C88.9765 73.0323 88.9961 73.3923 88.9961 73.84H89.9961ZM89.6994 71.7687C89.4046 71.2038 88.773 71.04 88.1361 71.04V72.04C88.6725 72.04 88.7876 72.183 88.8128 72.2313L89.6994 71.7687ZM88.1361 71.04C87.4199 71.04 86.6601 71.3229 85.8711 71.816L86.4011 72.664C87.1054 72.2238 87.6789 72.04 88.1361 72.04V71.04ZM85.6361 72.24V73.7H86.6361V72.24H85.6361ZM85.6366 73.7234L85.8566 78.4234L86.8555 78.3766L86.6355 73.6766L85.6366 73.7234ZM86.265 77.9084L83.565 78.4084L83.7471 79.3917L86.4471 78.8917L86.265 77.9084ZM84.1555 78.9247L84.3955 74.0647L83.3967 74.0154L83.1567 78.8754L84.1555 78.9247ZM84.396 74.0282L84.156 63.9082L83.1562 63.9319L83.3962 74.0519L84.396 74.0282ZM83.7459 64.4119L86.4859 63.9119L86.3063 62.9281L83.5663 63.4281L83.7459 64.4119ZM85.8967 63.395L85.6367 68.575L86.6355 68.6251L86.8955 63.4451L85.8967 63.395ZM85.6361 68.6V70.94H86.6361V68.6H85.6361ZM86.5361 71.24C86.7209 70.9936 86.9318 70.7514 87.1696 70.5136L86.4625 69.8065C86.1937 70.0753 85.9513 70.3531 85.7361 70.64L86.5361 71.24ZM87.1696 70.5136C87.3805 70.3028 87.7334 70.0407 88.2533 69.7288L87.7388 68.8713C87.1921 69.1993 86.7584 69.5106 86.4625 69.8065L87.1696 70.5136ZM88.2533 69.7288C88.7119 69.4536 89.1901 69.32 89.6961 69.32V68.32C89.0021 68.32 88.3469 68.5064 87.7388 68.8713L88.2533 69.7288ZM89.6961 69.32C90.1585 69.32 90.5353 69.4924 90.8572 69.8663L91.615 69.2138C91.1102 68.6276 90.4604 68.32 89.6961 68.32V69.32ZM90.8618 69.8715C91.172 70.2218 91.3561 70.7308 91.3561 71.46H92.3561C92.3561 70.5626 92.1268 69.7916 91.6104 69.2085L90.8618 69.8715ZM91.3568 71.4333L91.2368 73.6733L92.2354 73.7268L92.3554 71.4868L91.3568 71.4333ZM91.2366 73.7229L91.4566 78.5229L92.4556 78.4771L92.2356 73.6771L91.2366 73.7229ZM91.865 78.0084L89.1651 78.5084L89.3471 79.4917L92.0471 78.9917L91.865 78.0084ZM89.7556 79.0233L89.9956 73.8633L88.9966 73.8168L88.7566 78.9768L89.7556 79.0233ZM98.9839 76.56L98.7717 76.1073L98.9839 76.56ZM99.9839 75.96L99.6638 75.5759V75.5759L99.9839 75.96ZM100.344 75.66L100.73 75.3427C100.646 75.2397 100.524 75.1748 100.391 75.1622C100.258 75.1497 100.126 75.1906 100.024 75.2759L100.344 75.66ZM101.264 76.78L101.695 77.0335C101.801 76.8527 101.783 76.6248 101.65 76.4627L101.264 76.78ZM100.644 77.56L100.282 77.2148L100.644 77.56ZM99.7839 78.32L100.075 78.7269L100.078 78.7244L99.7839 78.32ZM98.6439 78.88L98.8061 79.3531L98.8137 79.3503L98.6439 78.88ZM94.5439 77.9L94.1577 78.2177L94.1603 78.2207L94.5439 77.9ZM94.9439 70.44L95.3397 70.7455L94.9439 70.44ZM100.524 69.42L100.166 69.7692L100.17 69.7736L100.524 69.42ZM101.044 73.72L101.406 74.0649C101.464 74.0043 101.505 73.9302 101.527 73.8494L101.044 73.72ZM100.644 74.14L100.69 74.6379C100.81 74.6268 100.923 74.5725 101.006 74.4849L100.644 74.14ZM95.6439 74.6L95.5981 74.1021C95.4611 74.1147 95.3353 74.1833 95.2504 74.2915C95.1655 74.3998 95.129 74.5383 95.1495 74.6744L95.6439 74.6ZM96.2839 71.38L96.6636 71.7055L96.668 71.7001L96.2839 71.38ZM95.5839 73.18L95.086 73.1348C95.0723 73.2853 95.1275 73.434 95.2361 73.5392C95.3447 73.6444 95.4951 73.6948 95.6452 73.6763L95.5839 73.18ZM98.9839 72.76L99.0452 73.2563C99.2715 73.2283 99.4502 73.0508 99.4797 72.8247L98.9839 72.76ZM97.7639 77.36C98.2382 77.36 98.7173 77.2372 99.1961 77.0128L98.7717 76.1073C98.3972 76.2828 98.063 76.36 97.7639 76.36V77.36ZM99.1961 77.0128C99.644 76.8028 100.019 76.5816 100.304 76.3441L99.6638 75.5759C99.4688 75.7384 99.1771 75.9173 98.7717 76.1073L99.1961 77.0128ZM100.304 76.3441L100.664 76.0441L100.024 75.2759L99.6638 75.5759L100.304 76.3441ZM99.9575 75.9774L100.878 77.0974L101.65 76.4627L100.73 75.3427L99.9575 75.9774ZM100.833 76.5265C100.727 76.7073 100.548 76.936 100.282 77.2148L101.006 77.9053C101.299 77.5974 101.535 77.3061 101.695 77.0335L100.833 76.5265ZM100.282 77.2148C100.021 77.4889 99.7563 77.7219 99.4898 77.9157L100.078 78.7244C100.398 78.4915 100.707 78.2178 101.006 77.9053L100.282 77.2148ZM99.4933 77.9132C99.2637 78.0771 98.9297 78.2452 98.4741 78.4097L98.8137 79.3503C99.3181 79.1682 99.7441 78.9629 100.075 78.7269L99.4933 77.9132ZM98.4817 78.4071C98.0687 78.5487 97.6369 78.62 97.1839 78.62V79.62C97.7442 79.62 98.2858 79.5314 98.8061 79.353L98.4817 78.4071ZM97.1839 78.62C96.2488 78.62 95.5105 78.2766 94.9275 77.5793L94.1603 78.2207C94.9373 79.1501 95.959 79.62 97.1839 79.62V78.62ZM94.9301 77.5824C94.3381 76.8628 94.0239 75.9225 94.0239 74.72H93.0239C93.0239 76.1042 93.3897 77.2839 94.1578 78.2177L94.9301 77.5824ZM94.0239 74.72C94.0239 73.198 94.4641 71.8801 95.3397 70.7455L94.5481 70.1345C93.5303 71.4533 93.0239 72.9887 93.0239 74.72H94.0239ZM95.3397 70.7455C96.2152 69.6111 97.187 69.1 98.2639 69.1V68.1C96.8075 68.1 95.5659 68.8156 94.5481 70.1345L95.3397 70.7455ZM98.2639 69.1C99.1415 69.1 99.7509 69.3437 100.166 69.7692L100.882 69.0709C100.23 68.403 99.333 68.1 98.2639 68.1V69.1ZM100.17 69.7736C100.599 70.2024 100.844 70.8275 100.844 71.72H101.844C101.844 70.6392 101.542 69.731 100.877 69.0665L100.17 69.7736ZM100.844 71.72C100.844 72.2517 100.753 72.8737 100.561 73.5907L101.527 73.8494C101.735 73.073 101.844 72.3617 101.844 71.72H100.844ZM100.682 73.3752L100.282 73.7952L101.006 74.4849L101.406 74.0649L100.682 73.3752ZM100.598 73.6421L95.5981 74.1021L95.6897 75.0979L100.69 74.6379L100.598 73.6421ZM95.1495 74.6744C95.2711 75.4829 95.5307 76.1589 95.9792 76.6371C96.4415 77.1299 97.055 77.36 97.7639 77.36V76.36C97.2862 76.36 96.953 76.2135 96.7086 75.9529C96.4504 75.6778 96.2434 75.2238 96.1383 74.5256L95.1495 74.6744ZM97.7639 70.16C97.0182 70.16 96.3877 70.4744 95.8998 71.0599L96.668 71.7001C96.9801 71.3256 97.3363 71.16 97.7639 71.16V70.16ZM95.9043 71.0546C95.4242 71.6147 95.1601 72.319 95.086 73.1348L96.0819 73.2253C96.141 72.5744 96.3436 72.0787 96.6635 71.7054L95.9043 71.0546ZM95.6452 73.6763L99.0452 73.2563L98.9226 72.2638L95.5226 72.6838L95.6452 73.6763ZM99.4797 72.8247C99.5212 72.5068 99.5439 72.23 99.5439 72H98.5439C98.5439 72.1701 98.5266 72.3999 98.4881 72.6954L99.4797 72.8247ZM99.5439 72C99.5439 71.4819 99.4205 71.0004 99.0855 70.6497C98.7463 70.2946 98.2736 70.16 97.7639 70.16V71.16C98.1075 71.16 98.2748 71.2488 98.3624 71.3404C98.4539 71.4363 98.5439 71.6249 98.5439 72H99.5439ZM107.91 76.56L107.697 76.1073L107.91 76.56ZM108.91 75.96L108.59 75.5759V75.5759L108.91 75.96ZM109.27 75.66L109.656 75.3427C109.571 75.2397 109.449 75.1748 109.317 75.1622C109.184 75.1497 109.052 75.1906 108.95 75.2759L109.27 75.66ZM110.19 76.78L110.621 77.0335C110.727 76.8527 110.709 76.6248 110.576 76.4627L110.19 76.78ZM109.57 77.56L109.208 77.2148L109.57 77.56ZM108.71 78.32L109 78.7269L109.004 78.7244L108.71 78.32ZM107.57 78.88L107.732 79.3531L107.74 79.3503L107.57 78.88ZM103.47 77.9L103.084 78.2177L103.086 78.2207L103.47 77.9ZM103.87 70.44L104.266 70.7455L103.87 70.44ZM109.45 69.42L109.092 69.7692L109.096 69.7736L109.45 69.42ZM109.97 73.72L110.332 74.0649C110.389 74.0043 110.431 73.9302 110.453 73.8494L109.97 73.72ZM109.57 74.14L109.615 74.6379C109.736 74.6268 109.848 74.5725 109.932 74.4849L109.57 74.14ZM104.57 74.6L104.524 74.1021C104.387 74.1147 104.261 74.1833 104.176 74.2915C104.091 74.3998 104.055 74.5383 104.075 74.6744L104.57 74.6ZM105.21 71.38L105.589 71.7055L105.594 71.7001L105.21 71.38ZM104.51 73.18L104.012 73.1348C103.998 73.2853 104.053 73.434 104.162 73.5392C104.271 73.6444 104.421 73.6948 104.571 73.6763L104.51 73.18ZM107.91 72.76L107.971 73.2563C108.197 73.2283 108.376 73.0508 108.405 72.8247L107.91 72.76ZM106.69 77.36C107.164 77.36 107.643 77.2372 108.122 77.0128L107.697 76.1073C107.323 76.2828 106.989 76.36 106.69 76.36V77.36ZM108.122 77.0128C108.57 76.8028 108.945 76.5816 109.23 76.3441L108.59 75.5759C108.395 75.7384 108.103 75.9173 107.697 76.1073L108.122 77.0128ZM109.23 76.3441L109.59 76.0441L108.95 75.2759L108.59 75.5759L109.23 76.3441ZM108.883 75.9774L109.803 77.0974L110.576 76.4627L109.656 75.3427L108.883 75.9774ZM109.759 76.5265C109.652 76.7073 109.474 76.936 109.208 77.2148L109.931 77.9053C110.225 77.5974 110.46 77.3061 110.621 77.0335L109.759 76.5265ZM109.208 77.2148C108.946 77.4889 108.682 77.7219 108.416 77.9157L109.004 78.7244C109.324 78.4915 109.633 78.2178 109.931 77.9053L109.208 77.2148ZM108.419 77.9132C108.189 78.0771 107.855 78.2452 107.4 78.4097L107.74 79.3503C108.244 79.1682 108.67 78.9629 109 78.7269L108.419 77.9132ZM107.408 78.4071C106.994 78.5487 106.563 78.62 106.11 78.62V79.62C106.67 79.62 107.212 79.5314 107.732 79.353L107.408 78.4071ZM106.11 78.62C105.175 78.62 104.436 78.2766 103.853 77.5793L103.086 78.2207C103.863 79.1501 104.885 79.62 106.11 79.62V78.62ZM103.856 77.5824C103.264 76.8628 102.95 75.9225 102.95 74.72H101.95C101.95 76.1042 102.315 77.2839 103.084 78.2177L103.856 77.5824ZM102.95 74.72C102.95 73.198 103.39 71.8801 104.266 70.7455L103.474 70.1345C102.456 71.4533 101.95 72.9887 101.95 74.72H102.95ZM104.266 70.7455C105.141 69.6111 106.113 69.1 107.19 69.1V68.1C105.733 68.1 104.492 68.8156 103.474 70.1345L104.266 70.7455ZM107.19 69.1C108.067 69.1 108.677 69.3437 109.092 69.7692L109.808 69.0709C109.156 68.403 108.259 68.1 107.19 68.1V69.1ZM109.096 69.7736C109.525 70.2024 109.77 70.8275 109.77 71.72H110.77C110.77 70.6392 110.468 69.731 109.803 69.0665L109.096 69.7736ZM109.77 71.72C109.77 72.2517 109.679 72.8737 109.487 73.5907L110.453 73.8494C110.661 73.073 110.77 72.3617 110.77 71.72H109.77ZM109.608 73.3752L109.208 73.7952L109.932 74.4849L110.332 74.0649L109.608 73.3752ZM109.524 73.6421L104.524 74.1021L104.615 75.0979L109.615 74.6379L109.524 73.6421ZM104.075 74.6744C104.197 75.4829 104.456 76.1589 104.905 76.6371C105.367 77.1299 105.981 77.36 106.69 77.36V76.36C106.212 76.36 105.879 76.2135 105.634 75.9529C105.376 75.6778 105.169 75.2238 105.064 74.5256L104.075 74.6744ZM106.69 70.16C105.944 70.16 105.314 70.4744 104.826 71.0599L105.594 71.7001C105.906 71.3256 106.262 71.16 106.69 71.16V70.16ZM104.83 71.0546C104.35 71.6147 104.086 72.319 104.012 73.1348L105.008 73.2253C105.067 72.5744 105.269 72.0787 105.589 71.7054L104.83 71.0546ZM104.571 73.6763L107.971 73.2563L107.848 72.2638L104.448 72.6838L104.571 73.6763ZM108.405 72.8247C108.447 72.5068 108.47 72.23 108.47 72H107.47C107.47 72.1701 107.452 72.3999 107.414 72.6954L108.405 72.8247ZM108.47 72C108.47 71.4819 108.346 71.0004 108.011 70.6497C107.672 70.2946 107.199 70.16 106.69 70.16V71.16C107.033 71.16 107.201 71.2488 107.288 71.3404C107.38 71.4363 107.47 71.6249 107.47 72H108.47ZM114.755 63.42L115.255 63.4327C115.259 63.2822 115.195 63.138 115.081 63.0401C114.966 62.9423 114.814 62.9011 114.666 62.9281L114.755 63.42ZM114.495 73.7L113.996 73.6874C113.995 73.6994 113.995 73.7114 113.996 73.7234L114.495 73.7ZM114.715 78.4L114.807 78.8917C115.052 78.8462 115.227 78.6263 115.215 78.3766L114.715 78.4ZM112.015 78.9L111.516 78.8754C111.509 79.028 111.571 79.1758 111.686 79.2764C111.801 79.377 111.956 79.4195 112.107 79.3917L112.015 78.9ZM112.255 74.04L112.755 74.0647C112.755 74.0525 112.756 74.0403 112.755 74.0282L112.255 74.04ZM112.015 63.92L111.926 63.4281C111.684 63.4723 111.51 63.6859 111.516 63.9319L112.015 63.92ZM114.256 63.4074L113.996 73.6874L114.995 73.7127L115.255 63.4327L114.256 63.4074ZM113.996 73.7234L114.216 78.4234L115.215 78.3766L114.995 73.6766L113.996 73.7234ZM114.624 77.9084L111.924 78.4084L112.107 79.3917L114.807 78.8917L114.624 77.9084ZM112.515 78.9247L112.755 74.0647L111.756 74.0154L111.516 78.8754L112.515 78.9247ZM112.755 74.0282L112.515 63.9082L111.516 63.9319L111.756 74.0519L112.755 74.0282ZM112.105 64.4119L114.845 63.9119L114.666 62.9281L111.926 63.4281L112.105 64.4119ZM120.94 70.38L120.545 70.0737L120.94 70.38ZM127.04 69.8L126.659 70.1239L126.662 70.1275L127.04 69.8ZM126.74 77.38L126.342 77.0771L126.342 77.0778L126.74 77.38ZM120.64 77.88L120.26 78.2055L120.266 78.2118L120.64 77.88ZM122.38 76.06L122.785 75.7665L122.38 76.06ZM125.34 76.14L124.926 75.8601L124.924 75.8627L125.34 76.14ZM120.06 74.72C120.06 73.1084 120.492 71.7736 121.335 70.6864L120.545 70.0737C119.548 71.3598 119.06 72.9183 119.06 74.72H120.06ZM121.335 70.6864C122.184 69.5915 123.123 69.1 124.16 69.1V68.1C122.744 68.1 121.536 68.7952 120.545 70.0737L121.335 70.6864ZM124.16 69.1C125.283 69.1 126.092 69.4562 126.659 70.1238L127.421 69.4762C126.628 68.5439 125.517 68.1 124.16 68.1V69.1ZM126.662 70.1275C127.259 70.8158 127.58 71.7496 127.58 72.98H128.58C128.58 71.5705 128.208 70.3843 127.418 69.4726L126.662 70.1275ZM127.58 72.98C127.58 74.6524 127.157 76.0068 126.342 77.0771L127.138 77.6829C128.11 76.4066 128.58 74.8276 128.58 72.98H127.58ZM126.342 77.0778C125.547 78.1249 124.576 78.62 123.4 78.62V79.62C124.917 79.62 126.173 78.9551 127.138 77.6822L126.342 77.0778ZM123.4 78.62C122.436 78.62 121.652 78.2677 121.014 77.5482L120.266 78.2118C121.094 79.1456 122.151 79.62 123.4 79.62V78.62ZM121.02 77.5546C120.388 76.8183 120.06 75.8857 120.06 74.72H119.06C119.06 76.0877 119.452 77.2618 120.26 78.2054L121.02 77.5546ZM126.34 74.02C126.34 73.012 126.171 72.1678 125.758 71.5631C125.322 70.9242 124.661 70.62 123.86 70.62V71.62C124.379 71.62 124.708 71.7992 124.932 72.127C125.179 72.489 125.34 73.0947 125.34 74.02H126.34ZM123.86 70.62C123.053 70.62 122.374 70.8936 121.916 71.4982C121.478 72.0765 121.3 72.8845 121.3 73.84H122.3C122.3 72.9822 122.465 72.4302 122.714 72.1019C122.942 71.7998 123.294 71.62 123.86 71.62V70.62ZM121.3 73.84C121.3 74.8478 121.505 75.7048 121.975 76.3535L122.785 75.7665C122.482 75.3486 122.3 74.7256 122.3 73.84H121.3ZM121.975 76.3535C122.45 77.0088 123.104 77.36 123.9 77.36V76.36C123.443 76.36 123.083 76.178 122.785 75.7665L121.975 76.3535ZM123.9 77.36C124.686 77.36 125.332 77.0535 125.756 76.4174L124.924 75.8627C124.708 76.1866 124.394 76.36 123.9 76.36V77.36ZM125.754 76.42C126.166 75.8102 126.34 74.9893 126.34 74.02H125.34C125.34 74.8908 125.18 75.4832 124.926 75.8601L125.754 76.42ZM135.148 65.88L135.03 66.3659C135.293 66.4299 135.56 66.2726 135.631 66.0112L135.148 65.88ZM132.928 66.06L132.534 65.7531C132.53 65.7577 132.527 65.7625 132.523 65.7673L132.928 66.06ZM132.668 67.32L133.168 67.3253V67.32H132.668ZM132.648 69.22L132.148 69.2148C132.147 69.3483 132.199 69.4768 132.293 69.5717C132.387 69.6666 132.515 69.72 132.648 69.72V69.22ZM134.808 69.22L135.304 69.2865C135.323 69.1436 135.28 68.9993 135.185 68.8908C135.09 68.7823 134.953 68.72 134.808 68.72V69.22ZM134.588 70.86V71.36C134.839 71.36 135.051 71.1747 135.084 70.9265L134.588 70.86ZM132.648 70.86V70.36C132.374 70.36 132.15 70.5817 132.148 70.8565L132.648 70.86ZM132.628 73.7L132.128 73.6965C132.128 73.7055 132.129 73.7144 132.129 73.7234L132.628 73.7ZM132.848 78.4L132.939 78.8917C133.185 78.8462 133.36 78.6263 133.348 78.3766L132.848 78.4ZM130.148 78.9L129.649 78.8754C129.642 79.028 129.704 79.1758 129.819 79.2764C129.934 79.377 130.089 79.4195 130.239 79.3917L130.148 78.9ZM130.388 74.04L130.888 74.0647C130.888 74.0523 130.889 74.0399 130.888 74.0274L130.388 74.04ZM130.308 70.86L130.808 70.8474C130.801 70.5763 130.58 70.36 130.308 70.36V70.86ZM128.988 70.86L128.493 70.7935C128.474 70.9365 128.517 71.0807 128.612 71.1892C128.707 71.2978 128.844 71.36 128.988 71.36V70.86ZM129.208 69.22V68.72C128.958 68.72 128.746 68.9053 128.713 69.1535L129.208 69.22ZM130.268 69.22V69.72C130.402 69.72 130.53 69.6664 130.624 69.5712C130.718 69.476 130.77 69.3472 130.768 69.2134L130.268 69.22ZM130.248 67.7H129.748L129.748 67.7066L130.248 67.7ZM131.348 64.68L131.722 65.0118L131.725 65.0089L131.348 64.68ZM135.768 63.6L136.251 63.7312C136.287 63.5976 136.267 63.4548 136.194 63.337C136.121 63.2192 136.002 63.1369 135.866 63.1097L135.768 63.6ZM135.267 65.3942C134.744 65.2672 134.257 65.2 133.808 65.2V66.2C134.16 66.2 134.566 66.2529 135.03 66.3659L135.267 65.3942ZM133.808 65.2C133.307 65.2 132.843 65.355 132.534 65.7531L133.323 66.367C133.387 66.2851 133.51 66.2 133.808 66.2V65.2ZM132.523 65.7673C132.251 66.1439 132.168 66.7042 132.168 67.32H133.168C133.168 66.7358 133.259 66.4561 133.334 66.3528L132.523 65.7673ZM132.168 67.3148L132.148 69.2148L133.148 69.2253L133.168 67.3253L132.168 67.3148ZM132.648 69.72H134.808V68.72H132.648V69.72ZM134.313 69.1535L134.093 70.7935L135.084 70.9265L135.304 69.2865L134.313 69.1535ZM134.588 70.36H132.648V71.36H134.588V70.36ZM132.148 70.8565L132.128 73.6965L133.128 73.7035L133.148 70.8635L132.148 70.8565ZM132.129 73.7234L132.349 78.4234L133.348 78.3766L133.128 73.6766L132.129 73.7234ZM132.757 77.9084L130.057 78.4084L130.239 79.3917L132.939 78.8917L132.757 77.9084ZM130.648 78.9247L130.888 74.0647L129.889 74.0154L129.649 78.8754L130.648 78.9247ZM130.888 74.0274L130.808 70.8474L129.809 70.8726L129.889 74.0526L130.888 74.0274ZM130.308 70.36H128.988V71.36H130.308V70.36ZM129.484 70.9265L129.704 69.2865L128.713 69.1535L128.493 70.7935L129.484 70.9265ZM129.208 69.72H130.268V68.72H129.208V69.72ZM130.768 69.2134L130.748 67.6934L129.748 67.7066L129.768 69.2266L130.768 69.2134ZM130.748 67.7C130.748 66.6258 131.077 65.7399 131.722 65.0118L130.974 64.3482C130.154 65.2734 129.748 66.4009 129.748 67.7H130.748ZM131.725 65.0089C132.37 64.2704 133.129 63.92 134.028 63.92V62.92C132.821 62.92 131.794 63.4097 130.972 64.3512L131.725 65.0089ZM134.028 63.92C134.553 63.92 135.1 63.9762 135.67 64.0903L135.866 63.1097C135.237 62.9839 134.624 62.92 134.028 62.92V63.92ZM135.286 63.4688L134.666 65.7488L135.631 66.0112L136.251 63.7312L135.286 63.4688ZM146.409 67.24V67.74C146.665 67.74 146.88 67.5462 146.906 67.2912L146.409 67.24ZM142.149 67.24V66.74C141.879 66.74 141.658 66.9541 141.649 67.2237L142.149 67.24ZM142.029 70.92L141.529 70.9037C141.525 71.0391 141.576 71.1705 141.67 71.2678C141.764 71.3651 141.894 71.42 142.029 71.42V70.92ZM145.849 70.92L146.346 70.9716C146.361 70.8308 146.315 70.6904 146.22 70.5852C146.126 70.4801 145.991 70.42 145.849 70.42V70.92ZM145.629 73.04V73.54C145.885 73.54 146.1 73.3464 146.126 73.0916L145.629 73.04ZM141.969 73.04V72.54C141.699 72.54 141.477 72.7548 141.469 73.0249L141.969 73.04ZM141.949 73.7L141.449 73.6849C141.449 73.6976 141.449 73.7104 141.45 73.7231L141.949 73.7ZM142.189 78.9V79.4C142.326 79.4 142.456 79.3441 142.551 79.2453C142.645 79.1465 142.695 79.0134 142.689 78.877L142.189 78.9ZM139.389 78.9L138.89 78.8754C138.883 79.0121 138.933 79.1456 139.027 79.2447C139.121 79.3439 139.252 79.4 139.389 79.4V78.9ZM139.629 74.04L140.128 74.0647C140.129 74.052 140.129 74.0393 140.129 74.0266L139.629 74.04ZM139.389 65.1V64.6C139.254 64.6 139.125 64.6546 139.031 64.7512C138.937 64.8479 138.886 64.9786 138.889 65.1134L139.389 65.1ZM146.629 65.1L147.126 65.1512C147.141 65.0104 147.095 64.8701 147 64.765C146.905 64.66 146.771 64.6 146.629 64.6V65.1ZM146.409 66.74H142.149V67.74H146.409V66.74ZM141.649 67.2237L141.529 70.9037L142.529 70.9363L142.649 67.2563L141.649 67.2237ZM142.029 71.42H145.849V70.42H142.029V71.42ZM145.352 70.8684L145.132 72.9884L146.126 73.0916L146.346 70.9716L145.352 70.8684ZM145.629 72.54H141.969V73.54H145.629V72.54ZM141.469 73.0249L141.449 73.6849L142.449 73.7152L142.469 73.0552L141.469 73.0249ZM141.45 73.7231L141.69 78.9231L142.689 78.877L142.449 73.677L141.45 73.7231ZM142.189 78.4H139.389V79.4H142.189V78.4ZM139.888 78.9247L140.128 74.0647L139.13 74.0154L138.89 78.8754L139.888 78.9247ZM140.129 74.0266L139.889 65.0866L138.889 65.1134L139.129 74.0534L140.129 74.0266ZM139.389 65.6H146.629V64.6H139.389V65.6ZM146.132 65.0489L145.912 67.1889L146.906 67.2912L147.126 65.1512L146.132 65.0489ZM148.577 70.38L148.182 70.0737L148.577 70.38ZM154.677 69.8L154.296 70.1239L154.299 70.1275L154.677 69.8ZM154.377 77.38L153.979 77.0771L153.978 77.0778L154.377 77.38ZM148.277 77.88L147.897 78.2055L147.903 78.2118L148.277 77.88ZM150.017 76.06L150.422 75.7665L150.017 76.06ZM152.977 76.14L152.562 75.8601L152.561 75.8627L152.977 76.14ZM147.697 74.72C147.697 73.1084 148.129 71.7736 148.972 70.6864L148.182 70.0737C147.184 71.3598 146.697 72.9183 146.697 74.72H147.697ZM148.972 70.6864C149.821 69.5915 150.759 69.1 151.797 69.1V68.1C150.381 68.1 149.173 68.7952 148.182 70.0737L148.972 70.6864ZM151.797 69.1C152.919 69.1 153.728 69.4562 154.296 70.1238L155.058 69.4762C154.265 68.5439 153.154 68.1 151.797 68.1V69.1ZM154.299 70.1275C154.895 70.8158 155.217 71.7496 155.217 72.98H156.217C156.217 71.5705 155.845 70.3843 155.055 69.4726L154.299 70.1275ZM155.217 72.98C155.217 74.6524 154.794 76.0068 153.979 77.0771L154.775 77.6829C155.746 76.4066 156.217 74.8276 156.217 72.98H155.217ZM153.978 77.0778C153.184 78.1249 152.213 78.62 151.037 78.62V79.62C152.554 79.62 153.809 78.9551 154.775 77.6822L153.978 77.0778ZM151.037 78.62C150.073 78.62 149.289 78.2677 148.651 77.5482L147.903 78.2118C148.731 79.1456 149.787 79.62 151.037 79.62V78.62ZM148.656 77.5546C148.025 76.8183 147.697 75.8857 147.697 74.72H146.697C146.697 76.0877 147.088 77.2618 147.897 78.2054L148.656 77.5546ZM153.977 74.02C153.977 73.012 153.807 72.1678 153.395 71.5631C152.958 70.9242 152.297 70.62 151.497 70.62V71.62C152.016 71.62 152.345 71.7992 152.569 72.127C152.816 72.489 152.977 73.0947 152.977 74.02H153.977ZM151.497 70.62C150.69 70.62 150.011 70.8936 149.553 71.4982C149.115 72.0765 148.937 72.8845 148.937 73.84H149.937C149.937 72.9822 150.102 72.4302 150.35 72.1019C150.579 71.7998 150.93 71.62 151.497 71.62V70.62ZM148.937 73.84C148.937 74.8478 149.142 75.7048 149.612 76.3535L150.422 75.7665C150.118 75.3486 149.937 74.7256 149.937 73.84H148.937ZM149.612 76.3535C150.087 77.0088 150.74 77.36 151.537 77.36V76.36C151.08 76.36 150.72 76.178 150.422 75.7665L149.612 76.3535ZM151.537 77.36C152.322 77.36 152.969 77.0535 153.393 76.4174L152.561 75.8627C152.345 76.1866 152.031 76.36 151.537 76.36V77.36ZM153.391 76.42C153.803 75.8102 153.977 74.9893 153.977 74.02H152.977C152.977 74.8908 152.817 75.4832 152.562 75.8601L153.391 76.42ZM157.225 69.24L157.12 68.7512C156.858 68.8074 156.687 69.0598 156.732 69.3237L157.225 69.24ZM159.645 68.72L160.142 68.662C160.125 68.522 160.051 68.3955 159.936 68.3135C159.822 68.2315 159.678 68.2016 159.54 68.2312L159.645 68.72ZM159.885 71.64L159.386 71.6617C159.395 71.8792 159.544 72.0656 159.754 72.1226C159.964 72.1796 160.187 72.0941 160.305 71.9112L159.885 71.64ZM163.305 68.82L163.804 68.8552C163.814 68.7168 163.766 68.5806 163.671 68.4791C163.576 68.3777 163.444 68.32 163.305 68.32V68.82ZM163.085 71.94V72.44C163.348 72.44 163.565 72.237 163.584 71.9752L163.085 71.94ZM161.245 72.16L161.39 72.6386L161.399 72.6357L161.245 72.16ZM159.885 72.98L159.554 72.6057C159.446 72.7006 159.385 72.8369 159.385 72.98H159.885ZM159.885 73.7H159.385C159.385 73.7078 159.385 73.7156 159.386 73.7234L159.885 73.7ZM160.105 78.4L160.197 78.8915C160.442 78.8458 160.616 78.626 160.605 78.3766L160.105 78.4ZM157.425 78.9L156.926 78.8754C156.918 79.0282 156.981 79.176 157.096 79.2766C157.212 79.3773 157.366 79.4196 157.517 79.3915L157.425 78.9ZM157.665 74.04L158.165 74.0647C158.165 74.0515 158.165 74.0383 158.165 74.0251L157.665 74.04ZM157.33 69.7289L159.75 69.2089L159.54 68.2312L157.12 68.7512L157.33 69.7289ZM159.149 68.7781C159.267 69.7941 159.346 70.7552 159.386 71.6617L160.385 71.6183C160.344 70.6848 160.263 69.6993 160.142 68.662L159.149 68.7781ZM160.305 71.9112C160.897 70.9946 161.453 70.3358 161.968 69.9108C162.483 69.4864 162.926 69.32 163.305 69.32V68.32C162.618 68.32 161.957 68.6236 161.332 69.1393C160.708 69.6542 160.087 70.4055 159.465 71.3689L160.305 71.9112ZM162.806 68.7849L162.586 71.9049L163.584 71.9752L163.804 68.8552L162.806 68.7849ZM163.085 71.44C162.288 71.44 161.615 71.5147 161.091 71.6843L161.399 72.6357C161.781 72.512 162.336 72.44 163.085 72.44V71.44ZM161.1 71.6815C160.571 71.8418 160.056 72.1607 159.554 72.6057L160.217 73.3543C160.648 72.9727 161.039 72.7449 161.39 72.6385L161.1 71.6815ZM159.385 72.98V73.7H160.385V72.98H159.385ZM159.386 73.7234L159.606 78.4234L160.605 78.3766L160.385 73.6766L159.386 73.7234ZM160.013 77.9085L157.333 78.4085L157.517 79.3915L160.197 78.8915L160.013 77.9085ZM157.925 78.9247L158.165 74.0647L157.166 74.0154L156.926 78.8754L157.925 78.9247ZM158.165 74.0251C158.111 72.2207 157.963 70.5971 157.718 69.1563L156.732 69.3237C156.968 70.7096 157.113 72.286 157.165 74.0549L158.165 74.0251ZM165.354 69.22V69.72C165.63 69.72 165.854 69.4962 165.854 69.22H165.354ZM165.354 67.04L165.26 66.549C165.024 66.5944 164.854 66.8003 164.854 67.04H165.354ZM168.054 66.52L168.552 66.568C168.567 66.4111 168.507 66.2563 168.391 66.1502C168.274 66.0441 168.114 65.9992 167.96 66.029L168.054 66.52ZM167.794 69.22L167.296 69.1721C167.283 69.3124 167.329 69.4519 167.424 69.5562C167.519 69.6605 167.653 69.72 167.794 69.72V69.22ZM170.214 69.22L170.71 69.2865C170.729 69.1436 170.685 68.9993 170.59 68.8908C170.495 68.7823 170.358 68.72 170.214 68.72V69.22ZM169.994 70.86V71.36C170.245 71.36 170.456 71.1747 170.49 70.9265L169.994 70.86ZM167.714 70.86V70.36C167.443 70.36 167.221 70.5767 167.214 70.8481L167.714 70.86ZM167.614 75.04L167.114 75.0281V75.04H167.614ZM167.794 76.3L167.358 76.5453L167.365 76.5573L167.794 76.3ZM169.734 76.38L170.232 76.3379C170.22 76.1898 170.142 76.055 170.02 75.9699C169.898 75.8849 169.745 75.8585 169.601 75.8979L169.734 76.38ZM169.854 77.8L170.174 78.1841C170.3 78.0797 170.366 77.9205 170.352 77.7579L169.854 77.8ZM165.894 78.18L165.516 78.5071L165.52 78.5122L165.894 78.18ZM165.254 76.26L164.755 76.2333C164.754 76.2422 164.754 76.2511 164.754 76.26H165.254ZM165.374 74.02L165.873 74.0468C165.874 74.0368 165.874 74.0268 165.874 74.0169L165.374 74.02ZM165.354 70.86L165.854 70.8569C165.852 70.582 165.629 70.36 165.354 70.36V70.86ZM163.974 70.86L163.479 70.7935C163.459 70.9365 163.503 71.0807 163.598 71.1892C163.693 71.2978 163.83 71.36 163.974 71.36V70.86ZM164.194 69.22V68.72C163.944 68.72 163.732 68.9053 163.699 69.1535L164.194 69.22ZM165.854 69.22V67.04H164.854V69.22H165.854ZM165.449 67.531L168.149 67.011L167.96 66.029L165.26 66.549L165.449 67.531ZM167.556 66.4721L167.296 69.1721L168.292 69.268L168.552 66.568L167.556 66.4721ZM167.794 69.72H170.214V68.72H167.794V69.72ZM169.718 69.1535L169.499 70.7935L170.49 70.9265L170.71 69.2865L169.718 69.1535ZM169.994 70.36H167.714V71.36H169.994V70.36ZM167.214 70.8481L167.114 75.0281L168.114 75.052L168.214 70.872L167.214 70.8481ZM167.114 75.04C167.114 75.367 167.13 75.6541 167.164 75.8957C167.197 76.1288 167.253 76.3588 167.358 76.5452L168.23 76.0549C168.215 76.0279 168.181 75.9412 168.154 75.7543C168.129 75.5759 168.114 75.3397 168.114 75.04H167.114ZM167.365 76.5573C167.608 76.9614 168.031 77.1 168.454 77.1V76.1C168.343 76.1 168.284 76.0824 168.256 76.0698C168.235 76.0602 168.229 76.0526 168.223 76.0428L167.365 76.5573ZM168.454 77.1C168.84 77.1 169.317 77.0134 169.867 76.8621L169.601 75.8979C169.085 76.04 168.708 76.1 168.454 76.1V77.1ZM169.236 76.4221L169.356 77.8421L170.352 77.7579L170.232 76.3379L169.236 76.4221ZM169.534 77.4159C168.685 78.1233 168.025 78.4 167.534 78.4V79.4C168.376 79.4 169.263 78.9434 170.174 78.1841L169.534 77.4159ZM167.534 78.4C167.004 78.4 166.596 78.2166 166.268 77.8478L165.52 78.5122C166.046 79.1035 166.731 79.4 167.534 79.4V78.4ZM166.272 77.8529C165.94 77.4683 165.754 76.9525 165.754 76.26H164.754C164.754 77.1409 164.995 77.9051 165.516 78.5071L166.272 77.8529ZM165.753 76.2868L165.873 74.0468L164.875 73.9933L164.755 76.2333L165.753 76.2868ZM165.874 74.0169L165.854 70.8569L164.854 70.8632L164.874 74.0232L165.874 74.0169ZM165.354 70.36H163.974V71.36H165.354V70.36ZM164.47 70.9265L164.69 69.2865L163.699 69.1535L163.479 70.7935L164.47 70.9265ZM164.194 69.72H165.354V68.72H164.194V69.72ZM172.323 78.2L171.955 78.5379C171.958 78.5414 171.961 78.545 171.965 78.5484L172.323 78.2ZM171.663 76.32L171.164 76.294C171.164 76.3026 171.163 76.3113 171.163 76.32H171.663ZM171.783 74.02L172.283 74.0461C172.284 74.0298 172.284 74.0134 172.283 73.9971L171.783 74.02ZM171.563 69.22L171.472 68.7285C171.227 68.7743 171.053 68.9937 171.064 69.2429L171.563 69.22ZM174.243 68.72L174.743 68.7414C174.749 68.5891 174.686 68.4422 174.571 68.3423C174.456 68.2425 174.302 68.2006 174.152 68.2285L174.243 68.72ZM173.983 74.8L173.484 74.7787C173.484 74.7858 173.483 74.7929 173.483 74.8H173.983ZM174.283 76.06L173.883 76.36C173.887 76.3642 173.89 76.3683 173.893 76.3724L174.283 76.06ZM177.163 75.78L177.41 76.215C177.567 76.1263 177.663 75.9601 177.663 75.78H177.163ZM177.163 74.58H177.663C177.663 74.5731 177.663 74.5661 177.663 74.5591L177.163 74.58ZM176.943 69.32L176.852 68.8284C176.608 68.8737 176.433 69.0922 176.444 69.3409L176.943 69.32ZM179.643 68.82L180.143 68.844C180.15 68.6914 180.087 68.5439 179.972 68.4434C179.857 68.3429 179.703 68.3006 179.552 68.3284L179.643 68.82ZM179.403 73.82L178.904 73.7961C178.904 73.8061 178.903 73.8161 178.903 73.8261L179.403 73.82ZM179.423 75.46H179.923L179.923 75.4539L179.423 75.46ZM180.083 78.04L180.286 78.4973C180.411 78.4418 180.508 78.3371 180.554 78.2078C180.6 78.0786 180.591 77.936 180.529 77.8137L180.083 78.04ZM178.003 78.96L177.558 79.1864C177.678 79.4234 177.963 79.5248 178.206 79.4173L178.003 78.96ZM177.203 76.88L177.696 76.7917C177.662 76.6033 177.523 76.4508 177.339 76.3988C177.155 76.3468 176.957 76.4045 176.83 76.5474L177.203 76.88ZM174.083 78.4C173.483 78.4 173.031 78.2106 172.682 77.8516L171.965 78.5484C172.523 79.1228 173.244 79.4 174.083 79.4V78.4ZM172.692 77.8622C172.352 77.4912 172.163 76.9931 172.163 76.32H171.163C171.163 77.1936 171.415 77.9488 171.955 78.5379L172.692 77.8622ZM172.163 76.3461L172.283 74.0461L171.284 73.994L171.164 76.294L172.163 76.3461ZM172.283 73.9971L172.063 69.1971L171.064 69.2429L171.284 74.0429L172.283 73.9971ZM171.655 69.7115L174.335 69.2115L174.152 68.2285L171.472 68.7285L171.655 69.7115ZM173.744 68.6987L173.484 74.7787L174.483 74.8214L174.743 68.7414L173.744 68.6987ZM173.483 74.8C173.483 75.4116 173.586 75.9639 173.883 76.36L174.683 75.76C174.581 75.6228 174.483 75.3351 174.483 74.8H173.483ZM173.893 76.3724C174.23 76.7939 174.732 76.96 175.283 76.96V75.96C174.929 75.96 174.763 75.8595 174.674 75.7477L173.893 76.3724ZM175.283 76.96C175.874 76.96 176.597 76.6755 177.41 76.215L176.917 75.345C176.13 75.7912 175.599 75.96 175.283 75.96V76.96ZM177.663 75.78V74.58H176.663V75.78H177.663ZM177.663 74.5591L177.443 69.2991L176.444 69.3409L176.664 74.6009L177.663 74.5591ZM177.034 69.8117L179.734 69.3117L179.552 68.3284L176.852 68.8284L177.034 69.8117ZM179.144 68.7961L178.904 73.7961L179.903 73.844L180.143 68.844L179.144 68.7961ZM178.903 73.8261L178.923 75.4661L179.923 75.4539L179.903 73.8139L178.903 73.8261ZM178.923 75.46C178.923 76.4023 179.167 77.3394 179.638 78.2664L180.529 77.8137C180.12 77.0073 179.923 76.2244 179.923 75.46H178.923ZM179.881 77.5828L177.801 78.5028L178.206 79.4173L180.286 78.4973L179.881 77.5828ZM178.449 78.7337C178.016 77.8805 177.776 77.2391 177.696 76.7917L176.711 76.9684C176.818 77.5609 177.111 78.3062 177.558 79.1864L178.449 78.7337ZM176.83 76.5474C176.248 77.201 175.721 77.6713 175.252 77.9753C174.781 78.2801 174.395 78.4 174.083 78.4V79.4C174.652 79.4 175.226 79.1833 175.795 78.8147C176.366 78.4454 176.959 77.9057 177.577 77.2127L176.83 76.5474ZM187.679 73.84L188.178 73.8633C188.179 73.8555 188.179 73.8478 188.179 73.84H187.679ZM187.439 72L187.882 71.7687L187.439 72ZM184.319 72.24L184.054 71.816C183.908 71.9074 183.819 72.0676 183.819 72.24H184.319ZM184.319 73.7H183.819C183.819 73.7078 183.819 73.7156 183.819 73.7234L184.319 73.7ZM184.539 78.4L184.63 78.8915C184.876 78.8458 185.05 78.626 185.038 78.3766L184.539 78.4ZM181.859 78.9L181.359 78.8754C181.352 79.0282 181.415 79.176 181.53 79.2766C181.645 79.3773 181.8 79.4196 181.95 79.3915L181.859 78.9ZM182.099 74.04L182.598 74.0647C182.599 74.0515 182.599 74.0383 182.599 74.0251L182.099 74.04ZM181.659 69.24L181.554 68.7512C181.292 68.8074 181.121 69.0598 181.166 69.3237L181.659 69.24ZM184.079 68.72L184.575 68.6601C184.558 68.5206 184.484 68.3946 184.369 68.3129C184.255 68.2313 184.111 68.2017 183.974 68.2312L184.079 68.72ZM184.279 70.98L183.779 71.0073C183.791 71.2172 183.932 71.3975 184.134 71.4585C184.335 71.5195 184.553 71.4482 184.679 71.28L184.279 70.98ZM184.959 70.2L185.312 70.5537L185.321 70.5444L184.959 70.2ZM186.159 69.32L186.411 69.7516L186.419 69.7469L186.159 69.32ZM189.419 69.54L189.04 69.8663L189.044 69.8715L189.419 69.54ZM190.039 71.46L190.538 71.4868C190.539 71.4779 190.539 71.4689 190.539 71.46H190.039ZM189.919 73.7L189.419 73.6733C189.419 73.6898 189.419 73.7064 189.419 73.7229L189.919 73.7ZM190.139 78.5L190.23 78.9917C190.475 78.9462 190.65 78.7266 190.638 78.4771L190.139 78.5ZM187.439 79L186.939 78.9768C186.932 79.1292 186.995 79.2766 187.11 79.3769C187.225 79.4772 187.38 79.5195 187.53 79.4917L187.439 79ZM188.179 73.84C188.179 73.3677 188.158 72.9611 188.115 72.6254C188.072 72.2989 188.003 71.9999 187.882 71.7687L186.995 72.2313C187.035 72.3068 187.086 72.4678 187.123 72.7547C187.159 73.0323 187.179 73.3923 187.179 73.84H188.179ZM187.882 71.7687C187.587 71.2038 186.956 71.04 186.319 71.04V72.04C186.855 72.04 186.97 72.183 186.995 72.2313L187.882 71.7687ZM186.319 71.04C185.603 71.04 184.843 71.3229 184.054 71.816L184.584 72.664C185.288 72.2238 185.862 72.04 186.319 72.04V71.04ZM183.819 72.24V73.7H184.819V72.24H183.819ZM183.819 73.7234L184.039 78.4234L185.038 78.3766L184.818 73.6766L183.819 73.7234ZM184.447 77.9085L181.767 78.4085L181.95 79.3915L184.63 78.8915L184.447 77.9085ZM182.358 78.9247L182.598 74.0647L181.599 74.0154L181.359 78.8754L182.358 78.9247ZM182.599 74.0251C182.545 72.2207 182.396 70.5971 182.152 69.1563L181.166 69.3237C181.401 70.7096 181.546 72.286 181.599 74.0549L182.599 74.0251ZM181.764 69.7289L184.184 69.2089L183.974 68.2312L181.554 68.7512L181.764 69.7289ZM183.582 68.7799C183.674 69.5431 183.74 70.2855 183.779 71.0073L184.778 70.9528C184.737 70.2079 184.67 69.4437 184.575 68.6601L183.582 68.7799ZM184.679 71.28C184.864 71.0336 185.074 70.7914 185.312 70.5536L184.605 69.8465C184.336 70.1153 184.094 70.3931 183.879 70.68L184.679 71.28ZM185.321 70.5444C185.527 70.3277 185.881 70.0623 186.411 69.7515L185.906 68.8885C185.344 69.2178 184.897 69.539 184.596 69.8556L185.321 70.5444ZM186.419 69.7469C186.893 69.4581 187.377 69.32 187.879 69.32V68.32C187.181 68.32 186.518 68.5153 185.898 68.8931L186.419 69.7469ZM187.879 69.32C188.341 69.32 188.718 69.4924 189.04 69.8663L189.798 69.2138C189.293 68.6276 188.643 68.32 187.879 68.32V69.32ZM189.044 69.8715C189.355 70.2218 189.539 70.7308 189.539 71.46H190.539C190.539 70.5626 190.309 69.7916 189.793 69.2085L189.044 69.8715ZM189.539 71.4333L189.419 73.6733L190.418 73.7268L190.538 71.4868L189.539 71.4333ZM189.419 73.7229L189.639 78.5229L190.638 78.4771L190.418 73.6771L189.419 73.7229ZM190.048 78.0084L187.348 78.5084L187.53 79.4917L190.23 78.9917L190.048 78.0084ZM187.938 79.0233L188.178 73.8633L187.179 73.8168L186.939 78.9768L187.938 79.0233ZM197.167 76.56L196.955 76.1073L197.167 76.56ZM198.167 75.96L197.847 75.5759V75.5759L198.167 75.96ZM198.527 75.66L198.914 75.3427C198.829 75.2397 198.707 75.1748 198.575 75.1622C198.442 75.1497 198.31 75.1906 198.207 75.2759L198.527 75.66ZM199.447 76.78L199.878 77.0335C199.985 76.8527 199.967 76.6248 199.834 76.4627L199.447 76.78ZM198.827 77.56L198.466 77.2148L198.827 77.56ZM197.967 78.32L198.258 78.7269L198.262 78.7244L197.967 78.32ZM196.827 78.88L196.99 79.3531L196.997 79.3503L196.827 78.88ZM192.727 77.9L192.341 78.2177L192.344 78.2207L192.727 77.9ZM193.128 70.44L193.523 70.7455L193.128 70.44ZM198.708 69.42L198.35 69.7692L198.354 69.7736L198.708 69.42ZM199.227 73.72L199.59 74.0649C199.647 74.0043 199.689 73.9302 199.71 73.8494L199.227 73.72ZM198.827 74.14L198.873 74.6379C198.994 74.6268 199.106 74.5725 199.19 74.4849L198.827 74.14ZM193.827 74.6L193.782 74.1021C193.645 74.1147 193.519 74.1833 193.434 74.2915C193.349 74.3998 193.313 74.5383 193.333 74.6744L193.827 74.6ZM194.467 71.38L194.847 71.7055L194.852 71.7001L194.467 71.38ZM193.768 73.18L193.27 73.1348C193.256 73.2853 193.311 73.434 193.42 73.5392C193.528 73.6444 193.679 73.6948 193.829 73.6763L193.768 73.18ZM197.167 72.76L197.229 73.2563C197.455 73.2283 197.634 73.0508 197.663 72.8247L197.167 72.76ZM195.947 77.36C196.422 77.36 196.901 77.2372 197.38 77.0128L196.955 76.1073C196.581 76.2828 196.247 76.36 195.947 76.36V77.36ZM197.38 77.0128C197.828 76.8028 198.203 76.5816 198.488 76.3441L197.847 75.5759C197.652 75.7384 197.361 75.9173 196.955 76.1073L197.38 77.0128ZM198.488 76.3441L198.848 76.0441L198.207 75.2759L197.847 75.5759L198.488 76.3441ZM198.141 75.9774L199.061 77.0974L199.834 76.4627L198.914 75.3427L198.141 75.9774ZM199.017 76.5265C198.91 76.7073 198.732 76.936 198.466 77.2148L199.189 77.9053C199.483 77.5974 199.718 77.3061 199.878 77.0335L199.017 76.5265ZM198.466 77.2148C198.204 77.4889 197.94 77.7219 197.673 77.9157L198.262 78.7244C198.582 78.4915 198.891 78.2178 199.189 77.9053L198.466 77.2148ZM197.677 77.9132C197.447 78.0771 197.113 78.2452 196.658 78.4097L196.997 79.3503C197.502 79.1682 197.928 78.9629 198.258 78.7269L197.677 77.9132ZM196.665 78.4071C196.252 78.5487 195.821 78.62 195.367 78.62V79.62C195.928 79.62 196.469 79.5314 196.99 79.353L196.665 78.4071ZM195.367 78.62C194.432 78.62 193.694 78.2766 193.111 77.5793L192.344 78.2207C193.121 79.1501 194.143 79.62 195.367 79.62V78.62ZM193.114 77.5824C192.522 76.8628 192.208 75.9225 192.208 74.72H191.207C191.207 76.1042 191.573 77.2839 192.341 78.2177L193.114 77.5824ZM192.208 74.72C192.208 73.198 192.648 71.8801 193.523 70.7455L192.732 70.1345C191.714 71.4533 191.207 72.9887 191.207 74.72H192.208ZM193.523 70.7455C194.399 69.6111 195.371 69.1 196.447 69.1V68.1C194.991 68.1 193.75 68.8156 192.732 70.1345L193.523 70.7455ZM196.447 69.1C197.325 69.1 197.934 69.3437 198.35 69.7692L199.065 69.0709C198.414 68.403 197.517 68.1 196.447 68.1V69.1ZM198.354 69.7736C198.783 70.2024 199.027 70.8275 199.027 71.72H200.027C200.027 70.6392 199.726 69.731 199.061 69.0665L198.354 69.7736ZM199.027 71.72C199.027 72.2517 198.937 72.8737 198.745 73.5907L199.71 73.8494C199.918 73.073 200.027 72.3617 200.027 71.72H199.027ZM198.865 73.3752L198.465 73.7952L199.19 74.4849L199.59 74.0649L198.865 73.3752ZM198.782 73.6421L193.782 74.1021L193.873 75.0979L198.873 74.6379L198.782 73.6421ZM193.333 74.6744C193.455 75.4829 193.714 76.1589 194.163 76.6371C194.625 77.1299 195.239 77.36 195.947 77.36V76.36C195.47 76.36 195.137 76.2135 194.892 75.9529C194.634 75.6778 194.427 75.2238 194.322 74.5256L193.333 74.6744ZM195.947 70.16C195.202 70.16 194.571 70.4744 194.083 71.0599L194.852 71.7001C195.164 71.3256 195.52 71.16 195.947 71.16V70.16ZM194.088 71.0546C193.608 71.6147 193.344 72.319 193.27 73.1348L194.265 73.2253C194.325 72.5744 194.527 72.0787 194.847 71.7054L194.088 71.0546ZM193.829 73.6763L197.229 73.2563L197.106 72.2638L193.706 72.6838L193.829 73.6763ZM197.663 72.8247C197.705 72.5068 197.727 72.23 197.727 72H196.727C196.727 72.1701 196.71 72.3999 196.672 72.6954L197.663 72.8247ZM197.727 72C197.727 71.4819 197.604 71.0004 197.269 70.6497C196.93 70.2946 196.457 70.16 195.947 70.16V71.16C196.291 71.16 196.458 71.2488 196.546 71.3404C196.638 71.4363 196.727 71.6249 196.727 72H197.727Z" fill="white" mask="url(#path-5-outside-1_13_12650)"/>
</g>
<defs>
<filter id="filter0_d_13_12650" x="0.677734" y="0" width="263.322" height="139.9" filterUnits="userSpaceOnUse" color-interpolation-filters="sRGB">
<feFlood flood-opacity="0" result="BackgroundImageFix"/>
<feColorMatrix in="SourceAlpha" type="matrix" values="0 0 0 0 0 0 0 0 0 0 0 0 0 0 0 0 0 0 127 0" result="hardAlpha"/>
<feOffset/>
<feGaussianBlur stdDeviation="25"/>
<feComposite in2="hardAlpha" operator="out"/>
<feColorMatrix type="matrix" values="0 0 0 0 0.380392 0 0 0 0 0.780392 0 0 0 0 1 0 0 0 1 0"/>
<feBlend mode="normal" in2="BackgroundImageFix" result="effect1_dropShadow_13_12650"/>
<feBlend mode="normal" in="SourceGraphic" in2="effect1_dropShadow_13_12650" result="shape"/>
</filter>
<linearGradient id="paint0_linear_13_12650" x1="212.573" y1="66.5718" x2="49.926" y2="66.5718" gradientUnits="userSpaceOnUse">
<stop stop-color="#117EC1"/>
<stop offset="0.01" stop-color="#218ECF"/>
<stop offset="0.02" stop-color="#339EDE"/>
<stop offset="0.3" stop-color="#7AD2FF"/>
<stop offset="0.33" stop-color="#6FCCFD"/>
<stop offset="0.41" stop-color="#58BFFA"/>
<stop offset="0.49" stop-color="#4AB7F8"/>
<stop offset="0.56" stop-color="#45B4F7"/>
<stop offset="0.81" stop-color="#73CEFF"/>
<stop offset="0.96" stop-color="#5BC3FF"/>
<stop offset="1" stop-color="#2B96D7"/>
</linearGradient>
<linearGradient id="paint1_linear_13_12650" x1="214" y1="66.5719" x2="50.6779" y2="66.5719" gradientUnits="userSpaceOnUse">
<stop stop-color="#0054A1"/>
<stop offset="0.06" stop-color="#0561AB"/>
<stop offset="0.15" stop-color="#0969B2"/>
<stop offset="0.28" stop-color="#0A6CB4"/>
<stop offset="0.42" stop-color="#45B4F7"/>
<stop offset="0.59" stop-color="#117EC1"/>
<stop offset="0.7" stop-color="#3EA8E7"/>
<stop offset="0.77" stop-color="#5BC3FF"/>
<stop offset="0.92" stop-color="#0867B0"/>
<stop offset="1" stop-color="#0054A1"/>
</linearGradient>
<linearGradient id="paint2_linear_13_12650" x1="132.339" y1="57.0595" x2="132.339" y2="89.7767" gradientUnits="userSpaceOnUse">
<stop stop-color="#117EC1"/>
<stop offset="0.02" stop-color="#319FE3"/>
<stop offset="0.04" stop-color="#44B4F8"/>
<stop offset="0.05" stop-color="#4BBBFF"/>
<stop offset="0.96" stop-color="#B4EFFF"/>
<stop offset="1" stop-color="#D3FEFF"/>
</linearGradient>
<linearGradient id="paint3_linear_13_12650" x1="132.339" y1="90.0628" x2="132.339" y2="56.8101" gradientUnits="userSpaceOnUse">
<stop stop-color="#73CEFF"/>
<stop offset="0.26" stop-color="#95DFFF"/>
<stop offset="0.57" stop-color="#B7F0FF"/>
<stop offset="0.83" stop-color="#CCFAFF"/>
<stop offset="1" stop-color="#D3FEFF"/>
</linearGradient>
</defs>
</svg>
