<svg width="90" height="22" viewBox="0 0 90 22" fill="none" xmlns="http://www.w3.org/2000/svg">
<path d="M1.90852 17.9416L87.4135 17.9417C87.8698 17.9399 88.307 17.7579 88.6297 17.4352C88.9524 17.1125 89.1344 16.6754 89.1361 16.219L89.1361 1.90885C89.1344 1.4525 88.9524 1.01532 88.6297 0.692633C88.307 0.369942 87.8698 0.187902 87.4135 0.186201L1.90853 0.186193C1.45217 0.187895 1.01501 0.369934 0.692316 0.692625C0.369623 1.01532 0.187585 1.45249 0.185884 1.90884L0.185883 16.2147C0.186447 16.6718 0.367989 17.1101 0.690796 17.4337C1.01361 17.7573 1.45143 17.9399 1.90852 17.9416Z" fill="url(#paint0_linear_6_9616)"/>
<path d="M1.90842 9.53549e-05L87.4134 0.00010283C87.9194 0.000673171 88.4045 0.201933 88.7623 0.559732C89.1201 0.91753 89.3213 1.40265 89.3219 1.90865L89.3219 16.2145C89.3213 16.7205 89.1201 17.2056 88.7623 17.5634C88.4045 17.9212 87.9194 18.1225 87.4134 18.123L1.90842 18.123C1.40241 18.1225 0.917297 17.9212 0.559502 17.5634C0.201698 17.2056 0.000450257 16.7205 -0.000121903 16.2145L-0.000120653 1.90864C0.000451596 1.40264 0.2017 0.917522 0.559503 0.559725C0.917299 0.201925 1.40241 0.000665608 1.90842 9.53549e-05ZM87.4134 17.7563C87.8218 17.7557 88.2133 17.593 88.5019 17.3039C88.7905 17.0148 88.9524 16.623 88.9522 16.2145L88.9522 1.90865C88.9517 1.50068 88.7894 1.10959 88.5009 0.821114C88.2124 0.532638 87.8213 0.370323 87.4134 0.369753L1.90842 0.369745C1.50045 0.370316 1.10936 0.532631 0.820886 0.821106C0.532404 1.10958 0.370096 1.50068 0.369524 1.90864L0.369522 16.2145C0.370094 16.6225 0.532402 17.0136 0.820885 17.302C1.10936 17.5905 1.50045 17.7528 1.90842 17.7534L87.4134 17.7563Z" fill="url(#paint1_linear_6_9616)"/>
<path d="M1.90852 21.6372L87.4135 21.6372C87.8698 21.6355 88.307 21.4535 88.6297 21.1308C88.9524 20.8081 89.1344 20.3709 89.1361 19.9146L89.1361 5.6044C89.1344 5.14805 88.9524 4.71088 88.6297 4.38819C88.307 4.0655 87.8698 3.88346 87.4135 3.88176L1.90853 3.88175C1.45217 3.88345 1.01501 4.06549 0.692316 4.38818C0.369623 4.71087 0.187585 5.14804 0.185884 5.60439L0.185883 19.9131C0.187203 20.3697 0.369072 20.8073 0.691803 21.1303C1.01453 21.4533 1.45193 21.6355 1.90852 21.6372Z" fill="url(#paint2_linear_6_9616)"/>
<path d="M1.90854 3.69595L87.4135 3.69596C87.9195 3.69653 88.4046 3.89779 88.7624 4.25559C89.1202 4.61339 89.3215 5.0985 89.322 5.60451L89.322 19.9132C89.3215 20.4192 89.1202 20.9043 88.7624 21.2621C88.4046 21.6199 87.9195 21.8212 87.4135 21.8218L1.90854 21.8218C1.40253 21.8212 0.917419 21.6199 0.559624 21.2621C0.20182 20.9043 0.000572327 20.4192 1.66851e-07 19.9132L1.41776e-06 5.6045C0.000573667 5.0985 0.201822 4.61338 0.559625 4.25558C0.917421 3.89779 1.40254 3.69652 1.90854 3.69595ZM87.4135 21.4543C87.8214 21.4537 88.2125 21.2914 88.501 21.0029C88.7895 20.7144 88.9518 20.3233 88.9524 19.9154L88.9524 5.60451C88.952 5.19648 88.7897 4.80528 88.5012 4.51676C88.2127 4.22825 87.8215 4.06599 87.4135 4.06561L1.90854 4.0656C1.50051 4.06598 1.10931 4.22824 0.820795 4.51676C0.532281 4.80527 0.370027 5.19648 0.369646 5.6045L0.369644 19.9132C0.369644 20.3216 0.531715 20.7132 0.820252 21.0021C1.10879 21.2911 1.5002 21.4537 1.90854 21.4543L87.4135 21.4543Z" fill="url(#paint3_linear_6_9616)"/>
<path d="M18.6069 16.5349C18.0891 16.5349 17.3417 16.4948 16.3646 16.4146L16.4958 13.7566L16.3646 8.86723H19.285C20.2695 8.86723 21.0388 9.16256 21.593 9.75322C22.1472 10.3439 22.4243 11.1642 22.4243 12.2143C22.4243 13.5415 22.0816 14.5952 21.3961 15.3754C20.7106 16.1484 19.7809 16.5349 18.6069 16.5349ZM18.8913 10.0485C18.41 10.0485 18.0709 10.0522 17.874 10.0595L17.7646 13.5706L17.8412 15.3426C18.4537 15.3864 18.8657 15.4082 19.0772 15.4082C19.6533 15.4082 20.1054 15.1749 20.4335 14.7082C20.769 14.2415 20.9367 13.5633 20.9367 12.6737C20.9367 11.7841 20.7726 11.1241 20.4445 10.6939C20.1236 10.2637 19.6059 10.0485 18.8913 10.0485ZM24.4813 16.4146C24.0511 16.4146 23.6974 16.2796 23.4203 16.0098C23.1505 15.7327 23.0156 15.3645 23.0156 14.9051C23.0156 14.4384 23.2271 14.0373 23.65 13.7019C24.073 13.3592 24.5871 13.1878 25.1923 13.1878H25.9361V13.0018C25.9361 12.6445 25.8632 12.4003 25.7174 12.269C25.5715 12.1377 25.2981 12.0721 24.897 12.0721C24.7293 12.0721 24.5287 12.1086 24.2954 12.1815C24.0693 12.2471 23.8141 12.3529 23.5297 12.4987L23.2125 11.6346C23.5261 11.4158 23.9053 11.2189 24.3501 11.0439C24.8022 10.8689 25.1741 10.7814 25.4658 10.7814C26.6106 10.7814 27.1831 11.3356 27.1831 12.444V14.5879C27.1831 14.9962 27.3107 15.452 27.5659 15.9551L26.4065 16.4474C26.2242 16.0973 26.0892 15.7838 26.0017 15.5067C25.6007 16.1119 25.0939 16.4146 24.4813 16.4146ZM24.9407 15.2989C25.2324 15.2989 25.5642 15.1494 25.9361 14.8504V14.1175C25.5496 14.03 25.2361 13.9863 24.9954 13.9863C24.536 13.9863 24.3063 14.1905 24.3063 14.5988C24.3063 14.8103 24.3647 14.9817 24.4813 15.1129C24.598 15.2369 24.7511 15.2989 24.9407 15.2989ZM29.9805 10.847L29.8492 13.5706L29.9696 16.1411L28.5038 16.4146L28.6351 13.7566L28.5148 11.1205L29.9805 10.847ZM28.4382 9.25006C28.4382 9.00213 28.533 8.78337 28.7226 8.59378C28.9122 8.39689 29.131 8.29845 29.3789 8.29845C29.6268 8.29845 29.8164 8.36772 29.9477 8.50627C30.0789 8.63753 30.1446 8.83806 30.1446 9.10787C30.1446 9.37768 30.0498 9.61102 29.8602 9.80791C29.6779 9.9975 29.4628 10.0923 29.2148 10.0923C28.9742 10.0923 28.7846 10.0121 28.646 9.85166C28.5075 9.69124 28.4382 9.4907 28.4382 9.25006ZM32.6838 7.94842L32.5416 13.5706L32.6619 16.1411L31.1852 16.4146L31.3165 13.7566L31.1852 8.22188L32.6838 7.94842ZM34.1049 18.5256L35.2316 15.9989L34.4222 13.7894L33.3174 11.1314L34.7722 10.858L35.4722 13.1878L35.8332 14.2926H35.9754L36.2379 13.4941L37.0254 10.847L38.3708 11.0111L36.4348 16.0973L35.516 18.8209L34.1049 18.5256ZM42.9226 13.505H42.2992V13.5706L42.4304 16.4146H40.9647L41.096 13.7566L40.9647 8.86723H43.3383C44.0383 8.86723 44.5962 9.05682 45.0118 9.43601C45.4275 9.8152 45.6353 10.3184 45.6353 10.9455C45.6353 11.4195 45.5113 11.8533 45.2634 12.2471C45.0228 12.6336 44.6946 12.9399 44.279 13.1659L46.1822 15.8567L44.8587 16.5349L43.1523 13.4941C43.1013 13.5014 43.0247 13.505 42.9226 13.505ZM42.9445 9.97198H42.4085L42.332 12.444H43.0758C43.4404 12.444 43.7211 12.3237 43.918 12.083C44.1222 11.8424 44.2243 11.4997 44.2243 11.0549C44.2243 10.3329 43.7977 9.97198 42.9445 9.97198ZM49.0272 15.2989C49.2387 15.2989 49.4611 15.2442 49.6945 15.1348C49.9278 15.0254 50.1101 14.916 50.2414 14.8066L50.4382 14.6426L50.9414 15.2551C50.8685 15.3791 50.7555 15.5213 50.6023 15.6817C50.4492 15.8421 50.2924 15.9807 50.132 16.0973C49.9788 16.2067 49.771 16.3088 49.5085 16.4036C49.2533 16.4911 48.9871 16.5349 48.71 16.5349C48.1194 16.5349 47.6381 16.3125 47.2662 15.8676C46.8943 15.4155 46.7083 14.8358 46.7083 14.1285C46.7083 13.2388 46.9672 12.4586 47.4849 11.7877C48.0027 11.1168 48.6079 10.7814 49.3007 10.7814C49.833 10.7814 50.245 10.9309 50.5367 11.2299C50.8357 11.5288 50.9852 11.9481 50.9852 12.4878C50.9852 12.8086 50.9305 13.1732 50.8211 13.5816L50.6023 13.8113L47.8678 14.0628C47.9917 14.8869 48.3782 15.2989 49.0272 15.2989ZM49.0272 11.908C48.7064 11.908 48.4366 12.0393 48.2178 12.3018C47.999 12.557 47.8714 12.8852 47.835 13.2862L49.6945 13.0565C49.7163 12.8888 49.7273 12.7503 49.7273 12.6409C49.7273 12.1523 49.4939 11.908 49.0272 11.908ZM56.8183 15.0473H56.9605L57.3106 13.5488L57.8793 10.847L59.2138 11.0111L58.4153 13.7238L57.7481 16.2833L55.9542 16.4474L55.3526 13.7894L55.2979 13.6144L54.5651 16.2833L52.8259 16.4474L52.1915 13.7894L51.4368 11.1314L52.8697 10.858L53.3181 13.2644L53.7119 15.0473H53.8541L54.7948 11.9299L54.5651 11.1314L55.9761 10.858L56.4355 13.2644L56.8183 15.0473ZM61.0344 16.4146C60.6042 16.4146 60.2505 16.2796 59.9734 16.0098C59.7036 15.7327 59.5687 15.3645 59.5687 14.9051C59.5687 14.4384 59.7802 14.0373 60.2031 13.7019C60.626 13.3592 61.1401 13.1878 61.7454 13.1878H62.4892V13.0018C62.4892 12.6445 62.4163 12.4003 62.2704 12.269C62.1246 12.1377 61.8511 12.0721 61.4501 12.0721C61.2823 12.0721 61.0818 12.1086 60.8485 12.1815C60.6224 12.2471 60.3672 12.3529 60.0828 12.4987L59.7656 11.6346C60.0791 11.4158 60.4583 11.2189 60.9031 11.0439C61.3553 10.8689 61.7272 10.7814 62.0188 10.7814C63.1637 10.7814 63.7361 11.3356 63.7361 12.444V14.5879C63.7361 14.9962 63.8637 15.452 64.119 15.9551L62.9595 16.4474C62.7772 16.0973 62.6423 15.7838 62.5548 15.5067C62.1537 16.1119 61.6469 16.4146 61.0344 16.4146ZM61.4938 15.2989C61.7855 15.2989 62.1173 15.1494 62.4892 14.8504V14.1175C62.1027 14.03 61.7891 13.9863 61.5485 13.9863C61.0891 13.9863 60.8594 14.1905 60.8594 14.5988C60.8594 14.8103 60.9177 14.9817 61.0344 15.1129C61.1511 15.2369 61.3042 15.2989 61.4938 15.2989ZM64.9475 11.1314L66.271 10.847C66.3367 11.4085 66.3804 11.9408 66.4023 12.444C67.0659 11.4158 67.6894 10.9017 68.2727 10.9017L68.1524 12.6081C67.7295 12.6081 67.394 12.6482 67.1461 12.7284C66.9055 12.8013 66.6575 12.9508 66.4023 13.1769V13.5706L66.5226 16.1411L65.0569 16.4146L65.1882 13.7566C65.159 12.7794 65.0788 11.9044 64.9475 11.1314ZM71.8544 15.3426C71.2856 16.0572 70.7934 16.4146 70.3777 16.4146C69.86 16.4146 69.4334 16.2031 69.098 15.7801C68.7698 15.3572 68.6057 14.8139 68.6057 14.1504C68.6057 13.2388 68.8573 12.4695 69.3605 11.8424C69.8709 11.2153 70.4944 10.9017 71.2309 10.9017L71.8434 10.9892V10.7814L71.7122 8.22188L73.2107 7.94842L73.0685 13.5706V14.5332C73.0685 14.9707 73.1779 15.4739 73.3966 16.0427L72.2153 16.5349C72.0039 16.0973 71.8835 15.6999 71.8544 15.3426ZM69.8308 13.5816C69.8308 14.0483 69.9147 14.4129 70.0824 14.6754C70.2574 14.9379 70.5053 15.0692 70.8262 15.0692C71.1543 15.0692 71.4934 14.9379 71.8434 14.6754V12.3127C71.4059 12.2252 71.0814 12.1815 70.8699 12.1815C70.5418 12.1815 70.2866 12.2982 70.1043 12.5315C69.922 12.7649 69.8308 13.1149 69.8308 13.5816Z" fill="#FF172D"/>
<defs>
<linearGradient id="paint0_linear_6_9616" x1="88.5418" y1="9.06357" x2="-0.411303" y2="9.06356" gradientUnits="userSpaceOnUse">
<stop stop-color="#117EC1"/>
<stop offset="0.01" stop-color="#218ECF"/>
<stop offset="0.02" stop-color="#339EDE"/>
<stop offset="0.3" stop-color="#7AD2FF"/>
<stop offset="0.33" stop-color="#6FCCFD"/>
<stop offset="0.41" stop-color="#58BFFA"/>
<stop offset="0.49" stop-color="#4AB7F8"/>
<stop offset="0.56" stop-color="#45B4F7"/>
<stop offset="0.81" stop-color="#73CEFF"/>
<stop offset="0.96" stop-color="#5BC3FF"/>
<stop offset="1" stop-color="#2B96D7"/>
</linearGradient>
<linearGradient id="paint1_linear_6_9616" x1="89.3219" y1="9.06337" x2="-0.000121278" y2="9.06336" gradientUnits="userSpaceOnUse">
<stop stop-color="#0054A1"/>
<stop offset="0.06" stop-color="#0561AB"/>
<stop offset="0.15" stop-color="#0969B2"/>
<stop offset="0.28" stop-color="#0A6CB4"/>
<stop offset="0.42" stop-color="#45B4F7"/>
<stop offset="0.59" stop-color="#117EC1"/>
<stop offset="0.7" stop-color="#3EA8E7"/>
<stop offset="0.77" stop-color="#5BC3FF"/>
<stop offset="0.92" stop-color="#0867B0"/>
<stop offset="1" stop-color="#0054A1"/>
</linearGradient>
<linearGradient id="paint2_linear_6_9616" x1="44.661" y1="3.86094" x2="44.661" y2="21.7542" gradientUnits="userSpaceOnUse">
<stop stop-color="#117EC1"/>
<stop offset="0.02" stop-color="#319FE3"/>
<stop offset="0.04" stop-color="#44B4F8"/>
<stop offset="0.05" stop-color="#4BBBFF"/>
<stop offset="0.96" stop-color="#B4EFFF"/>
<stop offset="1" stop-color="#D3FEFF"/>
</linearGradient>
<linearGradient id="paint3_linear_6_9616" x1="44.661" y1="21.9108" x2="44.661" y2="3.72467" gradientUnits="userSpaceOnUse">
<stop stop-color="#73CEFF"/>
<stop offset="0.26" stop-color="#95DFFF"/>
<stop offset="0.57" stop-color="#B7F0FF"/>
<stop offset="0.83" stop-color="#CCFAFF"/>
<stop offset="1" stop-color="#D3FEFF"/>
</linearGradient>
</defs>
</svg>
