<svg width="90" height="22" viewBox="0 0 90 22" fill="none" xmlns="http://www.w3.org/2000/svg">
<path d="M1.90852 17.9414L87.4135 17.9414C87.8698 17.9397 88.307 17.7577 88.6297 17.435C88.9524 17.1123 89.1344 16.6751 89.1361 16.2188L89.1361 1.9086C89.1344 1.45225 88.9524 1.01508 88.6297 0.692388C88.307 0.369697 87.8698 0.187658 87.4135 0.185957L1.90853 0.185949C1.45217 0.187651 1.01501 0.36969 0.692316 0.692381C0.369623 1.01507 0.187585 1.45225 0.185884 1.9086L0.185883 16.2144C0.186447 16.6715 0.367989 17.1098 0.690796 17.4334C1.01361 17.7571 1.45143 17.9397 1.90852 17.9414Z" fill="url(#paint0_linear_6_10784)"/>
<path d="M1.90842 -0.000148786L87.4134 -0.000141311C87.9194 0.000429031 88.4045 0.201689 88.7623 0.559488C89.1201 0.917286 89.3213 1.4024 89.3219 1.90841L89.3219 16.2143C89.3213 16.7203 89.1201 17.2054 88.7623 17.5632C88.4045 17.921 87.9194 18.1222 87.4134 18.1228L1.90842 18.1228C1.40241 18.1222 0.917297 17.921 0.559502 17.5632C0.201698 17.2054 0.000450257 16.7203 -0.000121903 16.2142L-0.000120653 1.9084C0.000451596 1.4024 0.2017 0.917278 0.559503 0.559481C0.917299 0.201681 1.40241 0.000421467 1.90842 -0.000148786ZM87.4134 17.756C87.8218 17.7555 88.2133 17.5927 88.5019 17.3036C88.7905 17.0145 88.9524 16.6227 88.9522 16.2143L88.9522 1.90841C88.9517 1.50044 88.7894 1.10935 88.5009 0.820869C88.2124 0.532394 87.8213 0.370079 87.4134 0.369509L1.90842 0.369501C1.50045 0.370071 1.10936 0.532387 0.820886 0.820862C0.532404 1.10934 0.370096 1.50043 0.369524 1.9084L0.369522 16.2142C0.370094 16.6222 0.532402 17.0133 0.820885 17.3018C1.10936 17.5903 1.50045 17.7526 1.90842 17.7531L87.4134 17.756Z" fill="url(#paint1_linear_6_10784)"/>
<path d="M1.90852 21.637L87.4135 21.637C87.8698 21.6353 88.307 21.4532 88.6297 21.1305C88.9524 20.8078 89.1344 20.3707 89.1361 19.9143L89.1361 5.60416C89.1344 5.14781 88.9524 4.71063 88.6297 4.38795C88.307 4.06525 87.8698 3.88321 87.4135 3.88151L1.90853 3.88151C1.45217 3.88321 1.01501 4.06525 0.692316 4.38794C0.369623 4.71063 0.187585 5.1478 0.185884 5.60415L0.185883 19.9129C0.187203 20.3695 0.369072 20.807 0.691803 21.13C1.01453 21.453 1.45193 21.6353 1.90852 21.637Z" fill="url(#paint2_linear_6_10784)"/>
<path d="M1.90854 3.69571L87.4135 3.69571C87.9195 3.69629 88.4046 3.89755 88.7624 4.25535C89.1202 4.61315 89.3215 5.09826 89.322 5.60426L89.322 19.913C89.3215 20.419 89.1202 20.9041 88.7624 21.2619C88.4046 21.6197 87.9195 21.821 87.4135 21.8215L1.90854 21.8215C1.40253 21.821 0.917419 21.6197 0.559624 21.2619C0.20182 20.9041 0.000572327 20.419 1.66851e-07 19.913L1.41776e-06 5.60426C0.000573667 5.09825 0.201822 4.61314 0.559625 4.25534C0.917421 3.89754 1.40254 3.69628 1.90854 3.69571ZM87.4135 21.454C87.8214 21.4535 88.2125 21.2911 88.501 21.0027C88.7895 20.7142 88.9518 20.3231 88.9524 19.9151L88.9524 5.60426C88.952 5.19624 88.7897 4.80504 88.5012 4.51652C88.2127 4.228 87.8215 4.06575 87.4135 4.06537L1.90854 4.06536C1.50051 4.06574 1.10931 4.22799 0.820795 4.51651C0.532281 4.80503 0.370027 5.19623 0.369646 5.60426L0.369644 19.913C0.369644 20.3213 0.531715 20.713 0.820252 21.0019C1.10879 21.2908 1.5002 21.4535 1.90854 21.454L87.4135 21.454Z" fill="url(#paint3_linear_6_10784)"/>
<path d="M14.3334 15.047H14.4537L14.9678 13.1657L16.0178 8.80136L17.2539 8.99824L16.0616 13.3407L15.3287 16.3268L13.3271 16.469L12.7036 13.5485L12.3317 12.1047L12.0035 13.3407L11.2707 16.3268L9.30183 16.469L8.64554 13.5485L7.50797 9.07481L8.92993 8.80136L9.81592 13.0235L10.3081 15.047H10.4285L11.0082 13.0235L11.8067 10.0702L11.5551 9.07481L12.9989 8.80136L13.863 13.0235L14.3334 15.047ZM21.266 13.647C21.266 13.1438 21.2223 12.8084 21.1348 12.6406C21.0473 12.4729 20.8431 12.3891 20.5222 12.3891C20.2014 12.3891 19.8368 12.5167 19.4284 12.7719V13.5704L19.5487 16.1409L18.0721 16.4143L18.2033 13.7563L18.0721 8.22163L19.5706 7.94818L19.4284 10.7812V12.0609C19.5378 11.9151 19.6618 11.7729 19.8003 11.6343C19.9389 11.4958 20.154 11.339 20.4457 11.164C20.7373 10.989 21.0473 10.9015 21.3754 10.9015C21.7108 10.9015 21.9916 11.0327 22.2176 11.2953C22.4437 11.5505 22.5567 11.9005 22.5567 12.3453L22.4911 13.5704L22.6114 16.1955L21.1348 16.469L21.266 13.647ZM25.7877 15.2986C25.9992 15.2986 26.2216 15.2439 26.455 15.1345C26.6883 15.0252 26.8706 14.9158 27.0019 14.8064L27.1988 14.6423L27.7019 15.2549C27.629 15.3788 27.516 15.521 27.3628 15.6815C27.2097 15.8419 27.0529 15.9804 26.8925 16.0971C26.7394 16.2065 26.5315 16.3086 26.269 16.4034C26.0138 16.4909 25.7476 16.5346 25.4705 16.5346C24.8799 16.5346 24.3986 16.3122 24.0267 15.8674C23.6548 15.4153 23.4689 14.8356 23.4689 14.1282C23.4689 13.2386 23.7277 12.4583 24.2455 11.7875C24.7632 11.1166 25.3685 10.7812 26.0612 10.7812C26.5935 10.7812 27.0055 10.9306 27.2972 11.2296C27.5962 11.5286 27.7457 11.9479 27.7457 12.4875C27.7457 12.8084 27.691 13.173 27.5816 13.5813L27.3628 13.811L24.6283 14.0626C24.7523 14.8866 25.1388 15.2986 25.7877 15.2986ZM25.7877 11.9078C25.4669 11.9078 25.1971 12.039 24.9783 12.3016C24.7596 12.5568 24.632 12.8849 24.5955 13.286L26.455 13.0563C26.4769 12.8886 26.4878 12.75 26.4878 12.6406C26.4878 12.1521 26.2544 11.9078 25.7877 11.9078ZM30.6693 15.2986C30.8808 15.2986 31.1032 15.2439 31.3366 15.1345C31.5699 15.0252 31.7522 14.9158 31.8835 14.8064L32.0803 14.6423L32.5835 15.2549C32.5106 15.3788 32.3976 15.521 32.2444 15.6815C32.0913 15.8419 31.9345 15.9804 31.7741 16.0971C31.6209 16.2065 31.4131 16.3086 31.1506 16.4034C30.8954 16.4909 30.6292 16.5346 30.3521 16.5346C29.7615 16.5346 29.2802 16.3122 28.9083 15.8674C28.5364 15.4153 28.3504 14.8356 28.3504 14.1282C28.3504 13.2386 28.6093 12.4583 29.127 11.7875C29.6448 11.1166 30.25 10.7812 30.9428 10.7812C31.4751 10.7812 31.8871 10.9306 32.1788 11.2296C32.4778 11.5286 32.6273 11.9479 32.6273 12.4875C32.6273 12.8084 32.5726 13.173 32.4632 13.5813L32.2444 13.811L29.5099 14.0626C29.6338 14.8866 30.0203 15.2986 30.6693 15.2986ZM30.6693 11.9078C30.3485 11.9078 30.0787 12.039 29.8599 12.3016C29.6411 12.5568 29.5135 12.8849 29.4771 13.286L31.3366 13.0563C31.3584 12.8886 31.3694 12.75 31.3694 12.6406C31.3694 12.1521 31.136 11.9078 30.6693 11.9078ZM35.0806 7.94818L34.9384 13.5704L35.0587 16.1409L33.582 16.4143L33.7133 13.7563L33.582 8.22163L35.0806 7.94818ZM37.7082 14.1282C37.7082 13.1948 37.9598 12.4037 38.4629 11.7547C38.9661 11.1057 39.5531 10.7812 40.224 10.7812C40.9021 10.7812 41.4272 10.9999 41.7991 11.4374C42.1782 11.875 42.3678 12.4547 42.3678 13.1766C42.3678 14.1392 42.1236 14.9413 41.635 15.583C41.1537 16.2174 40.5448 16.5346 39.8083 16.5346C39.2031 16.5346 38.6999 16.3086 38.2989 15.8565C37.9051 15.3971 37.7082 14.821 37.7082 14.1282ZM41.1428 13.7454C41.1428 12.688 40.7818 12.1594 40.0599 12.1594C39.3088 12.1594 38.9333 12.6552 38.9333 13.647C38.9333 14.1647 39.039 14.5694 39.2505 14.8611C39.4619 15.1528 39.739 15.2986 40.0818 15.2986C40.4318 15.2986 40.6943 15.1674 40.8693 14.9048C41.0516 14.635 41.1428 14.2486 41.1428 13.7454ZM46.2336 9.29357C45.9638 9.22794 45.7195 9.19513 45.5008 9.19513C45.282 9.19513 45.1216 9.26076 45.0195 9.39202C44.9247 9.52327 44.8773 9.75298 44.8773 10.0811L44.8664 11.1202H46.0477L45.9274 12.0172H44.8664L44.8554 13.5704L44.9757 16.1409L43.4991 16.4143L43.6303 13.7563L43.5866 12.0172H42.8647L42.985 11.1202H43.5647L43.5538 10.2889C43.5538 9.63995 43.7543 9.08939 44.1554 8.63728C44.5564 8.17788 45.045 7.94818 45.6211 7.94818C45.9274 7.94818 46.2446 7.981 46.5727 8.04662L46.2336 9.29357ZM52.3921 10.0374H50.0623L49.9967 12.05H52.0859L51.9656 13.2094H49.9639L49.9529 13.5704L50.0842 16.4143H48.5529L48.6841 13.7563L48.5529 8.86698H52.5125L52.3921 10.0374ZM52.8229 14.1282C52.8229 13.1948 53.0745 12.4037 53.5776 11.7547C54.0808 11.1057 54.6678 10.7812 55.3387 10.7812C56.0169 10.7812 56.5419 10.9999 56.9138 11.4374C57.293 11.875 57.4826 12.4547 57.4826 13.1766C57.4826 14.1392 57.2383 14.9413 56.7497 15.583C56.2684 16.2174 55.6595 16.5346 54.923 16.5346C54.3178 16.5346 53.8146 16.3086 53.4136 15.8565C53.0198 15.3971 52.8229 14.821 52.8229 14.1282ZM56.2575 13.7454C56.2575 12.688 55.8965 12.1594 55.1746 12.1594C54.4235 12.1594 54.048 12.6552 54.048 13.647C54.048 14.1647 54.1537 14.5694 54.3652 14.8611C54.5767 15.1528 54.8538 15.2986 55.1965 15.2986C55.5465 15.2986 55.809 15.1674 55.984 14.9048C56.1663 14.635 56.2575 14.2486 56.2575 13.7454ZM58.3075 11.1312L59.6311 10.8468C59.6967 11.4083 59.7404 11.9406 59.7623 12.4438C60.4259 11.4156 61.0494 10.9015 61.6327 10.9015L61.5124 12.6078C61.0895 12.6078 60.754 12.6479 60.5061 12.7282C60.2655 12.8011 60.0175 12.9506 59.7623 13.1766V13.5704L59.8826 16.1409L58.4169 16.4143L58.5482 13.7563C58.519 12.7792 58.4388 11.9041 58.3075 11.1312ZM62.7533 11.1202V9.92799L64.2299 9.64359L64.0878 11.1202H65.4113L65.2909 12.0172H64.044L63.9893 14.3032C63.9893 14.646 64.0221 14.8757 64.0878 14.9923C64.1534 15.1017 64.2737 15.1564 64.4487 15.1564C64.6237 15.1564 64.8571 15.1163 65.1488 15.0361L65.2144 15.8127C64.7331 16.2138 64.3102 16.4143 63.9456 16.4143C63.581 16.4143 63.282 16.283 63.0486 16.0205C62.8153 15.7507 62.6986 15.4007 62.6986 14.9705L62.7642 13.7454L62.7533 12.0172H61.9986L62.1189 11.1202H62.7533ZM67.5275 16.4143C67.1337 16.4143 66.8128 16.2867 66.5649 16.0315C66.3243 15.769 66.2039 15.4262 66.2039 15.0033L66.2696 13.7454L66.1493 11.1202L67.615 10.8468L67.4728 14.172C67.4728 14.4855 67.5275 14.7152 67.6368 14.8611C67.7535 15.0069 67.9358 15.0799 68.1837 15.0799C68.4317 15.0799 68.7744 14.9559 69.2119 14.708V14.0517L69.0916 11.1749L70.5683 10.9015L70.437 13.636L70.4479 14.5329C70.4479 14.9996 70.5683 15.47 70.8089 15.944L69.6713 16.4471C69.4307 15.9731 69.2849 15.5939 69.2338 15.3096C68.5775 16.0461 68.0087 16.4143 67.5275 16.4143ZM74.9628 13.647C74.9628 13.1438 74.9191 12.8084 74.8316 12.6406C74.7441 12.4729 74.5399 12.3891 74.219 12.3891C73.8982 12.3891 73.5336 12.5167 73.1252 12.7719V13.5704L73.2455 16.1409L71.7798 16.4143L71.9111 13.7563C71.8819 12.7792 71.8017 11.9041 71.6705 11.1312L72.994 10.8468C73.045 11.2697 73.0815 11.6817 73.1034 12.0828C73.2127 11.937 73.3367 11.7948 73.4752 11.6562C73.6138 11.5104 73.8326 11.3499 74.1315 11.1749C74.4305 10.9926 74.7441 10.9015 75.0722 10.9015C75.4077 10.9015 75.6884 11.0327 75.9145 11.2953C76.1405 11.5505 76.2535 11.9005 76.2535 12.3453L76.1879 13.5704L76.3082 16.1955L74.8316 16.469L74.9628 13.647ZM79.4851 15.2986C79.6965 15.2986 79.919 15.2439 80.1523 15.1345C80.3857 15.0252 80.568 14.9158 80.6992 14.8064L80.8961 14.6423L81.3993 15.2549C81.3263 15.3788 81.2133 15.521 81.0602 15.6815C80.907 15.8419 80.7503 15.9804 80.5898 16.0971C80.4367 16.2065 80.2289 16.3086 79.9664 16.4034C79.7111 16.4909 79.445 16.5346 79.1679 16.5346C78.5772 16.5346 78.0959 16.3122 77.724 15.8674C77.3521 15.4153 77.1662 14.8356 77.1662 14.1282C77.1662 13.2386 77.4251 12.4583 77.9428 11.7875C78.4605 11.1166 79.0658 10.7812 79.7585 10.7812C80.2909 10.7812 80.7029 10.9306 80.9945 11.2296C81.2935 11.5286 81.443 11.9479 81.443 12.4875C81.443 12.8084 81.3883 13.173 81.2789 13.5813L81.0602 13.811L78.3256 14.0626C78.4496 14.8866 78.8361 15.2986 79.4851 15.2986ZM79.4851 11.9078C79.1642 11.9078 78.8944 12.039 78.6757 12.3016C78.4569 12.5568 78.3293 12.8849 78.2928 13.286L80.1523 13.0563C80.1742 12.8886 80.1851 12.75 80.1851 12.6406C80.1851 12.1521 79.9518 11.9078 79.4851 11.9078Z" fill="#FF172D"/>
<defs>
<linearGradient id="paint0_linear_6_10784" x1="88.5418" y1="9.06332" x2="-0.411303" y2="9.06332" gradientUnits="userSpaceOnUse">
<stop stop-color="#117EC1"/>
<stop offset="0.01" stop-color="#218ECF"/>
<stop offset="0.02" stop-color="#339EDE"/>
<stop offset="0.3" stop-color="#7AD2FF"/>
<stop offset="0.33" stop-color="#6FCCFD"/>
<stop offset="0.41" stop-color="#58BFFA"/>
<stop offset="0.49" stop-color="#4AB7F8"/>
<stop offset="0.56" stop-color="#45B4F7"/>
<stop offset="0.81" stop-color="#73CEFF"/>
<stop offset="0.96" stop-color="#5BC3FF"/>
<stop offset="1" stop-color="#2B96D7"/>
</linearGradient>
<linearGradient id="paint1_linear_6_10784" x1="89.3219" y1="9.06313" x2="-0.000121278" y2="9.06312" gradientUnits="userSpaceOnUse">
<stop stop-color="#0054A1"/>
<stop offset="0.06" stop-color="#0561AB"/>
<stop offset="0.15" stop-color="#0969B2"/>
<stop offset="0.28" stop-color="#0A6CB4"/>
<stop offset="0.42" stop-color="#45B4F7"/>
<stop offset="0.59" stop-color="#117EC1"/>
<stop offset="0.7" stop-color="#3EA8E7"/>
<stop offset="0.77" stop-color="#5BC3FF"/>
<stop offset="0.92" stop-color="#0867B0"/>
<stop offset="1" stop-color="#0054A1"/>
</linearGradient>
<linearGradient id="paint2_linear_6_10784" x1="44.661" y1="3.86069" x2="44.661" y2="21.754" gradientUnits="userSpaceOnUse">
<stop stop-color="#117EC1"/>
<stop offset="0.02" stop-color="#319FE3"/>
<stop offset="0.04" stop-color="#44B4F8"/>
<stop offset="0.05" stop-color="#4BBBFF"/>
<stop offset="0.96" stop-color="#B4EFFF"/>
<stop offset="1" stop-color="#D3FEFF"/>
</linearGradient>
<linearGradient id="paint3_linear_6_10784" x1="44.661" y1="21.9105" x2="44.661" y2="3.72442" gradientUnits="userSpaceOnUse">
<stop stop-color="#73CEFF"/>
<stop offset="0.26" stop-color="#95DFFF"/>
<stop offset="0.57" stop-color="#B7F0FF"/>
<stop offset="0.83" stop-color="#CCFAFF"/>
<stop offset="1" stop-color="#D3FEFF"/>
</linearGradient>
</defs>
</svg>
