<svg width="83" height="29" viewBox="0 0 83 29" fill="none" xmlns="http://www.w3.org/2000/svg">
<path d="M81.691 9.16528H28.3094V24.9876H81.691V9.16528Z" fill="url(#paint0_linear_6_9569)"/>
<path d="M27 7V27.1529H83V7H27ZM81.6905 24.9885H37.1651V9.16529H81.6905V24.9885Z" fill="url(#paint1_radial_6_9569)"/>
<path d="M0 9.44484L12.0207 0H42.8476L51.3384 16.7431L33.7529 28.7144L3.69003 26.9972L0 9.44484Z" fill="url(#paint2_linear_6_9569)"/>
<path d="M42.8459 0H12.0207L0 9.44484L3.14147 27.9844L33.7529 28.7144L51.3384 16.7431L42.8459 0ZM32.6907 25.9929L6.04783 24.5482L2.70193 9.77875L13.6051 1.83053H40.9396L48.6382 15.9203L32.6907 25.9929Z" fill="url(#paint3_radial_6_9569)"/>
<path style="mix-blend-mode:multiply" opacity="0.62" d="M40.937 1.83057L40.3833 3.38511L47.5393 16.3598L48.6365 15.9203L40.937 1.83057Z" fill="url(#paint4_linear_6_9569)"/>
<path style="mix-blend-mode:multiply" opacity="0.62" d="M40.3832 3.38511H14.1842L13.6024 1.83057H40.9369L40.3832 3.38511Z" fill="url(#paint5_linear_6_9569)"/>
<path style="mix-blend-mode:multiply" opacity="0.62" d="M14.1844 3.38511L4.35794 10.7311L6.04793 24.5483L2.70203 9.77878L13.6026 1.83057L14.1844 3.38511Z" fill="url(#paint6_linear_6_9569)"/>
<defs>
<linearGradient id="paint0_linear_6_9569" x1="28.3094" y1="17.0769" x2="81.6905" y2="17.0769" gradientUnits="userSpaceOnUse">
<stop stop-color="#1B939C"/>
<stop offset="0.14" stop-color="#158598"/>
<stop offset="0.49" stop-color="#0A6890"/>
<stop offset="0.78" stop-color="#03568C"/>
<stop offset="1" stop-color="#00508A"/>
</linearGradient>
<radialGradient id="paint1_radial_6_9569" cx="0" cy="0" r="1" gradientUnits="userSpaceOnUse" gradientTransform="translate(55 17.0769) scale(20.2627 33.5058)">
<stop stop-color="#FEE4B1"/>
<stop offset="0.48" stop-color="#38B1BA"/>
<stop offset="0.59" stop-color="#379DBC"/>
<stop offset="0.72" stop-color="#358BBE"/>
<stop offset="0.81" stop-color="#3585BF"/>
</radialGradient>
<linearGradient id="paint2_linear_6_9569" x1="25.6692" y1="30.7801" x2="25.6692" y2="0.0902919" gradientUnits="userSpaceOnUse">
<stop stop-color="#21AEB8"/>
<stop offset="0.02" stop-color="#1FA7B2"/>
<stop offset="0.13" stop-color="#168497"/>
<stop offset="0.25" stop-color="#0E6780"/>
<stop offset="0.37" stop-color="#08506F"/>
<stop offset="0.51" stop-color="#034063"/>
<stop offset="0.66" stop-color="#01375B"/>
<stop offset="0.87" stop-color="#003459"/>
</linearGradient>
<radialGradient id="paint3_radial_6_9569" cx="0" cy="0" r="1" gradientUnits="userSpaceOnUse" gradientTransform="translate(23.6555 20.6291) scale(35.9471)">
<stop stop-color="#FEE4B1"/>
<stop offset="0.48" stop-color="#38B1BA"/>
<stop offset="0.59" stop-color="#379DBC"/>
<stop offset="0.72" stop-color="#358BBE"/>
<stop offset="0.81" stop-color="#3585BF"/>
</radialGradient>
<linearGradient id="paint4_linear_6_9569" x1="41.5162" y1="11.6289" x2="48.7676" y2="5.52315" gradientUnits="userSpaceOnUse">
<stop stop-color="#FEE4B1"/>
<stop offset="0.48" stop-color="#38B1BA"/>
<stop offset="0.59" stop-color="#379DBC"/>
<stop offset="0.72" stop-color="#358BBE"/>
<stop offset="0.81" stop-color="#3585BF"/>
</linearGradient>
<linearGradient id="paint5_linear_6_9569" x1="13.174" y1="14.2448" x2="49.294" y2="-16.1715" gradientUnits="userSpaceOnUse">
<stop stop-color="#FEE4B1"/>
<stop offset="0.48" stop-color="#38B1BA"/>
<stop offset="0.59" stop-color="#379DBC"/>
<stop offset="0.72" stop-color="#358BBE"/>
<stop offset="0.81" stop-color="#3585BF"/>
</linearGradient>
<linearGradient id="paint6_linear_6_9569" x1="-3.9344" y1="24.1615" x2="30.413" y2="-4.76242" gradientUnits="userSpaceOnUse">
<stop stop-color="#FEE4B1"/>
<stop offset="0.48" stop-color="#38B1BA"/>
<stop offset="0.59" stop-color="#379DBC"/>
<stop offset="0.72" stop-color="#358BBE"/>
<stop offset="0.81" stop-color="#3585BF"/>
</linearGradient>
</defs>
</svg>
