<svg width="70" height="70" viewBox="0 0 70 70" fill="none" xmlns="http://www.w3.org/2000/svg">
<path fill-rule="evenodd" clip-rule="evenodd" d="M18.2439 20.2739L10.6653 15.8989C8.57293 14.6914 5.8976 15.4078 4.689 17.5012C3.48149 19.5925 4.1979 22.2678 6.29026 23.4764L13.8689 27.8514C15.9613 29.0601 18.6366 28.3425 19.8452 26.2502C21.0538 24.1578 20.3363 21.4825 18.2439 20.2739ZM27.8515 13.8689L23.4765 6.29132C22.2679 4.19896 19.5925 3.48146 17.5002 4.68897C15.4078 5.89647 14.6914 8.57399 15.8989 10.6663L20.2739 18.2439C21.4814 20.3362 24.1579 21.0527 26.2502 19.8452C28.3426 18.6376 29.059 15.9612 27.8515 13.8689Z" fill="white"/>
<path fill-rule="evenodd" clip-rule="evenodd" d="M35.0003 52.5015C32.5842 52.5015 30.6253 54.4593 30.6253 56.8754V65.6254C30.6253 68.0426 32.5842 70.0016 35.0003 70.0016C37.4164 70.0016 39.3753 68.0426 39.3753 65.6254V56.8754C39.3753 54.4593 37.4164 52.5015 35.0003 52.5015ZM63.7103 46.5241L56.1317 42.149C54.0393 40.9415 51.364 41.6579 50.1554 43.7514C48.9479 45.8427 49.6643 48.5191 51.7567 49.7266L59.3342 54.1016C61.4277 55.3102 64.103 54.5927 65.3116 52.5015C66.5191 50.408 65.8027 47.7327 63.7103 46.5241ZM26.2503 50.1553C24.1579 48.9478 21.4826 49.6642 20.274 51.7577L15.899 59.3352C14.6915 61.4276 15.4079 64.1029 17.5002 65.3115C19.5926 66.5201 22.2679 65.8026 23.4765 63.7103L27.8515 56.1327C29.059 54.0393 28.3426 51.365 26.2503 50.1553ZM49.7267 51.7577C48.5192 49.6642 45.8427 48.9478 43.7504 50.1553C41.658 51.3639 40.9416 54.0393 42.1491 56.1327L46.523 63.7103C47.7316 65.8026 50.4081 66.519 52.5004 65.3115C54.5928 64.104 55.3092 61.4276 54.1017 59.3352L49.7267 51.7577Z" fill="white"/>
<path fill-rule="evenodd" clip-rule="evenodd" d="M13.1251 39.3763C15.5412 39.3763 17.5001 37.4174 17.5001 35.0001C17.5001 32.584 15.5412 30.6251 13.1251 30.6251H4.37503C1.95892 30.6251 0 32.584 0 35.0001C0 37.4174 1.95892 39.3763 4.37503 39.3763H13.1251ZM19.8451 43.7513C18.6376 41.6578 15.9612 40.9414 13.8688 42.1489L6.29019 46.524C4.19784 47.7315 3.48143 50.4079 4.68893 52.5013C5.89644 54.5926 8.57286 55.3101 10.6652 54.1015L18.2439 49.7265C20.3362 48.519 21.0526 45.8426 19.8451 43.7513Z" fill="white"/>
<path fill-rule="evenodd" clip-rule="evenodd" d="M65.6254 30.6253H56.8754C54.4592 30.6253 52.5003 32.5842 52.5003 35.0003C52.5003 37.4175 54.4592 39.3764 56.8754 39.3764H65.6254C68.0415 39.3764 70.0004 37.4175 70.0004 35.0003C70.0004 32.5842 68.0415 30.6253 65.6254 30.6253ZM56.1316 27.8515L63.7102 23.4765C65.8026 22.269 66.519 19.5925 65.3115 17.5013C64.104 15.4078 61.4276 14.6914 59.3341 15.8989L51.7566 20.2739C49.6642 21.4815 48.9478 24.1579 50.1553 26.2502C51.3628 28.3426 54.0392 29.0601 56.1316 27.8515Z" fill="white"/>
<path fill-rule="evenodd" clip-rule="evenodd" d="M35.0003 0C32.5842 0 30.6252 1.95892 30.6252 4.37612V13.1262C30.6252 15.5412 32.5842 17.5012 35.0003 17.5012C37.4164 17.5012 39.3753 15.5412 39.3753 13.1262V4.37612C39.3753 1.95892 37.4164 0 35.0003 0ZM52.5004 4.68893C50.408 3.48143 47.7327 4.19893 46.523 6.29129L42.1491 13.8688C40.9416 15.9612 41.658 18.6376 43.7503 19.8451C45.8427 21.0526 48.518 20.3362 49.7266 18.2439L54.1016 10.6663C55.3091 8.57396 54.5927 5.89754 52.5004 4.68893Z" fill="white"/>
</svg>
