<svg width="164" height="40" viewBox="0 0 164 40" fill="none" xmlns="http://www.w3.org/2000/svg">
<path d="M4.16769 32.805L160.51 32.8051C161.345 32.8019 162.144 32.4691 162.734 31.8791C163.324 31.289 163.657 30.4897 163.66 29.6553L163.66 3.48966C163.657 2.65524 163.324 1.85588 162.734 1.26585C162.144 0.675827 161.345 0.342975 160.51 0.339863L4.1677 0.339849C3.33329 0.342962 2.53394 0.675813 1.9439 1.26584C1.35387 1.85587 1.02101 2.65522 1.0179 3.48964L1.0179 29.6474C1.01894 30.4832 1.35088 31.2845 1.94113 31.8763C2.53139 32.468 3.33192 32.8019 4.16769 32.805Z" fill="url(#paint0_linear_10_12091)"/>
<path d="M4.16764 5.08769e-05L160.51 6.45448e-05C161.435 0.00110604 162.323 0.369102 162.977 1.02333C163.631 1.67755 163.999 2.56456 164 3.48977L164 29.6475C163.999 30.5727 163.631 31.4597 162.977 32.1139C162.323 32.7682 161.435 33.1362 160.51 33.1372L4.16763 33.1372C3.24243 33.1362 2.35541 32.7682 1.70119 32.1139C1.04697 31.4597 0.678986 30.5727 0.677948 29.6475L0.677951 3.48976C0.678988 2.56455 1.04697 1.67753 1.70119 1.02331C2.35541 0.369088 3.24243 0.00109221 4.16764 5.08769e-05ZM160.51 32.4666C161.257 32.4655 161.973 32.168 162.501 31.6394C163.028 31.1108 163.324 30.3944 163.324 29.6475L163.324 3.48977C163.323 2.74382 163.026 2.02872 162.499 1.50125C161.971 0.973785 161.256 0.676998 160.51 0.675956L4.16764 0.675943C3.42168 0.676984 2.70659 0.973771 2.17913 1.50124C1.65164 2.02871 1.35488 2.74381 1.35382 3.48976L1.35382 29.6475C1.35487 30.3934 1.65164 31.1085 2.17912 31.636C2.70659 32.1635 3.42168 32.4603 4.16763 32.4613L160.51 32.4666Z" fill="url(#paint1_linear_10_12091)"/>
<path d="M4.16769 39.5627L160.51 39.5627C161.345 39.5596 162.144 39.2268 162.734 38.6368C163.324 38.0467 163.657 37.2474 163.66 36.413L163.66 10.2473C163.657 9.41293 163.324 8.61357 162.734 8.02355C162.144 7.43352 161.345 7.10067 160.51 7.09755L4.1677 7.09754C3.33329 7.10065 2.53394 7.4335 1.9439 8.02353C1.35387 8.61356 1.02101 9.41292 1.0179 10.2473L1.0179 36.4103C1.02032 37.2452 1.35287 38.0452 1.94298 38.6358C2.53308 39.2264 3.33282 39.5596 4.16769 39.5627Z" fill="url(#paint2_linear_10_12091)"/>
<path d="M4.16764 6.75762L160.51 6.75763C161.435 6.75867 162.323 7.12667 162.977 7.7809C163.631 8.43512 163.999 9.32213 164 10.2473L164 36.4103C163.999 37.3355 163.631 38.2225 162.977 38.8768C162.323 39.531 161.435 39.899 160.51 39.9L4.16763 39.9C3.24243 39.899 2.35541 39.531 1.70119 38.8767C1.04697 38.2225 0.678986 37.3355 0.677948 36.4103L0.677951 10.2473C0.678988 9.32212 1.04697 8.4351 1.70119 7.78088C2.35541 7.12666 3.24243 6.75866 4.16764 6.75762ZM160.51 39.2281C161.256 39.227 161.971 38.9302 162.499 38.4028C163.026 37.8753 163.323 37.1602 163.324 36.4143L163.324 10.2473C163.323 9.50128 163.027 8.78598 162.499 8.25844C161.972 7.7309 161.256 7.43422 160.51 7.43352L4.16764 7.43351C3.42159 7.43421 2.70627 7.73089 2.17873 8.25843C1.65119 8.78597 1.35453 9.50127 1.35382 10.2473L1.35382 36.4103C1.35382 37.1569 1.65016 37.873 2.17773 38.4014C2.70532 38.9297 3.42101 39.227 4.16763 39.2281L160.51 39.2281Z" fill="url(#paint3_linear_10_12091)"/>
<mask id="path-5-outside-1_10_12091" maskUnits="userSpaceOnUse" x="70" y="13.9" width="26" height="16" fill="black">
<rect fill="white" x="70" y="13.9" width="26" height="16"/>
<path d="M77.2 14.9C78.7733 14.9 80.0667 15.5 81.08 16.7C82.1067 17.9 82.62 19.4267 82.62 21.28C82.62 23.6267 82.0133 25.52 80.8 26.96C79.5867 28.4 77.9933 29.12 76.02 29.12C74.4867 29.12 73.2 28.5067 72.16 27.28C71.12 26.04 70.6 24.5134 70.6 22.7C70.6 20.4334 71.22 18.5667 72.46 17.1C73.7 15.6334 75.28 14.9 77.2 14.9ZM79.9 22.4C79.9 19.0267 78.7933 17.34 76.58 17.34C75.5667 17.34 74.7667 17.72 74.18 18.48C73.6067 19.2267 73.32 20.3534 73.32 21.86C73.32 23.3534 73.6267 24.5867 74.24 25.56C74.8667 26.52 75.6867 27 76.7 27C77.7267 27 78.5133 26.5934 79.06 25.78C79.62 24.9534 79.9 23.8267 79.9 22.4ZM87.6627 15L87.4427 21.52L92.5427 15.04L94.5827 16.4L89.9827 21.74L94.8627 27.52L92.3027 29.12L87.4227 22.22L87.3827 23.7L87.6227 28.9H84.8227L85.0627 24.04L84.8227 15.5L87.6627 15Z"/>
</mask>
<path d="M77.2 14.9C78.7733 14.9 80.0667 15.5 81.08 16.7C82.1067 17.9 82.62 19.4267 82.62 21.28C82.62 23.6267 82.0133 25.52 80.8 26.96C79.5867 28.4 77.9933 29.12 76.02 29.12C74.4867 29.12 73.2 28.5067 72.16 27.28C71.12 26.04 70.6 24.5134 70.6 22.7C70.6 20.4334 71.22 18.5667 72.46 17.1C73.7 15.6334 75.28 14.9 77.2 14.9ZM79.9 22.4C79.9 19.0267 78.7933 17.34 76.58 17.34C75.5667 17.34 74.7667 17.72 74.18 18.48C73.6067 19.2267 73.32 20.3534 73.32 21.86C73.32 23.3534 73.6267 24.5867 74.24 25.56C74.8667 26.52 75.6867 27 76.7 27C77.7267 27 78.5133 26.5934 79.06 25.78C79.62 24.9534 79.9 23.8267 79.9 22.4ZM87.6627 15L87.4427 21.52L92.5427 15.04L94.5827 16.4L89.9827 21.74L94.8627 27.52L92.3027 29.12L87.4227 22.22L87.3827 23.7L87.6227 28.9H84.8227L85.0627 24.04L84.8227 15.5L87.6627 15Z" fill="#FF172D"/>
<path d="M81.08 16.7L80.698 17.0226L80.7001 17.0251L81.08 16.7ZM80.8 26.96L80.4176 26.6378L80.8 26.96ZM72.16 27.28L71.7769 27.6013L71.7786 27.6034L72.16 27.28ZM74.18 18.48L73.7842 18.1745L73.7834 18.1755L74.18 18.48ZM74.24 25.56L73.8169 25.8266L73.8213 25.8333L74.24 25.56ZM79.06 25.78L78.646 25.4996L78.645 25.5011L79.06 25.78ZM77.2 15.4C78.6264 15.4 79.7798 15.9353 80.698 17.0226L81.462 16.3774C80.3535 15.0647 78.9203 14.4 77.2 14.4V15.4ZM80.7001 17.0251C81.6362 18.1192 82.12 19.5241 82.12 21.28H83.12C83.12 19.3293 82.5772 17.6808 81.4599 16.375L80.7001 17.0251ZM82.12 21.28C82.12 23.5387 81.5377 25.3085 80.4176 26.6378L81.1824 27.2822C82.489 25.7315 83.12 23.7147 83.12 21.28H82.12ZM80.4176 26.6378C79.3044 27.959 77.854 28.62 76.02 28.62V29.62C78.1327 29.62 79.8689 28.841 81.1824 27.2822L80.4176 26.6378ZM76.02 28.62C74.6416 28.62 73.4917 28.0776 72.5414 26.9567L71.7786 27.6034C72.9083 28.9358 74.3317 29.62 76.02 29.62V28.62ZM72.5431 26.9587C71.5878 25.8197 71.1 24.4109 71.1 22.7H70.1C70.1 24.6158 70.6522 26.2604 71.7769 27.6013L72.5431 26.9587ZM71.1 22.7C71.1 20.5292 71.6914 18.7835 72.8418 17.4228L72.0782 16.7772C70.7486 18.3498 70.1 20.3375 70.1 22.7H71.1ZM72.8418 17.4228C73.9869 16.0685 75.4272 15.4 77.2 15.4V14.4C75.1328 14.4 73.4131 15.1982 72.0782 16.7772L72.8418 17.4228ZM80.4 22.4C80.4 20.6746 80.1199 19.2937 79.488 18.3307C78.8321 17.3311 77.8358 16.84 76.58 16.84V17.84C77.5376 17.84 78.2012 18.1923 78.652 18.8793C79.1268 19.603 79.4 20.7521 79.4 22.4H80.4ZM76.58 16.84C75.4217 16.84 74.4715 17.2842 73.7842 18.1745L74.5758 18.7856C75.0619 18.1559 75.7116 17.84 76.58 17.84V16.84ZM73.7834 18.1755C73.1134 19.0482 72.82 20.3046 72.82 21.86H73.82C73.82 20.4021 74.1 19.4052 74.5766 18.7845L73.7834 18.1755ZM72.82 21.86C72.82 23.42 73.1404 24.7529 73.817 25.8266L74.663 25.2935C74.1129 24.4205 73.82 23.2867 73.82 21.86H72.82ZM73.8213 25.8333C74.5261 26.9129 75.4933 27.5 76.7 27.5V26.5C75.8801 26.5 75.2073 26.1271 74.6587 25.2867L73.8213 25.8333ZM76.7 27.5C77.8837 27.5 78.8303 27.0182 79.475 26.0589L78.645 25.5011C78.1964 26.1686 77.5696 26.5 76.7 26.5V27.5ZM79.474 26.0604C80.1093 25.1225 80.4 23.8856 80.4 22.4H79.4C79.4 23.7678 79.1307 24.7842 78.646 25.4996L79.474 26.0604ZM87.6627 15L88.1624 15.0169C88.1675 14.8662 88.1043 14.7214 87.9905 14.6225C87.8767 14.5237 87.7244 14.4815 87.576 14.5076L87.6627 15ZM87.4427 21.52L86.9429 21.5032C86.9356 21.7192 87.068 21.9155 87.2711 21.9897C87.4741 22.0638 87.7019 21.9991 87.8356 21.8293L87.4427 21.52ZM92.5427 15.04L92.82 14.624C92.6029 14.4793 92.3111 14.5258 92.1497 14.7308L92.5427 15.04ZM94.5827 16.4L94.9615 16.7264C95.055 16.6178 95.0975 16.4743 95.0781 16.3323C95.0586 16.1903 94.9792 16.0635 94.86 15.984L94.5827 16.4ZM89.9827 21.74L89.6038 21.4137C89.4435 21.5998 89.4421 21.8749 89.6006 22.0626L89.9827 21.74ZM94.8627 27.52L95.1277 27.944C95.2506 27.8672 95.3342 27.7407 95.3566 27.5975C95.3791 27.4542 95.3382 27.3083 95.2447 27.1975L94.8627 27.52ZM92.3027 29.12L91.8944 29.4087C92.0475 29.6252 92.3429 29.6845 92.5677 29.544L92.3027 29.12ZM87.4227 22.22L87.8309 21.9313C87.7066 21.7555 87.4837 21.6791 87.2776 21.7415C87.0716 21.804 86.9287 21.9913 86.9228 22.2065L87.4227 22.22ZM87.3827 23.7L86.8828 23.6865C86.8825 23.6987 86.8826 23.7109 86.8832 23.7231L87.3827 23.7ZM87.6227 28.9V29.4C87.7593 29.4 87.8899 29.3441 87.9843 29.2453C88.0786 29.1465 88.1284 29.0134 88.1221 28.877L87.6227 28.9ZM84.8227 28.9L84.3233 28.8754C84.3165 29.0121 84.3661 29.1456 84.4605 29.2447C84.5549 29.3439 84.6858 29.4 84.8227 29.4V28.9ZM85.0627 24.04L85.562 24.0647C85.5627 24.0518 85.5628 24.0389 85.5625 24.026L85.0627 24.04ZM84.8227 15.5L84.736 15.0076C84.4917 15.0506 84.3159 15.2662 84.3229 15.5141L84.8227 15.5ZM87.1629 14.9832L86.9429 21.5032L87.9424 21.5369L88.1624 15.0169L87.1629 14.9832ZM87.8356 21.8293L92.9356 15.3493L92.1497 14.7308L87.0497 21.2108L87.8356 21.8293ZM92.2653 15.456L94.3053 16.816L94.86 15.984L92.82 14.624L92.2653 15.456ZM94.2038 16.0737L89.6038 21.4137L90.3615 22.0664L94.9615 16.7264L94.2038 16.0737ZM89.6006 22.0626L94.4806 27.8426L95.2447 27.1975L90.3647 21.4175L89.6006 22.0626ZM94.5977 27.096L92.0377 28.696L92.5677 29.544L95.1277 27.944L94.5977 27.096ZM92.7109 28.8313L87.8309 21.9313L87.0144 22.5087L91.8944 29.4087L92.7109 28.8313ZM86.9228 22.2065L86.8828 23.6865L87.8825 23.7135L87.9225 22.2335L86.9228 22.2065ZM86.8832 23.7231L87.1232 28.9231L88.1221 28.877L87.8821 23.677L86.8832 23.7231ZM87.6227 28.4H84.8227V29.4H87.6227V28.4ZM85.322 28.9247L85.562 24.0647L84.5633 24.0154L84.3233 28.8754L85.322 28.9247ZM85.5625 24.026L85.3225 15.486L84.3229 15.5141L84.5629 24.0541L85.5625 24.026ZM84.9094 15.9925L87.7494 15.4924L87.576 14.5076L84.736 15.0076L84.9094 15.9925Z" fill="white" mask="url(#path-5-outside-1_10_12091)"/>
<defs>
<linearGradient id="paint0_linear_10_12091" x1="162.573" y1="16.5718" x2="-0.0740182" y2="16.5718" gradientUnits="userSpaceOnUse">
<stop stop-color="#117EC1"/>
<stop offset="0.01" stop-color="#218ECF"/>
<stop offset="0.02" stop-color="#339EDE"/>
<stop offset="0.3" stop-color="#7AD2FF"/>
<stop offset="0.33" stop-color="#6FCCFD"/>
<stop offset="0.41" stop-color="#58BFFA"/>
<stop offset="0.49" stop-color="#4AB7F8"/>
<stop offset="0.56" stop-color="#45B4F7"/>
<stop offset="0.81" stop-color="#73CEFF"/>
<stop offset="0.96" stop-color="#5BC3FF"/>
<stop offset="1" stop-color="#2B96D7"/>
</linearGradient>
<linearGradient id="paint1_linear_10_12091" x1="164" y1="16.5719" x2="0.677949" y2="16.5719" gradientUnits="userSpaceOnUse">
<stop stop-color="#0054A1"/>
<stop offset="0.06" stop-color="#0561AB"/>
<stop offset="0.15" stop-color="#0969B2"/>
<stop offset="0.28" stop-color="#0A6CB4"/>
<stop offset="0.42" stop-color="#45B4F7"/>
<stop offset="0.59" stop-color="#117EC1"/>
<stop offset="0.7" stop-color="#3EA8E7"/>
<stop offset="0.77" stop-color="#5BC3FF"/>
<stop offset="0.92" stop-color="#0867B0"/>
<stop offset="1" stop-color="#0054A1"/>
</linearGradient>
<linearGradient id="paint2_linear_10_12091" x1="82.339" y1="7.05949" x2="82.339" y2="39.7767" gradientUnits="userSpaceOnUse">
<stop stop-color="#117EC1"/>
<stop offset="0.02" stop-color="#319FE3"/>
<stop offset="0.04" stop-color="#44B4F8"/>
<stop offset="0.05" stop-color="#4BBBFF"/>
<stop offset="0.96" stop-color="#B4EFFF"/>
<stop offset="1" stop-color="#D3FEFF"/>
</linearGradient>
<linearGradient id="paint3_linear_10_12091" x1="82.339" y1="40.0628" x2="82.339" y2="6.81012" gradientUnits="userSpaceOnUse">
<stop stop-color="#73CEFF"/>
<stop offset="0.26" stop-color="#95DFFF"/>
<stop offset="0.57" stop-color="#B7F0FF"/>
<stop offset="0.83" stop-color="#CCFAFF"/>
<stop offset="1" stop-color="#D3FEFF"/>
</linearGradient>
</defs>
</svg>
