<svg width="164" height="40" viewBox="0 0 164 40" fill="none" xmlns="http://www.w3.org/2000/svg">
<path d="M3.48972 32.805L159.832 32.8051C160.667 32.8019 161.466 32.4691 162.056 31.8791C162.646 31.289 162.979 30.4897 162.982 29.6553L162.982 3.48966C162.979 2.65524 162.646 1.85588 162.056 1.26585C161.466 0.675827 160.667 0.342975 159.832 0.339863L3.48972 0.339849C2.65531 0.342962 1.85596 0.675813 1.26592 1.26584C0.675891 1.85587 0.343035 2.65522 0.339923 3.48964L0.33992 29.6474C0.340958 30.4832 0.672897 31.2845 1.26315 31.8763C1.85341 32.468 2.65395 32.8019 3.48972 32.805Z" fill="url(#paint0_linear_10_11805)"/>
<path d="M3.48966 5.08769e-05L159.832 6.45448e-05C160.758 0.00110604 161.645 0.369102 162.299 1.02333C162.953 1.67755 163.321 2.56456 163.322 3.48977L163.322 29.6475C163.321 30.5727 162.953 31.4597 162.299 32.1139C161.645 32.7682 160.758 33.1362 159.832 33.1372L3.48965 33.1372C2.56445 33.1362 1.67743 32.7682 1.02321 32.1139C0.368988 31.4597 0.0010073 30.5727 -3.02125e-05 29.6475L-2.79257e-05 3.48976C0.00100975 2.56455 0.368991 1.67753 1.02321 1.02331C1.67743 0.369088 2.56446 0.00109221 3.48966 5.08769e-05ZM159.832 32.4666C160.579 32.4655 161.295 32.168 161.823 31.6394C162.35 31.1108 162.646 30.3944 162.646 29.6475L162.646 3.48977C162.645 2.74382 162.348 2.02872 161.821 1.50125C161.293 0.973785 160.578 0.676998 159.832 0.675956L3.48966 0.675943C2.7437 0.676984 2.02861 0.973771 1.50115 1.50124C0.973666 2.02871 0.676898 2.74381 0.675845 3.48976L0.675843 29.6475C0.676895 30.3934 0.973664 31.1085 1.50114 31.636C2.02861 32.1635 2.7437 32.4603 3.48965 32.4613L159.832 32.4666Z" fill="url(#paint1_linear_10_11805)"/>
<path d="M3.48972 39.5627L159.832 39.5627C160.667 39.5596 161.466 39.2268 162.056 38.6368C162.646 38.0467 162.979 37.2474 162.982 36.413L162.982 10.2473C162.979 9.41293 162.646 8.61357 162.056 8.02355C161.466 7.43352 160.667 7.10067 159.832 7.09755L3.48972 7.09754C2.65531 7.10065 1.85596 7.4335 1.26592 8.02353C0.675891 8.61356 0.343035 9.41292 0.339923 10.2473L0.33992 36.4103C0.342346 37.2452 0.674896 38.0452 1.265 38.6358C1.8551 39.2264 2.65485 39.5596 3.48972 39.5627Z" fill="url(#paint2_linear_10_11805)"/>
<path d="M3.48966 6.75762L159.832 6.75763C160.758 6.75867 161.645 7.12667 162.299 7.7809C162.953 8.43512 163.321 9.32213 163.322 10.2473L163.322 36.4103C163.321 37.3355 162.953 38.2225 162.299 38.8768C161.645 39.531 160.758 39.899 159.832 39.9L3.48965 39.9C2.56445 39.899 1.67743 39.531 1.02321 38.8767C0.368988 38.2225 0.0010073 37.3355 -3.02125e-05 36.4103L-2.79253e-05 10.2473C0.00100975 9.32212 0.368991 8.4351 1.02321 7.78088C1.67743 7.12666 2.56446 6.75866 3.48966 6.75762ZM159.832 39.2281C160.578 39.227 161.293 38.9302 161.821 38.4028C162.348 37.8753 162.645 37.1602 162.646 36.4143L162.646 10.2473C162.645 9.50128 162.349 8.78598 161.821 8.25844C161.294 7.7309 160.578 7.43422 159.832 7.43352L3.48966 7.43351C2.74361 7.43421 2.02829 7.73089 1.50075 8.25843C0.973208 8.78597 0.676547 9.50127 0.675845 10.2473L0.675843 36.4103C0.675843 37.1569 0.972183 37.873 1.49976 38.4014C2.02734 38.9297 2.74303 39.227 3.48965 39.2281L159.832 39.2281Z" fill="url(#paint3_linear_10_11805)"/>
<mask id="path-5-outside-1_10_11805" maskUnits="userSpaceOnUse" x="67.322" y="13.9" width="29" height="16" fill="black">
<rect fill="white" x="67.322" y="13.9" width="29" height="16"/>
<path d="M73.742 29.12C71.9954 29.12 70.5887 28.5334 69.522 27.36C68.4554 26.1867 67.922 24.6334 67.922 22.7C67.922 20.5 68.5887 18.6467 69.922 17.14C71.2554 15.6334 72.8954 14.88 74.842 14.88C75.6154 14.88 76.3287 14.9534 76.982 15.1C77.6487 15.2334 78.122 15.3734 78.402 15.52L78.802 15.74L77.642 18.52C77.242 18.2534 76.702 18.0067 76.022 17.78C75.342 17.54 74.742 17.42 74.222 17.42C73.142 17.42 72.2754 17.8 71.622 18.56C70.9687 19.32 70.642 20.3267 70.642 21.58C70.642 23.2734 70.9487 24.5934 71.562 25.54C72.1887 26.4867 73.0554 26.96 74.162 26.96C74.882 26.96 75.562 26.86 76.202 26.66V23.56H73.622L73.822 21.54H78.622L78.442 24.8L78.582 28.26C76.622 28.8334 75.0087 29.12 73.742 29.12ZM84.7969 26.86C85.1835 26.86 85.5902 26.76 86.0169 26.56C86.4435 26.36 86.7769 26.16 87.0169 25.96L87.3769 25.66L88.2969 26.78C88.1635 27.0067 87.9569 27.2667 87.6769 27.56C87.3969 27.8534 87.1102 28.1067 86.8169 28.32C86.5369 28.52 86.1569 28.7067 85.6769 28.88C85.2102 29.04 84.7235 29.12 84.2169 29.12C83.1369 29.12 82.2569 28.7134 81.5769 27.9C80.8969 27.0734 80.5569 26.0134 80.5569 24.72C80.5569 23.0934 81.0302 21.6667 81.9769 20.44C82.9235 19.2134 84.0302 18.6 85.2969 18.6C86.2702 18.6 87.0235 18.8734 87.5569 19.42C88.1035 19.9667 88.3769 20.7334 88.3769 21.72C88.3769 22.3067 88.2769 22.9734 88.0769 23.72L87.6769 24.14L82.6769 24.6C82.9035 26.1067 83.6102 26.86 84.7969 26.86ZM84.7969 20.66C84.2102 20.66 83.7169 20.9 83.3169 21.38C82.9169 21.8467 82.6835 22.4467 82.6169 23.18L86.0169 22.76C86.0569 22.4534 86.0769 22.2 86.0769 22C86.0769 21.1067 85.6502 20.66 84.7969 20.66ZM90.9026 19.22V17.04L93.6026 16.52L93.3426 19.22H95.7626L95.5426 20.86H93.2626L93.1626 25.04C93.1626 25.6667 93.2226 26.0867 93.3426 26.3C93.4626 26.5 93.6826 26.6 94.0026 26.6C94.3226 26.6 94.7493 26.5267 95.2826 26.38L95.4026 27.8C94.5226 28.5334 93.7493 28.9 93.0826 28.9C92.416 28.9 91.8693 28.66 91.4426 28.18C91.016 27.6867 90.8026 27.0467 90.8026 26.26L90.9226 24.02L90.9026 20.86H89.5226L89.7426 19.22H90.9026Z"/>
</mask>
<path d="M73.742 29.12C71.9954 29.12 70.5887 28.5334 69.522 27.36C68.4554 26.1867 67.922 24.6334 67.922 22.7C67.922 20.5 68.5887 18.6467 69.922 17.14C71.2554 15.6334 72.8954 14.88 74.842 14.88C75.6154 14.88 76.3287 14.9534 76.982 15.1C77.6487 15.2334 78.122 15.3734 78.402 15.52L78.802 15.74L77.642 18.52C77.242 18.2534 76.702 18.0067 76.022 17.78C75.342 17.54 74.742 17.42 74.222 17.42C73.142 17.42 72.2754 17.8 71.622 18.56C70.9687 19.32 70.642 20.3267 70.642 21.58C70.642 23.2734 70.9487 24.5934 71.562 25.54C72.1887 26.4867 73.0554 26.96 74.162 26.96C74.882 26.96 75.562 26.86 76.202 26.66V23.56H73.622L73.822 21.54H78.622L78.442 24.8L78.582 28.26C76.622 28.8334 75.0087 29.12 73.742 29.12ZM84.7969 26.86C85.1835 26.86 85.5902 26.76 86.0169 26.56C86.4435 26.36 86.7769 26.16 87.0169 25.96L87.3769 25.66L88.2969 26.78C88.1635 27.0067 87.9569 27.2667 87.6769 27.56C87.3969 27.8534 87.1102 28.1067 86.8169 28.32C86.5369 28.52 86.1569 28.7067 85.6769 28.88C85.2102 29.04 84.7235 29.12 84.2169 29.12C83.1369 29.12 82.2569 28.7134 81.5769 27.9C80.8969 27.0734 80.5569 26.0134 80.5569 24.72C80.5569 23.0934 81.0302 21.6667 81.9769 20.44C82.9235 19.2134 84.0302 18.6 85.2969 18.6C86.2702 18.6 87.0235 18.8734 87.5569 19.42C88.1035 19.9667 88.3769 20.7334 88.3769 21.72C88.3769 22.3067 88.2769 22.9734 88.0769 23.72L87.6769 24.14L82.6769 24.6C82.9035 26.1067 83.6102 26.86 84.7969 26.86ZM84.7969 20.66C84.2102 20.66 83.7169 20.9 83.3169 21.38C82.9169 21.8467 82.6835 22.4467 82.6169 23.18L86.0169 22.76C86.0569 22.4534 86.0769 22.2 86.0769 22C86.0769 21.1067 85.6502 20.66 84.7969 20.66ZM90.9026 19.22V17.04L93.6026 16.52L93.3426 19.22H95.7626L95.5426 20.86H93.2626L93.1626 25.04C93.1626 25.6667 93.2226 26.0867 93.3426 26.3C93.4626 26.5 93.6826 26.6 94.0026 26.6C94.3226 26.6 94.7493 26.5267 95.2826 26.38L95.4026 27.8C94.5226 28.5334 93.7493 28.9 93.0826 28.9C92.416 28.9 91.8693 28.66 91.4426 28.18C91.016 27.6867 90.8026 27.0467 90.8026 26.26L90.9226 24.02L90.9026 20.86H89.5226L89.7426 19.22H90.9026Z" fill="#FF172D"/>
<path d="M69.522 27.36L69.892 27.0237L69.522 27.36ZM69.922 17.14L70.2965 17.4714L70.2965 17.4714L69.922 17.14ZM76.982 15.1L76.8725 15.588L76.884 15.5903L76.982 15.1ZM78.402 15.52L78.643 15.0818L78.634 15.0771L78.402 15.52ZM78.802 15.74L79.2635 15.9326C79.3618 15.6969 79.2667 15.425 79.043 15.3019L78.802 15.74ZM77.642 18.52L77.3647 18.936C77.489 19.0189 77.6438 19.0419 77.7868 18.9986C77.9298 18.9554 78.0459 18.8504 78.1035 18.7126L77.642 18.52ZM76.022 17.78L75.8556 18.2516L75.8639 18.2544L76.022 17.78ZM71.622 18.56L71.2429 18.2341L71.622 18.56ZM71.562 25.54L71.1424 25.8119L71.1451 25.816L71.562 25.54ZM76.202 26.66L76.3512 27.1373C76.5599 27.072 76.702 26.8787 76.702 26.66H76.202ZM76.202 23.56H76.702C76.702 23.2839 76.4782 23.06 76.202 23.06V23.56ZM73.622 23.56L73.1245 23.5108C73.1105 23.6513 73.1567 23.7911 73.2515 23.8957C73.3462 24.0003 73.4808 24.06 73.622 24.06V23.56ZM73.822 21.54V21.04C73.565 21.04 73.3498 21.2349 73.3245 21.4908L73.822 21.54ZM78.622 21.54L79.1213 21.5676C79.1288 21.4304 79.0796 21.2961 78.9852 21.1964C78.8908 21.0966 78.7594 21.04 78.622 21.04V21.54ZM78.442 24.8L77.9428 24.7725C77.9419 24.7884 77.9418 24.8043 77.9424 24.8202L78.442 24.8ZM78.582 28.26L78.7224 28.7399C78.9428 28.6755 79.0909 28.4692 79.0816 28.2398L78.582 28.26ZM73.742 28.62C72.1203 28.62 70.8537 28.0815 69.892 27.0237L69.1521 27.6964C70.3237 28.9852 71.8704 29.62 73.742 29.62V28.62ZM69.892 27.0237C68.9264 25.9616 68.422 24.5376 68.422 22.7H67.422C67.422 24.7291 67.9843 26.4118 69.1521 27.6964L69.892 27.0237ZM68.422 22.7C68.422 20.6098 69.0518 18.8778 70.2965 17.4714L69.5476 16.8087C68.1255 18.4156 67.422 20.3903 67.422 22.7H68.422ZM70.2965 17.4714C71.5385 16.0679 73.0439 15.38 74.842 15.38V14.38C72.7468 14.38 70.9722 15.1989 69.5476 16.8087L70.2965 17.4714ZM74.842 15.38C75.5841 15.38 76.2601 15.4504 76.8725 15.5879L77.0915 14.6122C76.3972 14.4563 75.6467 14.38 74.842 14.38V15.38ZM76.884 15.5903C77.5448 15.7225 77.9577 15.8517 78.17 15.9629L78.634 15.0771C78.2863 14.895 77.7525 14.7442 77.0801 14.6097L76.884 15.5903ZM78.1611 15.9581L78.5611 16.1781L79.043 15.3019L78.643 15.0819L78.1611 15.9581ZM78.3406 15.5475L77.1806 18.3275L78.1035 18.7126L79.2635 15.9326L78.3406 15.5475ZM77.9194 18.104C77.4691 17.8038 76.8838 17.5402 76.1801 17.3057L75.8639 18.2544C76.5202 18.4731 77.015 18.7029 77.3647 18.936L77.9194 18.104ZM76.1884 17.3085C75.4741 17.0564 74.816 16.92 74.222 16.92V17.92C74.6681 17.92 75.2099 18.0236 75.8556 18.2515L76.1884 17.3085ZM74.222 16.92C73.0091 16.92 71.9992 17.3542 71.2429 18.2341L72.0012 18.886C72.5515 18.2458 73.2749 17.92 74.222 17.92V16.92ZM71.2429 18.2341C70.4935 19.1058 70.142 20.238 70.142 21.58H71.142C71.142 20.4153 71.4439 19.5343 72.0012 18.886L71.2429 18.2341ZM70.142 21.58C70.142 23.3246 70.4565 24.7532 71.1424 25.8119L71.9816 25.2682C71.4409 24.4335 71.142 23.2221 71.142 21.58H70.142ZM71.1451 25.816C71.8615 26.8982 72.8824 27.46 74.162 27.46V26.46C73.2283 26.46 72.5159 26.0752 71.9789 25.264L71.1451 25.816ZM74.162 27.46C74.9289 27.46 75.6595 27.3534 76.3512 27.1373L76.0529 26.1828C75.4646 26.3666 74.8352 26.46 74.162 26.46V27.46ZM76.702 26.66V23.56H75.702V26.66H76.702ZM76.202 23.06H73.622V24.06H76.202V23.06ZM74.1196 23.6093L74.3196 21.5893L73.3245 21.4908L73.1245 23.5108L74.1196 23.6093ZM73.822 22.04H78.622V21.04H73.822V22.04ZM78.1228 21.5125L77.9428 24.7725L78.9413 24.8276L79.1213 21.5676L78.1228 21.5125ZM77.9424 24.8202L78.0824 28.2802L79.0816 28.2398L78.9416 24.7798L77.9424 24.8202ZM78.4416 27.7801C76.503 28.3472 74.9412 28.62 73.742 28.62V29.62C75.0761 29.62 76.741 29.3195 78.7224 28.7399L78.4416 27.7801ZM86.0169 26.56L85.8046 26.1073L86.0169 26.56ZM87.0169 25.96L86.6968 25.5759V25.5759L87.0169 25.96ZM87.3769 25.66L87.7632 25.3427C87.6787 25.2397 87.5565 25.1748 87.4239 25.1622C87.2913 25.1497 87.1591 25.1906 87.0568 25.2759L87.3769 25.66ZM88.2969 26.78L88.7278 27.0335C88.8342 26.8527 88.8164 26.6248 88.6832 26.4627L88.2969 26.78ZM87.6769 27.56L87.3152 27.2148L87.6769 27.56ZM86.8169 28.32L87.1075 28.7269L87.111 28.7244L86.8169 28.32ZM85.6769 28.88L85.839 29.3531L85.8467 29.3503L85.6769 28.88ZM81.5769 27.9L81.1907 28.2177L81.1933 28.2207L81.5769 27.9ZM81.9769 20.44L82.3727 20.7455L81.9769 20.44ZM87.5569 19.42L87.1989 19.7692L87.2033 19.7736L87.5569 19.42ZM88.0769 23.72L88.4389 24.0649C88.4966 24.0043 88.5382 23.9302 88.5598 23.8494L88.0769 23.72ZM87.6769 24.14L87.7227 24.6379C87.8431 24.6268 87.9555 24.5725 88.0389 24.4849L87.6769 24.14ZM82.6769 24.6L82.6311 24.1021C82.494 24.1147 82.3683 24.1833 82.2834 24.2915C82.1985 24.3998 82.162 24.5383 82.1824 24.6744L82.6769 24.6ZM83.3169 21.38L83.6965 21.7055L83.701 21.7001L83.3169 21.38ZM82.6169 23.18L82.1189 23.1348C82.1052 23.2853 82.1604 23.434 82.2691 23.5392C82.3777 23.6444 82.5281 23.6948 82.6782 23.6763L82.6169 23.18ZM86.0169 22.76L86.0782 23.2563C86.3045 23.2283 86.4832 23.0508 86.5127 22.8247L86.0169 22.76ZM84.7969 27.36C85.2711 27.36 85.7502 27.2372 86.2291 27.0128L85.8046 26.1073C85.4302 26.2828 85.0959 26.36 84.7969 26.36V27.36ZM86.2291 27.0128C86.677 26.8028 87.052 26.5816 87.337 26.3441L86.6968 25.5759C86.5018 25.7384 86.2101 25.9173 85.8046 26.1073L86.2291 27.0128ZM87.337 26.3441L87.697 26.0441L87.0568 25.2759L86.6968 25.5759L87.337 26.3441ZM86.9905 25.9774L87.9105 27.0974L88.6832 26.4627L87.7632 25.3427L86.9905 25.9774ZM87.8659 26.5265C87.7596 26.7073 87.5813 26.936 87.3152 27.2148L88.0385 27.9053C88.3324 27.5974 88.5675 27.3061 88.7278 27.0335L87.8659 26.5265ZM87.3152 27.2148C87.0535 27.4889 86.7892 27.7219 86.5228 27.9157L87.111 28.7244C87.4312 28.4915 87.7402 28.2178 88.0385 27.9053L87.3152 27.2148ZM86.5262 27.9132C86.2967 28.0771 85.9627 28.2452 85.507 28.4097L85.8467 29.3503C86.3511 29.1682 86.7771 28.9629 87.1075 28.7269L86.5262 27.9132ZM85.5147 28.4071C85.1016 28.5487 84.6699 28.62 84.2169 28.62V29.62C84.7772 29.62 85.3188 29.5314 85.839 29.353L85.5147 28.4071ZM84.2169 28.62C83.2818 28.62 82.5434 28.2766 81.9605 27.5793L81.1933 28.2207C81.9703 29.1501 82.992 29.62 84.2169 29.62V28.62ZM81.963 27.5824C81.3711 26.8628 81.0569 25.9225 81.0569 24.72H80.0569C80.0569 26.1042 80.4226 27.2839 81.1907 28.2177L81.963 27.5824ZM81.0569 24.72C81.0569 23.198 81.4971 21.8801 82.3727 20.7455L81.581 20.1345C80.5633 21.4533 80.0569 22.9887 80.0569 24.72H81.0569ZM82.3727 20.7455C83.2482 19.6111 84.2199 19.1 85.2969 19.1V18.1C83.8405 18.1 82.5989 18.8156 81.581 20.1345L82.3727 20.7455ZM85.2969 19.1C86.1744 19.1 86.7839 19.3437 87.199 19.7692L87.9148 19.0709C87.2632 18.403 86.366 18.1 85.2969 18.1V19.1ZM87.2033 19.7736C87.6321 20.2024 87.8769 20.8275 87.8769 21.72H88.8769C88.8769 20.6392 88.5749 19.731 87.9104 19.0665L87.2033 19.7736ZM87.8769 21.72C87.8769 22.2517 87.7859 22.8737 87.5939 23.5907L88.5598 23.8494C88.7678 23.073 88.8769 22.3617 88.8769 21.72H87.8769ZM87.7148 23.3752L87.3148 23.7952L88.0389 24.4849L88.4389 24.0649L87.7148 23.3752ZM87.6311 23.6421L82.6311 24.1021L82.7227 25.0979L87.7227 24.6379L87.6311 23.6421ZM82.1824 24.6744C82.3041 25.4829 82.5637 26.1589 83.0122 26.6371C83.4744 27.1299 84.0879 27.36 84.7969 27.36V26.36C84.3191 26.36 83.986 26.2135 83.7415 25.9529C83.4834 25.6778 83.2763 25.2238 83.1713 24.5256L82.1824 24.6744ZM84.7969 20.16C84.0511 20.16 83.4207 20.4744 82.9328 21.0599L83.701 21.7001C84.013 21.3256 84.3693 21.16 84.7969 21.16V20.16ZM82.9372 21.0546C82.4572 21.6147 82.1931 22.319 82.1189 23.1348L83.1148 23.2253C83.174 22.5744 83.3766 22.0787 83.6965 21.7054L82.9372 21.0546ZM82.6782 23.6763L86.0782 23.2563L85.9556 22.2638L82.5556 22.6838L82.6782 23.6763ZM86.5127 22.8247C86.5541 22.5068 86.5769 22.23 86.5769 22H85.5769C85.5769 22.1701 85.5596 22.3999 85.5211 22.6954L86.5127 22.8247ZM86.5769 22C86.5769 21.4819 86.4535 21.0004 86.1184 20.6497C85.7793 20.2946 85.3066 20.16 84.7969 20.16V21.16C85.1405 21.16 85.3078 21.2488 85.3953 21.3404C85.4869 21.4363 85.5769 21.6249 85.5769 22H86.5769ZM90.9026 19.22V19.72C91.1788 19.72 91.4026 19.4962 91.4026 19.22H90.9026ZM90.9026 17.04L90.8081 16.549C90.5727 16.5944 90.4026 16.8003 90.4026 17.04H90.9026ZM93.6026 16.52L94.1003 16.568C94.1154 16.4111 94.0557 16.2563 93.9391 16.1502C93.8226 16.0441 93.6628 15.9992 93.5081 16.029L93.6026 16.52ZM93.3426 19.22L92.8449 19.1721C92.8314 19.3124 92.8778 19.4519 92.9725 19.5562C93.0673 19.6605 93.2017 19.72 93.3426 19.72V19.22ZM95.7626 19.22L96.2582 19.2865C96.2774 19.1436 96.2339 18.9993 96.139 18.8908C96.044 18.7823 95.9068 18.72 95.7626 18.72V19.22ZM95.5426 20.86V21.36C95.7931 21.36 96.0049 21.1747 96.0382 20.9265L95.5426 20.86ZM93.2626 20.86V20.36C92.9912 20.36 92.7693 20.5767 92.7628 20.8481L93.2626 20.86ZM93.1626 25.04L92.6626 25.0281V25.04H93.1626ZM93.3426 26.3L92.9067 26.5453L92.9139 26.5573L93.3426 26.3ZM95.2826 26.38L95.7809 26.3379C95.7684 26.1898 95.6906 26.055 95.5687 25.9699C95.4468 25.8849 95.2934 25.8585 95.1501 25.8979L95.2826 26.38ZM95.4026 27.8L95.7227 28.1841C95.8481 28.0797 95.9146 27.9205 95.9009 27.7579L95.4026 27.8ZM91.4426 28.18L91.0644 28.5071L91.0689 28.5122L91.4426 28.18ZM90.8026 26.26L90.3034 26.2333C90.3029 26.2422 90.3026 26.2511 90.3026 26.26H90.8026ZM90.9226 24.02L91.4219 24.0468C91.4225 24.0368 91.4227 24.0268 91.4226 24.0169L90.9226 24.02ZM90.9026 20.86L91.4026 20.8569C91.4009 20.582 91.1776 20.36 90.9026 20.36V20.86ZM89.5226 20.86L89.0271 20.7935C89.0079 20.9365 89.0514 21.0807 89.1463 21.1892C89.2413 21.2978 89.3784 21.36 89.5226 21.36V20.86ZM89.7426 19.22V18.72C89.4922 18.72 89.2804 18.9053 89.2471 19.1535L89.7426 19.22ZM91.4026 19.22V17.04H90.4026V19.22H91.4026ZM90.9972 17.531L93.6972 17.011L93.5081 16.029L90.8081 16.549L90.9972 17.531ZM93.1049 16.4721L92.8449 19.1721L93.8403 19.268L94.1003 16.568L93.1049 16.4721ZM93.3426 19.72H95.7626V18.72H93.3426V19.72ZM95.2671 19.1535L95.0471 20.7935L96.0382 20.9265L96.2582 19.2865L95.2671 19.1535ZM95.5426 20.36H93.2626V21.36H95.5426V20.36ZM92.7628 20.8481L92.6628 25.0281L93.6625 25.052L93.7625 20.872L92.7628 20.8481ZM92.6626 25.04C92.6626 25.367 92.6782 25.6541 92.7127 25.8957C92.746 26.1288 92.802 26.3588 92.9069 26.5452L93.7784 26.0549C93.7633 26.0279 93.7293 25.9412 93.7026 25.7543C93.6771 25.5759 93.6626 25.3397 93.6626 25.04H92.6626ZM92.9139 26.5573C93.1564 26.9614 93.5801 27.1 94.0026 27.1V26.1C93.892 26.1 93.8321 26.0824 93.8045 26.0698C93.7833 26.0602 93.7773 26.0526 93.7714 26.0428L92.9139 26.5573ZM94.0026 27.1C94.3884 27.1 94.8652 27.0134 95.4152 26.8621L95.1501 25.8979C94.6334 26.04 94.2569 26.1 94.0026 26.1V27.1ZM94.7844 26.4221L94.9044 27.8421L95.9009 27.7579L95.7809 26.3379L94.7844 26.4221ZM95.0826 27.4159C94.2337 28.1233 93.5737 28.4 93.0826 28.4V29.4C93.9249 29.4 94.8116 28.9434 95.7227 28.1841L95.0826 27.4159ZM93.0826 28.4C92.5526 28.4 92.1441 28.2166 91.8164 27.8478L91.0689 28.5122C91.5945 29.1035 92.2793 29.4 93.0826 29.4V28.4ZM91.8208 27.8529C91.4882 27.4683 91.3026 26.9525 91.3026 26.26H90.3026C90.3026 27.1409 90.5438 27.9051 91.0645 28.5071L91.8208 27.8529ZM91.3019 26.2868L91.4219 24.0468L90.4234 23.9933L90.3034 26.2333L91.3019 26.2868ZM91.4226 24.0169L91.4026 20.8569L90.4027 20.8632L90.4227 24.0232L91.4226 24.0169ZM90.9026 20.36H89.5226V21.36H90.9026V20.36ZM90.0182 20.9265L90.2382 19.2865L89.2471 19.1535L89.0271 20.7935L90.0182 20.9265ZM89.7426 19.72H90.9026V18.72H89.7426V19.72Z" fill="white" mask="url(#path-5-outside-1_10_11805)"/>
<defs>
<linearGradient id="paint0_linear_10_11805" x1="161.896" y1="16.5718" x2="-0.751997" y2="16.5718" gradientUnits="userSpaceOnUse">
<stop stop-color="#117EC1"/>
<stop offset="0.01" stop-color="#218ECF"/>
<stop offset="0.02" stop-color="#339EDE"/>
<stop offset="0.3" stop-color="#7AD2FF"/>
<stop offset="0.33" stop-color="#6FCCFD"/>
<stop offset="0.41" stop-color="#58BFFA"/>
<stop offset="0.49" stop-color="#4AB7F8"/>
<stop offset="0.56" stop-color="#45B4F7"/>
<stop offset="0.81" stop-color="#73CEFF"/>
<stop offset="0.96" stop-color="#5BC3FF"/>
<stop offset="1" stop-color="#2B96D7"/>
</linearGradient>
<linearGradient id="paint1_linear_10_11805" x1="163.322" y1="16.5719" x2="-2.90694e-05" y2="16.5719" gradientUnits="userSpaceOnUse">
<stop stop-color="#0054A1"/>
<stop offset="0.06" stop-color="#0561AB"/>
<stop offset="0.15" stop-color="#0969B2"/>
<stop offset="0.28" stop-color="#0A6CB4"/>
<stop offset="0.42" stop-color="#45B4F7"/>
<stop offset="0.59" stop-color="#117EC1"/>
<stop offset="0.7" stop-color="#3EA8E7"/>
<stop offset="0.77" stop-color="#5BC3FF"/>
<stop offset="0.92" stop-color="#0867B0"/>
<stop offset="1" stop-color="#0054A1"/>
</linearGradient>
<linearGradient id="paint2_linear_10_11805" x1="81.6611" y1="7.05949" x2="81.6611" y2="39.7767" gradientUnits="userSpaceOnUse">
<stop stop-color="#117EC1"/>
<stop offset="0.02" stop-color="#319FE3"/>
<stop offset="0.04" stop-color="#44B4F8"/>
<stop offset="0.05" stop-color="#4BBBFF"/>
<stop offset="0.96" stop-color="#B4EFFF"/>
<stop offset="1" stop-color="#D3FEFF"/>
</linearGradient>
<linearGradient id="paint3_linear_10_11805" x1="81.661" y1="40.0628" x2="81.661" y2="6.81012" gradientUnits="userSpaceOnUse">
<stop stop-color="#73CEFF"/>
<stop offset="0.26" stop-color="#95DFFF"/>
<stop offset="0.57" stop-color="#B7F0FF"/>
<stop offset="0.83" stop-color="#CCFAFF"/>
<stop offset="1" stop-color="#D3FEFF"/>
</linearGradient>
</defs>
</svg>
