<svg width="264" height="140" viewBox="0 0 264 140" fill="none" xmlns="http://www.w3.org/2000/svg">
<g filter="url(#filter0_d_13_12412)">
<path d="M54.1677 82.805L210.51 82.8051C211.345 82.8019 212.144 82.4691 212.734 81.8791C213.324 81.289 213.657 80.4897 213.66 79.6553L213.66 53.4897C213.657 52.6552 213.324 51.8559 212.734 51.2659C212.144 50.6758 211.345 50.343 210.51 50.3399L54.1677 50.3398C53.3333 50.343 52.5339 50.6758 51.9439 51.2658C51.3539 51.8559 51.021 52.6552 51.0179 53.4896L51.0179 79.6474C51.0189 80.4832 51.3509 81.2845 51.9411 81.8763C52.5314 82.468 53.3319 82.8019 54.1677 82.805Z" fill="url(#paint0_linear_13_12412)"/>
<path d="M54.1676 50.0001L210.51 50.0001C211.435 50.0011 212.323 50.3691 212.977 51.0233C213.631 51.6775 213.999 52.5646 214 53.4898L214 79.6475C213.999 80.5727 213.631 81.4597 212.977 82.1139C212.323 82.7682 211.435 83.1362 210.51 83.1372L54.1676 83.1372C53.2424 83.1362 52.3554 82.7682 51.7012 82.1139C51.047 81.4597 50.679 80.5727 50.6779 79.6475L50.678 53.4898C50.679 52.5645 51.047 51.6775 51.7012 51.0233C52.3554 50.3691 53.2424 50.0011 54.1676 50.0001ZM210.51 82.4666C211.257 82.4655 211.973 82.168 212.501 81.6394C213.028 81.1108 213.324 80.3944 213.324 79.6475L213.324 53.4898C213.323 52.7438 213.026 52.0287 212.499 51.5013C211.971 50.9738 211.256 50.677 210.51 50.676L54.1676 50.6759C53.4217 50.677 52.7066 50.9738 52.1791 51.5012C51.6516 52.0287 51.3549 52.7438 51.3538 53.4898L51.3538 79.6475C51.3549 80.3934 51.6516 81.1085 52.1791 81.636C52.7066 82.1635 53.4217 82.4603 54.1676 82.4613L210.51 82.4666Z" fill="url(#paint1_linear_13_12412)"/>
<path d="M54.1677 89.5627L210.51 89.5627C211.345 89.5596 212.144 89.2268 212.734 88.6368C213.324 88.0467 213.657 87.2474 213.66 86.413L213.66 60.2473C213.657 59.4129 213.324 58.6136 212.734 58.0235C212.144 57.4335 211.345 57.1007 210.51 57.0976L54.1677 57.0975C53.3333 57.1007 52.5339 57.4335 51.9439 58.0235C51.3539 58.6136 51.021 59.4129 51.0179 60.2473L51.0179 86.4103C51.0203 87.2452 51.3529 88.0452 51.943 88.6358C52.5331 89.2264 53.3328 89.5596 54.1677 89.5627Z" fill="url(#paint2_linear_13_12412)"/>
<path d="M54.1676 56.7576L210.51 56.7576C211.435 56.7587 212.323 57.1267 212.977 57.7809C213.631 58.4351 213.999 59.3221 214 60.2473L214 86.4103C213.999 87.3355 213.631 88.2225 212.977 88.8768C212.323 89.531 211.435 89.899 210.51 89.9L54.1676 89.9C53.2424 89.899 52.3554 89.531 51.7012 88.8767C51.047 88.2225 50.679 87.3355 50.6779 86.4103L50.678 60.2473C50.679 59.3221 51.047 58.4351 51.7012 57.7809C52.3554 57.1267 53.2424 56.7587 54.1676 56.7576ZM210.51 89.2281C211.256 89.227 211.971 88.9302 212.499 88.4028C213.026 87.8753 213.323 87.1602 213.324 86.4143L213.324 60.2473C213.323 59.5013 213.027 58.786 212.499 58.2584C211.972 57.7309 211.256 57.4342 210.51 57.4335L54.1676 57.4335C53.4216 57.4342 52.7063 57.7309 52.1787 58.2584C51.6512 58.786 51.3545 59.5013 51.3538 60.2473L51.3538 86.4103C51.3538 87.1569 51.6502 87.873 52.1777 88.4014C52.7053 88.9297 53.421 89.227 54.1676 89.2281L210.51 89.2281Z" fill="url(#paint3_linear_13_12412)"/>
<mask id="path-5-outside-1_13_12412" maskUnits="userSpaceOnUse" x="98" y="62.9" width="68" height="21" fill="black">
<rect fill="white" x="98" y="62.9" width="68" height="21"/>
<path d="M100.82 74.92C101.953 76.0534 103.087 76.62 104.22 76.62C104.807 76.62 105.273 76.4867 105.62 76.22C105.98 75.94 106.16 75.5867 106.16 75.16C106.16 74.72 105.947 74.3534 105.52 74.06C105.093 73.7534 104.573 73.4867 103.96 73.26C103.36 73.0334 102.76 72.78 102.16 72.5C101.56 72.2067 101.047 71.7934 100.62 71.26C100.193 70.7267 99.98 70.08 99.98 69.32C99.98 68.12 100.48 67.0867 101.48 66.22C102.48 65.34 103.667 64.9 105.04 64.9C105.667 64.9 106.273 64.9667 106.86 65.1C107.447 65.2334 108.013 65.4267 108.56 65.68L107.2 68.6C106.827 68.3067 106.313 68.04 105.66 67.8C105.02 67.5467 104.453 67.42 103.96 67.42C103.48 67.42 103.087 67.54 102.78 67.78C102.487 68.0067 102.34 68.3134 102.34 68.7C102.34 69.0867 102.553 69.4334 102.98 69.74C103.407 70.0334 103.92 70.2934 104.52 70.52C105.133 70.7467 105.74 71 106.34 71.28C106.953 71.5467 107.473 71.9467 107.9 72.48C108.327 73.0134 108.54 73.66 108.54 74.42C108.54 75.6734 108.04 76.7734 107.04 77.72C106.04 78.6534 104.873 79.12 103.54 79.12C102.54 79.12 101.653 78.88 100.88 78.4C100.2 77.9867 99.72 77.62 99.44 77.3L99.26 77.08L100.82 74.92ZM113.819 76.86C114.205 76.86 114.612 76.76 115.039 76.56C115.465 76.36 115.799 76.16 116.039 75.96L116.399 75.66L117.319 76.78C117.185 77.0067 116.979 77.2667 116.699 77.56C116.419 77.8534 116.132 78.1067 115.839 78.32C115.559 78.52 115.179 78.7067 114.699 78.88C114.232 79.04 113.745 79.12 113.239 79.12C112.159 79.12 111.279 78.7134 110.599 77.9C109.919 77.0734 109.579 76.0134 109.579 74.72C109.579 73.0934 110.052 71.6667 110.999 70.44C111.945 69.2134 113.052 68.6 114.319 68.6C115.292 68.6 116.045 68.8734 116.579 69.42C117.125 69.9667 117.399 70.7334 117.399 71.72C117.399 72.3067 117.299 72.9734 117.099 73.72L116.699 74.14L111.699 74.6C111.925 76.1067 112.632 76.86 113.819 76.86ZM113.819 70.66C113.232 70.66 112.739 70.9 112.339 71.38C111.939 71.8467 111.705 72.4467 111.639 73.18L115.039 72.76C115.079 72.4534 115.099 72.2 115.099 72C115.099 71.1067 114.672 70.66 113.819 70.66ZM119.924 69.22V67.04L122.624 66.52L122.364 69.22H124.784L124.564 70.86H122.284L122.184 75.04C122.184 75.6667 122.244 76.0867 122.364 76.3C122.484 76.5 122.704 76.6 123.024 76.6C123.344 76.6 123.771 76.5267 124.304 76.38L124.424 77.8C123.544 78.5334 122.771 78.9 122.104 78.9C121.438 78.9 120.891 78.66 120.464 78.18C120.038 77.6867 119.824 77.0467 119.824 76.26L119.944 74.02L119.924 70.86H118.544L118.764 69.22H119.924ZM127.034 69.22V67.04L129.734 66.52L129.474 69.22H131.894L131.674 70.86H129.394L129.294 75.04C129.294 75.6667 129.354 76.0867 129.474 76.3C129.594 76.5 129.814 76.6 130.134 76.6C130.454 76.6 130.88 76.5267 131.414 76.38L131.534 77.8C130.654 78.5334 129.88 78.9 129.214 78.9C128.547 78.9 128 78.66 127.574 78.18C127.147 77.6867 126.934 77.0467 126.934 76.26L127.054 74.02L127.034 70.86H125.654L125.874 69.22H127.034ZM136.043 68.72L135.803 73.7L136.023 78.4L133.343 78.9L133.583 74.04L133.363 69.22L136.043 68.72ZM133.223 65.8C133.223 65.3467 133.396 64.9467 133.743 64.6C134.09 64.24 134.49 64.06 134.943 64.06C135.396 64.06 135.743 64.1867 135.983 64.44C136.223 64.68 136.343 65.0467 136.343 65.54C136.343 66.0334 136.17 66.46 135.823 66.82C135.49 67.1667 135.096 67.34 134.643 67.34C134.203 67.34 133.856 67.1934 133.603 66.9C133.35 66.6067 133.223 66.24 133.223 65.8ZM144.046 73.84C144.046 72.92 143.966 72.3067 143.806 72C143.646 71.6934 143.273 71.54 142.686 71.54C142.099 71.54 141.433 71.7734 140.686 72.24V73.7L140.906 78.4L138.226 78.9L138.466 74.04C138.413 72.2534 138.266 70.6534 138.026 69.24L140.446 68.72C140.539 69.4934 140.606 70.2467 140.646 70.98C140.846 70.7134 141.073 70.4534 141.326 70.2C141.579 69.9334 141.979 69.64 142.526 69.32C143.073 68.9867 143.646 68.82 144.246 68.82C144.859 68.82 145.373 69.06 145.786 69.54C146.199 70.0067 146.406 70.6467 146.406 71.46L146.286 73.7L146.506 78.5L143.806 79L144.046 73.84ZM148.015 80.88C148.015 79.7067 149.108 78.7867 151.295 78.12C150.775 77.8534 150.515 77.5067 150.515 77.08C150.515 76.9067 150.581 76.7334 150.715 76.56C150.848 76.3867 151.041 76.2067 151.295 76.02V75.86C150.335 75.86 149.568 75.5934 148.995 75.06C148.435 74.5267 148.155 73.8134 148.155 72.92C148.155 71.76 148.628 70.7534 149.575 69.9C150.521 69.0334 151.641 68.6 152.935 68.6C153.268 68.6 153.755 68.6667 154.395 68.8C155.035 68.9334 155.661 69 156.275 69H157.815L157.615 70.74L156.115 70.56C156.248 70.9467 156.315 71.3867 156.315 71.88C156.315 72.3734 156.195 72.8667 155.955 73.36C155.728 73.84 155.448 74.2267 155.115 74.52C154.795 74.8134 154.468 75.0734 154.135 75.3C153.815 75.5134 153.535 75.7067 153.295 75.88C153.068 76.04 152.955 76.1867 152.955 76.32C152.955 76.5734 153.221 76.7934 153.755 76.98C155.168 77.5534 156.121 78.04 156.615 78.44C157.121 78.84 157.375 79.3334 157.375 79.92C157.375 80.9067 156.875 81.7134 155.875 82.34C154.888 82.98 153.708 83.3 152.335 83.3C150.961 83.3 149.895 83.08 149.135 82.64C148.388 82.2 148.015 81.6134 148.015 80.88ZM154.055 72.48C154.055 71.8267 153.908 71.3467 153.615 71.04C153.321 70.7334 152.861 70.58 152.235 70.58C151.021 70.58 150.415 71.18 150.415 72.38C150.415 73.5667 151.061 74.16 152.355 74.16C153.488 74.16 154.055 73.6 154.055 72.48ZM154.775 80.22C154.775 79.98 154.648 79.7534 154.395 79.54C154.141 79.34 153.688 79.1 153.035 78.82C152.061 79.0867 151.388 79.3334 151.015 79.56C150.655 79.7867 150.475 80.0667 150.475 80.4C150.475 80.7334 150.655 81 151.015 81.2C151.388 81.4134 151.901 81.52 152.555 81.52C153.208 81.52 153.741 81.4 154.155 81.16C154.568 80.92 154.775 80.6067 154.775 80.22ZM161.891 77.04C162.584 77.04 162.931 76.7334 162.931 76.12C162.931 75.9067 162.778 75.7067 162.471 75.52C162.178 75.3334 161.811 75.1467 161.371 74.96C160.944 74.7734 160.511 74.5667 160.071 74.34C159.644 74.1 159.278 73.7734 158.971 73.36C158.678 72.9467 158.531 72.4734 158.531 71.94C158.531 71.0467 158.924 70.2667 159.711 69.6C160.498 68.9334 161.404 68.6 162.431 68.6C162.911 68.6 163.378 68.66 163.831 68.78C164.298 68.8867 164.744 69.06 165.171 69.3L163.831 71.74C163.738 71.66 163.618 71.56 163.471 71.44C163.324 71.32 163.044 71.1667 162.631 70.98C162.231 70.78 161.871 70.68 161.551 70.68C161.244 70.68 161.004 70.7534 160.831 70.9C160.671 71.0334 160.591 71.2267 160.591 71.48C160.591 71.72 160.818 71.9667 161.271 72.22C161.738 72.46 162.244 72.6867 162.791 72.9C163.338 73.1 163.838 73.44 164.291 73.92C164.758 74.3867 164.991 74.9467 164.991 75.6C164.991 76.5334 164.604 77.3534 163.831 78.06C163.071 78.7667 162.191 79.12 161.191 79.12C160.551 79.12 159.951 78.98 159.391 78.7C158.844 78.42 158.451 78.14 158.211 77.86L157.851 77.44L159.431 75.6C159.511 75.7067 159.624 75.84 159.771 76C159.918 76.16 160.204 76.3734 160.631 76.64C161.071 76.9067 161.491 77.04 161.891 77.04Z"/>
</mask>
<path d="M100.82 74.92C101.953 76.0534 103.087 76.62 104.22 76.62C104.807 76.62 105.273 76.4867 105.62 76.22C105.98 75.94 106.16 75.5867 106.16 75.16C106.16 74.72 105.947 74.3534 105.52 74.06C105.093 73.7534 104.573 73.4867 103.96 73.26C103.36 73.0334 102.76 72.78 102.16 72.5C101.56 72.2067 101.047 71.7934 100.62 71.26C100.193 70.7267 99.98 70.08 99.98 69.32C99.98 68.12 100.48 67.0867 101.48 66.22C102.48 65.34 103.667 64.9 105.04 64.9C105.667 64.9 106.273 64.9667 106.86 65.1C107.447 65.2334 108.013 65.4267 108.56 65.68L107.2 68.6C106.827 68.3067 106.313 68.04 105.66 67.8C105.02 67.5467 104.453 67.42 103.96 67.42C103.48 67.42 103.087 67.54 102.78 67.78C102.487 68.0067 102.34 68.3134 102.34 68.7C102.34 69.0867 102.553 69.4334 102.98 69.74C103.407 70.0334 103.92 70.2934 104.52 70.52C105.133 70.7467 105.74 71 106.34 71.28C106.953 71.5467 107.473 71.9467 107.9 72.48C108.327 73.0134 108.54 73.66 108.54 74.42C108.54 75.6734 108.04 76.7734 107.04 77.72C106.04 78.6534 104.873 79.12 103.54 79.12C102.54 79.12 101.653 78.88 100.88 78.4C100.2 77.9867 99.72 77.62 99.44 77.3L99.26 77.08L100.82 74.92ZM113.819 76.86C114.205 76.86 114.612 76.76 115.039 76.56C115.465 76.36 115.799 76.16 116.039 75.96L116.399 75.66L117.319 76.78C117.185 77.0067 116.979 77.2667 116.699 77.56C116.419 77.8534 116.132 78.1067 115.839 78.32C115.559 78.52 115.179 78.7067 114.699 78.88C114.232 79.04 113.745 79.12 113.239 79.12C112.159 79.12 111.279 78.7134 110.599 77.9C109.919 77.0734 109.579 76.0134 109.579 74.72C109.579 73.0934 110.052 71.6667 110.999 70.44C111.945 69.2134 113.052 68.6 114.319 68.6C115.292 68.6 116.045 68.8734 116.579 69.42C117.125 69.9667 117.399 70.7334 117.399 71.72C117.399 72.3067 117.299 72.9734 117.099 73.72L116.699 74.14L111.699 74.6C111.925 76.1067 112.632 76.86 113.819 76.86ZM113.819 70.66C113.232 70.66 112.739 70.9 112.339 71.38C111.939 71.8467 111.705 72.4467 111.639 73.18L115.039 72.76C115.079 72.4534 115.099 72.2 115.099 72C115.099 71.1067 114.672 70.66 113.819 70.66ZM119.924 69.22V67.04L122.624 66.52L122.364 69.22H124.784L124.564 70.86H122.284L122.184 75.04C122.184 75.6667 122.244 76.0867 122.364 76.3C122.484 76.5 122.704 76.6 123.024 76.6C123.344 76.6 123.771 76.5267 124.304 76.38L124.424 77.8C123.544 78.5334 122.771 78.9 122.104 78.9C121.438 78.9 120.891 78.66 120.464 78.18C120.038 77.6867 119.824 77.0467 119.824 76.26L119.944 74.02L119.924 70.86H118.544L118.764 69.22H119.924ZM127.034 69.22V67.04L129.734 66.52L129.474 69.22H131.894L131.674 70.86H129.394L129.294 75.04C129.294 75.6667 129.354 76.0867 129.474 76.3C129.594 76.5 129.814 76.6 130.134 76.6C130.454 76.6 130.88 76.5267 131.414 76.38L131.534 77.8C130.654 78.5334 129.88 78.9 129.214 78.9C128.547 78.9 128 78.66 127.574 78.18C127.147 77.6867 126.934 77.0467 126.934 76.26L127.054 74.02L127.034 70.86H125.654L125.874 69.22H127.034ZM136.043 68.72L135.803 73.7L136.023 78.4L133.343 78.9L133.583 74.04L133.363 69.22L136.043 68.72ZM133.223 65.8C133.223 65.3467 133.396 64.9467 133.743 64.6C134.09 64.24 134.49 64.06 134.943 64.06C135.396 64.06 135.743 64.1867 135.983 64.44C136.223 64.68 136.343 65.0467 136.343 65.54C136.343 66.0334 136.17 66.46 135.823 66.82C135.49 67.1667 135.096 67.34 134.643 67.34C134.203 67.34 133.856 67.1934 133.603 66.9C133.35 66.6067 133.223 66.24 133.223 65.8ZM144.046 73.84C144.046 72.92 143.966 72.3067 143.806 72C143.646 71.6934 143.273 71.54 142.686 71.54C142.099 71.54 141.433 71.7734 140.686 72.24V73.7L140.906 78.4L138.226 78.9L138.466 74.04C138.413 72.2534 138.266 70.6534 138.026 69.24L140.446 68.72C140.539 69.4934 140.606 70.2467 140.646 70.98C140.846 70.7134 141.073 70.4534 141.326 70.2C141.579 69.9334 141.979 69.64 142.526 69.32C143.073 68.9867 143.646 68.82 144.246 68.82C144.859 68.82 145.373 69.06 145.786 69.54C146.199 70.0067 146.406 70.6467 146.406 71.46L146.286 73.7L146.506 78.5L143.806 79L144.046 73.84ZM148.015 80.88C148.015 79.7067 149.108 78.7867 151.295 78.12C150.775 77.8534 150.515 77.5067 150.515 77.08C150.515 76.9067 150.581 76.7334 150.715 76.56C150.848 76.3867 151.041 76.2067 151.295 76.02V75.86C150.335 75.86 149.568 75.5934 148.995 75.06C148.435 74.5267 148.155 73.8134 148.155 72.92C148.155 71.76 148.628 70.7534 149.575 69.9C150.521 69.0334 151.641 68.6 152.935 68.6C153.268 68.6 153.755 68.6667 154.395 68.8C155.035 68.9334 155.661 69 156.275 69H157.815L157.615 70.74L156.115 70.56C156.248 70.9467 156.315 71.3867 156.315 71.88C156.315 72.3734 156.195 72.8667 155.955 73.36C155.728 73.84 155.448 74.2267 155.115 74.52C154.795 74.8134 154.468 75.0734 154.135 75.3C153.815 75.5134 153.535 75.7067 153.295 75.88C153.068 76.04 152.955 76.1867 152.955 76.32C152.955 76.5734 153.221 76.7934 153.755 76.98C155.168 77.5534 156.121 78.04 156.615 78.44C157.121 78.84 157.375 79.3334 157.375 79.92C157.375 80.9067 156.875 81.7134 155.875 82.34C154.888 82.98 153.708 83.3 152.335 83.3C150.961 83.3 149.895 83.08 149.135 82.64C148.388 82.2 148.015 81.6134 148.015 80.88ZM154.055 72.48C154.055 71.8267 153.908 71.3467 153.615 71.04C153.321 70.7334 152.861 70.58 152.235 70.58C151.021 70.58 150.415 71.18 150.415 72.38C150.415 73.5667 151.061 74.16 152.355 74.16C153.488 74.16 154.055 73.6 154.055 72.48ZM154.775 80.22C154.775 79.98 154.648 79.7534 154.395 79.54C154.141 79.34 153.688 79.1 153.035 78.82C152.061 79.0867 151.388 79.3334 151.015 79.56C150.655 79.7867 150.475 80.0667 150.475 80.4C150.475 80.7334 150.655 81 151.015 81.2C151.388 81.4134 151.901 81.52 152.555 81.52C153.208 81.52 153.741 81.4 154.155 81.16C154.568 80.92 154.775 80.6067 154.775 80.22ZM161.891 77.04C162.584 77.04 162.931 76.7334 162.931 76.12C162.931 75.9067 162.778 75.7067 162.471 75.52C162.178 75.3334 161.811 75.1467 161.371 74.96C160.944 74.7734 160.511 74.5667 160.071 74.34C159.644 74.1 159.278 73.7734 158.971 73.36C158.678 72.9467 158.531 72.4734 158.531 71.94C158.531 71.0467 158.924 70.2667 159.711 69.6C160.498 68.9334 161.404 68.6 162.431 68.6C162.911 68.6 163.378 68.66 163.831 68.78C164.298 68.8867 164.744 69.06 165.171 69.3L163.831 71.74C163.738 71.66 163.618 71.56 163.471 71.44C163.324 71.32 163.044 71.1667 162.631 70.98C162.231 70.78 161.871 70.68 161.551 70.68C161.244 70.68 161.004 70.7534 160.831 70.9C160.671 71.0334 160.591 71.2267 160.591 71.48C160.591 71.72 160.818 71.9667 161.271 72.22C161.738 72.46 162.244 72.6867 162.791 72.9C163.338 73.1 163.838 73.44 164.291 73.92C164.758 74.3867 164.991 74.9467 164.991 75.6C164.991 76.5334 164.604 77.3534 163.831 78.06C163.071 78.7667 162.191 79.12 161.191 79.12C160.551 79.12 159.951 78.98 159.391 78.7C158.844 78.42 158.451 78.14 158.211 77.86L157.851 77.44L159.431 75.6C159.511 75.7067 159.624 75.84 159.771 76C159.918 76.16 160.204 76.3734 160.631 76.64C161.071 76.9067 161.491 77.04 161.891 77.04Z" fill="#FF172D"/>
<path d="M100.82 74.92L101.174 74.5665C101.07 74.4629 100.926 74.4099 100.78 74.4216C100.634 74.4333 100.5 74.5085 100.415 74.6273L100.82 74.92ZM105.62 76.22L105.925 76.6163L105.927 76.6147L105.62 76.22ZM105.52 74.06L105.228 74.4661L105.237 74.472L105.52 74.06ZM103.96 73.26L103.783 73.7278L103.787 73.729L103.96 73.26ZM102.16 72.5L101.94 72.9493L101.949 72.9531L102.16 72.5ZM100.62 71.26L101.01 70.9477L100.62 71.26ZM101.48 66.22L101.807 66.5979L101.81 66.5954L101.48 66.22ZM106.86 65.1L106.971 64.6125H106.971L106.86 65.1ZM108.56 65.68L109.013 65.8911C109.069 65.7708 109.075 65.6331 109.03 65.5083C108.984 65.3836 108.891 65.2822 108.77 65.2264L108.56 65.68ZM107.2 68.6L106.891 68.9932C107.011 69.0875 107.168 69.1218 107.316 69.0863C107.465 69.0509 107.589 68.9495 107.653 68.8111L107.2 68.6ZM105.66 67.8L105.476 68.2651L105.488 68.2694L105.66 67.8ZM102.78 67.78L103.086 68.1757L103.088 68.1738L102.78 67.78ZM102.98 69.74L102.688 70.1461L102.697 70.152L102.98 69.74ZM104.52 70.52L104.343 70.9878L104.347 70.989L104.52 70.52ZM106.34 71.28L106.128 71.7333L106.141 71.7386L106.34 71.28ZM107.9 72.48L107.51 72.7924L107.9 72.48ZM107.04 77.72L107.381 78.0856L107.384 78.0831L107.04 77.72ZM100.88 78.4L101.144 77.9752L101.14 77.9728L100.88 78.4ZM99.44 77.3L99.053 77.6166C99.0565 77.6209 99.0601 77.6251 99.0637 77.6293L99.44 77.3ZM99.26 77.08L98.8547 76.7873C98.7219 76.9711 98.7295 77.2212 98.873 77.3966L99.26 77.08ZM100.466 75.2736C101.654 76.4614 102.907 77.12 104.22 77.12V76.12C103.266 76.12 102.252 75.6453 101.174 74.5665L100.466 75.2736ZM104.22 77.12C104.88 77.12 105.465 76.97 105.925 76.6163L105.315 75.8237C105.082 76.0034 104.734 76.12 104.22 76.12V77.12ZM105.927 76.6147C106.399 76.2475 106.66 75.7529 106.66 75.16H105.66C105.66 75.4205 105.561 75.6325 105.313 75.8253L105.927 76.6147ZM106.66 75.16C106.66 74.5245 106.338 74.0157 105.803 73.648L105.237 74.472C105.555 74.6911 105.66 74.9155 105.66 75.16H106.66ZM105.812 73.654C105.341 73.3156 104.779 73.0296 104.133 72.791L103.787 73.729C104.368 73.9437 104.846 74.1911 105.228 74.466L105.812 73.654ZM104.137 72.7923C103.549 72.5702 102.96 72.3218 102.371 72.0469L101.949 72.9531C102.56 73.2383 103.171 73.4965 103.783 73.7278L104.137 72.7923ZM102.38 72.0508C101.847 71.7907 101.392 71.4247 101.01 70.9477L100.23 71.5724C100.701 72.162 101.273 72.6227 101.94 72.9492L102.38 72.0508ZM101.01 70.9477C100.663 70.513 100.48 69.9801 100.48 69.32H99.48C99.48 70.18 99.7239 70.9403 100.23 71.5724L101.01 70.9477ZM100.48 69.32C100.48 68.281 100.904 67.3805 101.807 66.5979L101.153 65.8422C100.056 66.7928 99.48 67.9591 99.48 69.32H100.48ZM101.81 66.5954C102.716 65.7984 103.784 65.4 105.04 65.4V64.4C103.549 64.4 102.244 64.8816 101.15 65.8447L101.81 66.5954ZM105.04 65.4C105.631 65.4 106.2 65.4629 106.749 65.5876L106.971 64.6125C106.346 64.4705 105.702 64.4 105.04 64.4V65.4ZM106.749 65.5876C107.302 65.7131 107.835 65.8951 108.35 66.1337L108.77 65.2264C108.192 64.9583 107.592 64.7536 106.971 64.6125L106.749 65.5876ZM108.107 65.4689L106.747 68.3889L107.653 68.8111L109.013 65.8911L108.107 65.4689ZM107.509 68.2069C107.08 67.8699 106.514 67.5812 105.832 67.3307L105.488 68.2694C106.112 68.4989 106.573 68.7435 106.891 68.9932L107.509 68.2069ZM105.844 67.3351C105.167 67.0671 104.536 66.92 103.96 66.92V67.92C104.371 67.92 104.873 68.0263 105.476 68.2649L105.844 67.3351ZM103.96 66.92C103.395 66.92 102.885 67.0626 102.472 67.3863L103.088 68.1738C103.288 68.0174 103.565 67.92 103.96 67.92V66.92ZM102.474 67.3844C102.052 67.7104 101.84 68.1663 101.84 68.7H102.84C102.84 68.4604 102.921 68.303 103.086 68.1757L102.474 67.3844ZM101.84 68.7C101.84 69.3015 102.182 69.782 102.688 70.146L103.272 69.334C102.925 69.0847 102.84 68.8719 102.84 68.7H101.84ZM102.697 70.152C103.163 70.4728 103.714 70.7501 104.343 70.9878L104.697 70.0523C104.126 69.8366 103.65 69.5939 103.263 69.328L102.697 70.152ZM104.347 70.989C104.947 71.2109 105.541 71.4589 106.129 71.7331L106.551 70.8269C105.939 70.5412 105.32 70.2825 104.693 70.051L104.347 70.989ZM106.141 71.7386C106.678 71.9721 107.133 72.3212 107.51 72.7924L108.29 72.1677C107.814 71.5722 107.229 71.1213 106.539 70.8215L106.141 71.7386ZM107.51 72.7924C107.857 73.227 108.04 73.76 108.04 74.42H109.04C109.04 73.5601 108.796 72.7997 108.29 72.1677L107.51 72.7924ZM108.04 74.42C108.04 75.5217 107.607 76.4944 106.696 77.3569L107.384 78.0831C108.473 77.0524 109.04 75.8251 109.04 74.42H108.04ZM106.699 77.3545C105.789 78.2039 104.743 78.62 103.54 78.62V79.62C105.004 79.62 106.291 79.1028 107.381 78.0856L106.699 77.3545ZM103.54 78.62C102.624 78.62 101.83 78.4013 101.144 77.9752L100.616 78.8248C101.477 79.3588 102.456 79.62 103.54 79.62V78.62ZM101.14 77.9728C100.472 77.5671 100.045 77.2322 99.8163 76.9708L99.0637 77.6293C99.3949 78.0078 99.9277 78.4063 100.62 78.8273L101.14 77.9728ZM99.827 76.9834L99.647 76.7634L98.873 77.3966L99.053 77.6166L99.827 76.9834ZM99.6653 77.3728L101.225 75.2128L100.415 74.6273L98.8547 76.7873L99.6653 77.3728ZM115.039 76.56L114.826 76.1073H114.826L115.039 76.56ZM116.039 75.96L115.719 75.5759V75.5759L116.039 75.96ZM116.399 75.66L116.785 75.3427C116.7 75.2397 116.578 75.1748 116.446 75.1622C116.313 75.1497 116.181 75.1906 116.079 75.2759L116.399 75.66ZM117.319 76.78L117.75 77.0335C117.856 76.8527 117.838 76.6248 117.705 76.4627L117.319 76.78ZM116.699 77.56L116.337 77.2148L116.699 77.56ZM115.839 78.32L116.129 78.7269L116.133 78.7244L115.839 78.32ZM114.699 78.88L114.861 79.3531L114.868 79.3503L114.699 78.88ZM110.599 77.9L110.212 78.2177L110.215 78.2207L110.599 77.9ZM110.999 70.44L111.394 70.7455L110.999 70.44ZM116.579 69.42L116.221 69.7692L116.225 69.7736L116.579 69.42ZM117.099 73.72L117.461 74.0649C117.518 74.0043 117.56 73.9302 117.582 73.8494L117.099 73.72ZM116.699 74.14L116.744 74.6379C116.865 74.6268 116.977 74.5725 117.061 74.4849L116.699 74.14ZM111.699 74.6L111.653 74.1021C111.516 74.1147 111.39 74.1833 111.305 74.2915C111.22 74.3998 111.184 74.5383 111.204 74.6744L111.699 74.6ZM112.339 71.38L112.718 71.7055L112.723 71.7001L112.339 71.38ZM111.639 73.18L111.141 73.1348C111.127 73.2853 111.182 73.434 111.291 73.5392C111.399 73.6444 111.55 73.6948 111.7 73.6763L111.639 73.18ZM115.039 72.76L115.1 73.2563C115.326 73.2283 115.505 73.0508 115.534 72.8247L115.039 72.76ZM113.819 77.36C114.293 77.36 114.772 77.2372 115.251 77.0128L114.826 76.1073C114.452 76.2828 114.118 76.36 113.819 76.36V77.36ZM115.251 77.0128C115.699 76.8028 116.074 76.5816 116.359 76.3441L115.719 75.5759C115.523 75.7384 115.232 75.9173 114.826 76.1073L115.251 77.0128ZM116.359 76.3441L116.719 76.0441L116.079 75.2759L115.719 75.5759L116.359 76.3441ZM116.012 75.9774L116.932 77.0974L117.705 76.4627L116.785 75.3427L116.012 75.9774ZM116.888 76.5265C116.781 76.7073 116.603 76.936 116.337 77.2148L117.06 77.9053C117.354 77.5974 117.589 77.3061 117.75 77.0335L116.888 76.5265ZM116.337 77.2148C116.075 77.4889 115.811 77.7219 115.545 77.9157L116.133 78.7244C116.453 78.4915 116.762 78.2178 117.06 77.9053L116.337 77.2148ZM115.548 77.9132C115.318 78.0771 114.984 78.2452 114.529 78.4097L114.868 79.3503C115.373 79.1682 115.799 78.9629 116.129 78.7269L115.548 77.9132ZM114.536 78.4071C114.123 78.5487 113.692 78.62 113.239 78.62V79.62C113.799 79.62 114.34 79.5314 114.861 79.353L114.536 78.4071ZM113.239 78.62C112.303 78.62 111.565 78.2766 110.982 77.5793L110.215 78.2207C110.992 79.1501 112.014 79.62 113.239 79.62V78.62ZM110.985 77.5824C110.393 76.8628 110.079 75.9225 110.079 74.72H109.079C109.079 76.1042 109.444 77.2839 110.212 78.2177L110.985 77.5824ZM110.079 74.72C110.079 73.198 110.519 71.8801 111.394 70.7455L110.603 70.1345C109.585 71.4533 109.079 72.9887 109.079 74.72H110.079ZM111.394 70.7455C112.27 69.6111 113.242 69.1 114.319 69.1V68.1C112.862 68.1 111.621 68.8156 110.603 70.1345L111.394 70.7455ZM114.319 69.1C115.196 69.1 115.806 69.3437 116.221 69.7692L116.936 69.0709C116.285 68.403 115.388 68.1 114.319 68.1V69.1ZM116.225 69.7736C116.654 70.2024 116.899 70.8275 116.899 71.72H117.899C117.899 70.6392 117.597 69.731 116.932 69.0665L116.225 69.7736ZM116.899 71.72C116.899 72.2517 116.808 72.8737 116.616 73.5907L117.582 73.8494C117.79 73.073 117.899 72.3617 117.899 71.72H116.899ZM116.737 73.3752L116.337 73.7952L117.061 74.4849L117.461 74.0649L116.737 73.3752ZM116.653 73.6421L111.653 74.1021L111.744 75.0979L116.744 74.6379L116.653 73.6421ZM111.204 74.6744C111.326 75.4829 111.585 76.1589 112.034 76.6371C112.496 77.1299 113.11 77.36 113.819 77.36V76.36C113.341 76.36 113.008 76.2135 112.763 75.9529C112.505 75.6778 112.298 75.2238 112.193 74.5256L111.204 74.6744ZM113.819 70.16C113.073 70.16 112.442 70.4744 111.954 71.0599L112.723 71.7001C113.035 71.3256 113.391 71.16 113.819 71.16V70.16ZM111.959 71.0546C111.479 71.6147 111.215 72.319 111.141 73.1348L112.137 73.2253C112.196 72.5744 112.398 72.0787 112.718 71.7054L111.959 71.0546ZM111.7 73.6763L115.1 73.2563L114.977 72.2638L111.577 72.6838L111.7 73.6763ZM115.534 72.8247C115.576 72.5068 115.599 72.23 115.599 72H114.599C114.599 72.1701 114.581 72.3999 114.543 72.6954L115.534 72.8247ZM115.599 72C115.599 71.4819 115.475 71.0004 115.14 70.6497C114.801 70.2946 114.328 70.16 113.819 70.16V71.16C114.162 71.16 114.33 71.2488 114.417 71.3404C114.509 71.4363 114.599 71.6249 114.599 72H115.599ZM119.924 69.22V69.72C120.201 69.72 120.424 69.4962 120.424 69.22H119.924ZM119.924 67.04L119.83 66.549C119.594 66.5944 119.424 66.8003 119.424 67.04H119.924ZM122.624 66.52L123.122 66.568C123.137 66.4111 123.077 66.2563 122.961 66.1502C122.844 66.0441 122.685 65.9992 122.53 66.029L122.624 66.52ZM122.364 69.22L121.867 69.1721C121.853 69.3124 121.899 69.4519 121.994 69.5562C122.089 69.6605 122.223 69.72 122.364 69.72V69.22ZM124.784 69.22L125.28 69.2865C125.299 69.1436 125.256 68.9993 125.161 68.8908C125.066 68.7823 124.929 68.72 124.784 68.72V69.22ZM124.564 70.86V71.36C124.815 71.36 125.027 71.1747 125.06 70.9265L124.564 70.86ZM122.284 70.86V70.36C122.013 70.36 121.791 70.5767 121.785 70.8481L122.284 70.86ZM122.184 75.04L121.684 75.0281V75.04H122.184ZM122.364 76.3L121.928 76.5453L121.936 76.5573L122.364 76.3ZM124.304 76.38L124.803 76.3379C124.79 76.1898 124.712 76.055 124.59 75.9699C124.469 75.8849 124.315 75.8585 124.172 75.8979L124.304 76.38ZM124.424 77.8L124.744 78.1841C124.87 78.0797 124.936 77.9205 124.923 77.7579L124.424 77.8ZM120.464 78.18L120.086 78.5071L120.091 78.5122L120.464 78.18ZM119.824 76.26L119.325 76.2333C119.325 76.2422 119.324 76.2511 119.324 76.26H119.824ZM119.944 74.02L120.444 74.0468C120.444 74.0368 120.444 74.0268 120.444 74.0169L119.944 74.02ZM119.924 70.86L120.424 70.8569C120.423 70.582 120.199 70.36 119.924 70.36V70.86ZM118.544 70.86L118.049 70.7935C118.03 70.9365 118.073 71.0807 118.168 71.1892C118.263 71.2978 118.4 71.36 118.544 71.36V70.86ZM118.764 69.22V68.72C118.514 68.72 118.302 68.9053 118.269 69.1535L118.764 69.22ZM120.424 69.22V67.04H119.424V69.22H120.424ZM120.019 67.531L122.719 67.011L122.53 66.029L119.83 66.549L120.019 67.531ZM122.127 66.4721L121.867 69.1721L122.862 69.268L123.122 66.568L122.127 66.4721ZM122.364 69.72H124.784V68.72H122.364V69.72ZM124.289 69.1535L124.069 70.7935L125.06 70.9265L125.28 69.2865L124.289 69.1535ZM124.564 70.36H122.284V71.36H124.564V70.36ZM121.785 70.8481L121.685 75.0281L122.684 75.052L122.784 70.872L121.785 70.8481ZM121.684 75.04C121.684 75.367 121.7 75.6541 121.734 75.8957C121.768 76.1288 121.824 76.3588 121.929 76.5452L122.8 76.0549C122.785 76.0279 122.751 75.9412 122.724 75.7543C122.699 75.5759 122.684 75.3397 122.684 75.04H121.684ZM121.936 76.5573C122.178 76.9614 122.602 77.1 123.024 77.1V76.1C122.914 76.1 122.854 76.0824 122.826 76.0698C122.805 76.0602 122.799 76.0526 122.793 76.0428L121.936 76.5573ZM123.024 77.1C123.41 77.1 123.887 77.0134 124.437 76.8621L124.172 75.8979C123.655 76.04 123.279 76.1 123.024 76.1V77.1ZM123.806 76.4221L123.926 77.8421L124.923 77.7579L124.803 76.3379L123.806 76.4221ZM124.104 77.4159C123.255 78.1233 122.595 78.4 122.104 78.4V79.4C122.947 79.4 123.833 78.9434 124.744 78.1841L124.104 77.4159ZM122.104 78.4C121.574 78.4 121.166 78.2166 120.838 77.8478L120.091 78.5122C120.616 79.1035 121.301 79.4 122.104 79.4V78.4ZM120.843 77.8529C120.51 77.4683 120.324 76.9525 120.324 76.26H119.324C119.324 77.1409 119.566 77.9051 120.086 78.5071L120.843 77.8529ZM120.324 76.2868L120.444 74.0468L119.445 73.9933L119.325 76.2333L120.324 76.2868ZM120.444 74.0169L120.424 70.8569L119.424 70.8632L119.444 74.0232L120.444 74.0169ZM119.924 70.36H118.544V71.36H119.924V70.36ZM119.04 70.9265L119.26 69.2865L118.269 69.1535L118.049 70.7935L119.04 70.9265ZM118.764 69.72H119.924V68.72H118.764V69.72ZM127.034 69.22V69.72C127.31 69.72 127.534 69.4962 127.534 69.22H127.034ZM127.034 67.04L126.939 66.549C126.704 66.5944 126.534 66.8003 126.534 67.04H127.034ZM129.734 66.52L130.231 66.568C130.247 66.4111 130.187 66.2563 130.07 66.1502C129.954 66.0441 129.794 65.9992 129.639 66.029L129.734 66.52ZM129.474 69.22L128.976 69.1721C128.963 69.3124 129.009 69.4519 129.104 69.5562C129.198 69.6605 129.333 69.72 129.474 69.72V69.22ZM131.894 69.22L132.389 69.2865C132.408 69.1436 132.365 68.9993 132.27 68.8908C132.175 68.7823 132.038 68.72 131.894 68.72V69.22ZM131.674 70.86V71.36C131.924 71.36 132.136 71.1747 132.169 70.9265L131.674 70.86ZM129.394 70.86V70.36C129.122 70.36 128.9 70.5767 128.894 70.8481L129.394 70.86ZM129.294 75.04L128.794 75.0281V75.04H129.294ZM129.474 76.3L129.038 76.5453L129.045 76.5573L129.474 76.3ZM131.414 76.38L131.912 76.3379C131.899 76.1898 131.822 76.055 131.7 75.9699C131.578 75.8849 131.424 75.8585 131.281 75.8979L131.414 76.38ZM131.534 77.8L131.854 78.1841C131.979 78.0797 132.046 77.9205 132.032 77.7579L131.534 77.8ZM127.574 78.18L127.196 78.5071L127.2 78.5122L127.574 78.18ZM126.934 76.26L126.434 76.2333C126.434 76.2422 126.434 76.2511 126.434 76.26H126.934ZM127.054 74.02L127.553 74.0468C127.554 74.0368 127.554 74.0268 127.554 74.0169L127.054 74.02ZM127.034 70.86L127.534 70.8569C127.532 70.582 127.309 70.36 127.034 70.36V70.86ZM125.654 70.86L125.158 70.7935C125.139 70.9365 125.182 71.0807 125.277 71.1892C125.372 71.2978 125.51 71.36 125.654 71.36V70.86ZM125.874 69.22V68.72C125.623 68.72 125.411 68.9053 125.378 69.1535L125.874 69.22ZM127.534 69.22V67.04H126.534V69.22H127.534ZM127.128 67.531L129.828 67.011L129.639 66.029L126.939 66.549L127.128 67.531ZM129.236 66.4721L128.976 69.1721L129.971 69.268L130.231 66.568L129.236 66.4721ZM129.474 69.72H131.894V68.72H129.474V69.72ZM131.398 69.1535L131.178 70.7935L132.169 70.9265L132.389 69.2865L131.398 69.1535ZM131.674 70.36H129.394V71.36H131.674V70.36ZM128.894 70.8481L128.794 75.0281L129.794 75.052L129.894 70.872L128.894 70.8481ZM128.794 75.04C128.794 75.367 128.809 75.6541 128.844 75.8957C128.877 76.1288 128.933 76.3588 129.038 76.5452L129.91 76.0549C129.894 76.0279 129.86 75.9412 129.834 75.7543C129.808 75.5759 129.794 75.3397 129.794 75.04H128.794ZM129.045 76.5573C129.287 76.9614 129.711 77.1 130.134 77.1V76.1C130.023 76.1 129.963 76.0824 129.936 76.0698C129.914 76.0602 129.908 76.0526 129.902 76.0428L129.045 76.5573ZM130.134 77.1C130.52 77.1 130.996 77.0134 131.546 76.8621L131.281 75.8979C130.765 76.04 130.388 76.1 130.134 76.1V77.1ZM130.916 76.4221L131.036 77.8421L132.032 77.7579L131.912 76.3379L130.916 76.4221ZM131.214 77.4159C130.365 78.1233 129.705 78.4 129.214 78.4V79.4C130.056 79.4 130.943 78.9434 131.854 78.1841L131.214 77.4159ZM129.214 78.4C128.684 78.4 128.275 78.2166 127.947 77.8478L127.2 78.5122C127.726 79.1035 128.41 79.4 129.214 79.4V78.4ZM127.952 77.8529C127.619 77.4683 127.434 76.9525 127.434 76.26H126.434C126.434 77.1409 126.675 77.9051 127.196 78.5071L127.952 77.8529ZM127.433 76.2868L127.553 74.0468L126.554 73.9933L126.434 76.2333L127.433 76.2868ZM127.554 74.0169L127.534 70.8569L126.534 70.8632L126.554 74.0232L127.554 74.0169ZM127.034 70.36H125.654V71.36H127.034V70.36ZM126.149 70.9265L126.369 69.2865L125.378 69.1535L125.158 70.7935L126.149 70.9265ZM125.874 69.72H127.034V68.72H125.874V69.72ZM136.043 68.72L136.543 68.7441C136.55 68.5914 136.487 68.4437 136.372 68.3432C136.257 68.2427 136.102 68.2005 135.951 68.2285L136.043 68.72ZM135.803 73.7L135.304 73.676C135.303 73.6918 135.303 73.7076 135.304 73.7234L135.803 73.7ZM136.023 78.4L136.115 78.8915C136.36 78.8458 136.534 78.626 136.523 78.3766L136.023 78.4ZM133.343 78.9L132.844 78.8754C132.836 79.0282 132.899 79.176 133.014 79.2766C133.129 79.3773 133.284 79.4196 133.435 79.3915L133.343 78.9ZM133.583 74.04L134.083 74.0647C134.083 74.0489 134.083 74.033 134.083 74.0172L133.583 74.04ZM133.363 69.22L133.271 68.7285C133.026 68.7742 132.852 68.9937 132.864 69.2428L133.363 69.22ZM133.743 64.6L134.097 64.9536L134.103 64.9468L133.743 64.6ZM135.983 64.44L135.62 64.784L135.63 64.7936L135.983 64.44ZM135.823 66.82L135.463 66.4732L135.463 66.4735L135.823 66.82ZM133.603 66.9L133.225 67.2268L133.603 66.9ZM135.544 68.696L135.304 73.676L136.303 73.7241L136.543 68.7441L135.544 68.696ZM135.304 73.7234L135.524 78.4234L136.523 78.3766L136.303 73.6766L135.304 73.7234ZM135.931 77.9085L133.251 78.4085L133.435 79.3915L136.115 78.8915L135.931 77.9085ZM133.843 78.9247L134.083 74.0647L133.084 74.0154L132.844 78.8754L133.843 78.9247ZM134.083 74.0172L133.863 69.1972L132.864 69.2428L133.084 74.0628L134.083 74.0172ZM133.455 69.7115L136.135 69.2115L135.951 68.2285L133.271 68.7285L133.455 69.7115ZM133.723 65.8C133.723 65.4908 133.835 65.2149 134.097 64.9536L133.39 64.2465C132.958 64.6785 132.723 65.2026 132.723 65.8H133.723ZM134.103 64.9468C134.366 64.6736 134.64 64.56 134.943 64.56V63.56C134.339 63.56 133.813 63.8064 133.383 64.2532L134.103 64.9468ZM134.943 64.56C135.302 64.56 135.501 64.6578 135.62 64.7839L136.346 64.0962C135.986 63.7156 135.491 63.56 134.943 63.56V64.56ZM135.63 64.7936C135.74 64.9045 135.843 65.1191 135.843 65.54H136.843C136.843 64.9743 136.706 64.4556 136.337 64.0865L135.63 64.7936ZM135.843 65.54C135.843 65.9021 135.721 66.205 135.463 66.4732L136.183 67.1668C136.618 66.715 136.843 66.1646 136.843 65.54H135.843ZM135.463 66.4735C135.217 66.7288 134.951 66.84 134.643 66.84V67.84C135.241 67.84 135.762 67.6046 136.184 67.1666L135.463 66.4735ZM134.643 66.84C134.327 66.84 134.126 66.741 133.982 66.5732L133.225 67.2268C133.586 67.6457 134.08 67.84 134.643 67.84V66.84ZM133.982 66.5732C133.817 66.383 133.723 66.1373 133.723 65.8H132.723C132.723 66.3427 132.882 66.8304 133.225 67.2268L133.982 66.5732ZM144.046 73.84L144.545 73.8633C144.546 73.8555 144.546 73.8478 144.546 73.84H144.046ZM143.806 72L144.249 71.7687L143.806 72ZM140.686 72.24L140.421 71.816C140.275 71.9074 140.186 72.0676 140.186 72.24H140.686ZM140.686 73.7H140.186C140.186 73.7078 140.186 73.7156 140.186 73.7234L140.686 73.7ZM140.906 78.4L140.998 78.8915C141.243 78.8458 141.417 78.626 141.405 78.3766L140.906 78.4ZM138.226 78.9L137.727 78.8754C137.719 79.0282 137.782 79.176 137.897 79.2766C138.012 79.3773 138.167 79.4196 138.318 79.3915L138.226 78.9ZM138.466 74.04L138.965 74.0647C138.966 74.0515 138.966 74.0383 138.966 74.0251L138.466 74.04ZM138.026 69.24L137.921 68.7512C137.659 68.8074 137.488 69.0598 137.533 69.3237L138.026 69.24ZM140.446 68.72L140.942 68.6601C140.925 68.5206 140.851 68.3946 140.736 68.3129C140.622 68.2313 140.478 68.2017 140.341 68.2312L140.446 68.72ZM140.646 70.98L140.147 71.0073C140.158 71.2172 140.3 71.3975 140.501 71.4585C140.702 71.5195 140.92 71.4482 141.046 71.28L140.646 70.98ZM141.326 70.2L141.68 70.5537L141.688 70.5444L141.326 70.2ZM142.526 69.32L142.779 69.7516L142.786 69.7469L142.526 69.32ZM145.786 69.54L145.407 69.8663L145.412 69.8715L145.786 69.54ZM146.406 71.46L146.905 71.4868C146.906 71.4779 146.906 71.4689 146.906 71.46H146.406ZM146.286 73.7L145.787 73.6733C145.786 73.6898 145.786 73.7064 145.786 73.7229L146.286 73.7ZM146.506 78.5L146.597 78.9917C146.843 78.9462 147.017 78.7266 147.005 78.4771L146.506 78.5ZM143.806 79L143.306 78.9768C143.299 79.1292 143.362 79.2766 143.477 79.3769C143.592 79.4772 143.747 79.5195 143.897 79.4917L143.806 79ZM144.546 73.84C144.546 73.3677 144.526 72.9611 144.482 72.6254C144.439 72.2989 144.37 71.9999 144.249 71.7687L143.363 72.2313C143.402 72.3068 143.453 72.4678 143.49 72.7547C143.526 73.0323 143.546 73.3923 143.546 73.84H144.546ZM144.249 71.7687C143.954 71.2038 143.323 71.04 142.686 71.04V72.04C143.222 72.04 143.337 72.183 143.363 72.2313L144.249 71.7687ZM142.686 71.04C141.97 71.04 141.21 71.3229 140.421 71.816L140.951 72.664C141.655 72.2238 142.229 72.04 142.686 72.04V71.04ZM140.186 72.24V73.7H141.186V72.24H140.186ZM140.186 73.7234L140.406 78.4234L141.405 78.3766L141.185 73.6766L140.186 73.7234ZM140.814 77.9085L138.134 78.4085L138.318 79.3915L140.998 78.8915L140.814 77.9085ZM138.725 78.9247L138.965 74.0647L137.967 74.0154L137.727 78.8754L138.725 78.9247ZM138.966 74.0251C138.912 72.2207 138.764 70.5971 138.519 69.1563L137.533 69.3237C137.768 70.7096 137.913 72.286 137.966 74.0549L138.966 74.0251ZM138.131 69.7289L140.551 69.2089L140.341 68.2312L137.921 68.7512L138.131 69.7289ZM139.95 68.7799C140.042 69.5431 140.107 70.2855 140.147 71.0073L141.145 70.9528C141.105 70.2079 141.037 69.4437 140.942 68.6601L139.95 68.7799ZM141.046 71.28C141.231 71.0336 141.442 70.7914 141.679 70.5536L140.972 69.8465C140.704 70.1153 140.461 70.3931 140.246 70.68L141.046 71.28ZM141.688 70.5444C141.894 70.3277 142.248 70.0623 142.779 69.7515L142.273 68.8885C141.711 69.2178 141.264 69.539 140.963 69.8556L141.688 70.5444ZM142.786 69.7469C143.26 69.4581 143.744 69.32 144.246 69.32V68.32C143.548 68.32 142.885 68.5153 142.266 68.8931L142.786 69.7469ZM144.246 69.32C144.708 69.32 145.085 69.4924 145.407 69.8663L146.165 69.2138C145.66 68.6276 145.01 68.32 144.246 68.32V69.32ZM145.412 69.8715C145.722 70.2218 145.906 70.7308 145.906 71.46H146.906C146.906 70.5626 146.677 69.7916 146.16 69.2085L145.412 69.8715ZM145.907 71.4333L145.787 73.6733L146.785 73.7268L146.905 71.4868L145.907 71.4333ZM145.786 73.7229L146.006 78.5229L147.005 78.4771L146.785 73.6771L145.786 73.7229ZM146.415 78.0084L143.715 78.5084L143.897 79.4917L146.597 78.9917L146.415 78.0084ZM144.305 79.0233L144.545 73.8633L143.546 73.8168L143.306 78.9768L144.305 79.0233ZM151.295 78.12L151.441 78.5983C151.635 78.5389 151.775 78.3673 151.793 78.1644C151.811 77.9616 151.704 77.768 151.523 77.6751L151.295 78.12ZM150.715 76.56L151.111 76.8649L150.715 76.56ZM151.295 76.02L151.591 76.4226C151.719 76.3283 151.795 76.1789 151.795 76.02H151.295ZM151.295 75.86H151.795C151.795 75.5839 151.571 75.36 151.295 75.36V75.86ZM148.995 75.06L148.65 75.4221L148.654 75.4261L148.995 75.06ZM149.575 69.9L149.909 70.2714L149.912 70.2688L149.575 69.9ZM154.395 68.8L154.293 69.2895L154.395 68.8ZM157.815 69L158.311 69.0571C158.328 68.9155 158.283 68.7737 158.188 68.6673C158.093 68.5609 157.957 68.5 157.815 68.5V69ZM157.615 70.74L157.555 71.2365C157.687 71.2523 157.82 71.2149 157.925 71.1324C158.029 71.05 158.096 70.9293 158.111 70.7971L157.615 70.74ZM156.115 70.56L156.174 70.0636C156.003 70.0431 155.834 70.112 155.726 70.246C155.617 70.38 155.586 70.5602 155.642 70.723L156.115 70.56ZM155.955 73.36L155.505 73.1413L155.503 73.1465L155.955 73.36ZM155.115 74.52L154.784 74.1446L154.777 74.1514L155.115 74.52ZM154.135 75.3L154.412 75.7161L154.416 75.7135L154.135 75.3ZM153.295 75.88L153.583 76.2885L153.587 76.2854L153.295 75.88ZM153.755 76.98L153.943 76.5167C153.935 76.5136 153.928 76.5108 153.92 76.5081L153.755 76.98ZM156.615 78.44L156.3 78.8284L156.305 78.8325L156.615 78.44ZM155.875 82.34L155.609 81.9163L155.603 81.9205L155.875 82.34ZM149.135 82.64L148.881 83.0708L148.884 83.0727L149.135 82.64ZM153.615 71.04L153.253 71.3856L153.615 71.04ZM154.395 79.54L154.717 79.1576C154.713 79.1542 154.709 79.1508 154.705 79.1476L154.395 79.54ZM153.035 78.82L153.232 78.3605C153.128 78.3159 153.012 78.3079 152.903 78.3378L153.035 78.82ZM151.015 79.56L150.755 79.1326L150.748 79.1369L151.015 79.56ZM151.015 81.2L151.263 80.7659L151.258 80.7629L151.015 81.2ZM154.155 81.16L153.904 80.7276L154.155 81.16ZM148.515 80.88C148.515 80.4728 148.696 80.0803 149.157 79.6926C149.63 79.2943 150.377 78.9224 151.441 78.5983L151.149 77.6418C150.025 77.9843 149.133 78.4057 148.513 78.9274C147.88 79.4598 147.515 80.1139 147.515 80.88H148.515ZM151.523 77.6751C151.099 77.4576 151.015 77.2508 151.015 77.08H150.015C150.015 77.7626 150.451 78.2491 151.067 78.5649L151.523 77.6751ZM151.015 77.08C151.015 77.043 151.027 76.974 151.111 76.8649L150.318 76.2552C150.136 76.4927 150.015 76.7703 150.015 77.08H151.015ZM151.111 76.8649C151.206 76.7409 151.361 76.5925 151.591 76.4226L150.998 75.6175C150.722 75.8209 150.49 76.0325 150.318 76.2552L151.111 76.8649ZM151.795 76.02V75.86H150.795V76.02H151.795ZM151.295 75.36C150.431 75.36 149.796 75.1227 149.335 74.6939L148.654 75.4261C149.34 76.064 150.238 76.36 151.295 76.36V75.36ZM149.34 74.698C148.894 74.2739 148.655 73.6997 148.655 72.92H147.655C147.655 73.927 147.975 74.7795 148.65 75.4221L149.34 74.698ZM148.655 72.92C148.655 71.9165 149.056 71.0404 149.909 70.2714L149.24 69.5286C148.2 70.4663 147.655 71.6035 147.655 72.92H148.655ZM149.912 70.2688C150.766 69.4873 151.765 69.1 152.935 69.1V68.1C151.517 68.1 150.277 68.5794 149.237 69.5312L149.912 70.2688ZM152.935 69.1C153.215 69.1 153.661 69.1579 154.293 69.2895L154.497 68.3105C153.849 68.1755 153.321 68.1 152.935 68.1V69.1ZM154.293 69.2895C154.964 69.4294 155.625 69.5 156.275 69.5V68.5C155.698 68.5 155.105 68.4373 154.497 68.3105L154.293 69.2895ZM156.275 69.5H157.815V68.5H156.275V69.5ZM157.318 68.9429L157.118 70.6829L158.111 70.7971L158.311 69.0571L157.318 68.9429ZM157.674 70.2436L156.174 70.0636L156.055 71.0565L157.555 71.2365L157.674 70.2436ZM155.642 70.723C155.754 71.0477 155.815 71.4311 155.815 71.88H156.815C156.815 71.3423 156.742 70.8457 156.587 70.397L155.642 70.723ZM155.815 71.88C155.815 72.2894 155.716 72.7084 155.505 73.1413L156.404 73.5788C156.674 73.025 156.815 72.4573 156.815 71.88H155.815ZM155.503 73.1465C155.299 73.5767 155.057 73.9043 154.784 74.1447L155.445 74.8954C155.839 74.5491 156.157 74.1034 156.407 73.5735L155.503 73.1465ZM154.777 74.1514C154.473 74.4297 154.165 74.6745 153.854 74.8866L154.416 75.7135C154.771 75.4723 155.116 75.197 155.453 74.8886L154.777 74.1514ZM153.857 74.884C153.534 75.0998 153.248 75.2968 153.002 75.4747L153.587 76.2854C153.821 76.1166 154.096 75.9269 154.412 75.716L153.857 74.884ZM153.006 75.4715C152.87 75.5675 152.742 75.6772 152.644 75.8043C152.546 75.9317 152.455 76.1067 152.455 76.32H153.455C153.455 76.4 153.42 76.4351 153.435 76.4157C153.442 76.4074 153.456 76.3916 153.481 76.3688C153.506 76.3462 153.539 76.3194 153.583 76.2885L153.006 75.4715ZM152.455 76.32C152.455 76.6453 152.632 76.8923 152.836 77.0607C153.035 77.2245 153.298 77.3499 153.59 77.452L153.92 76.5081C153.678 76.4235 153.541 76.3455 153.473 76.2893C153.41 76.2377 153.455 76.2481 153.455 76.32H152.455ZM153.567 77.4434C154.98 78.0168 155.87 78.4802 156.3 78.8284L156.93 78.0516C156.372 77.5999 155.356 77.0899 153.943 76.5167L153.567 77.4434ZM156.305 78.8325C156.705 79.1485 156.875 79.5031 156.875 79.92H157.875C157.875 79.1636 157.538 78.5315 156.925 78.0476L156.305 78.8325ZM156.875 79.92C156.875 80.6986 156.497 81.3602 155.609 81.9163L156.14 82.7637C157.253 82.0665 157.875 81.1148 157.875 79.92H156.875ZM155.603 81.9205C154.71 82.4997 153.628 82.8 152.335 82.8V83.8C153.788 83.8 155.066 83.4604 156.147 82.7595L155.603 81.9205ZM152.335 82.8C151.004 82.8 150.038 82.5851 149.385 82.2073L148.884 83.0727C149.752 83.575 150.919 83.8 152.335 83.8V82.8ZM149.389 82.2093C148.762 81.8398 148.515 81.4013 148.515 80.88H147.515C147.515 81.8254 148.014 82.5602 148.881 83.0708L149.389 82.2093ZM154.555 72.48C154.555 71.7654 154.396 71.1335 153.976 70.6944L153.253 71.3856C153.42 71.5598 153.555 71.888 153.555 72.48H154.555ZM153.976 70.6944C153.551 70.2503 152.933 70.08 152.235 70.08V71.08C152.79 71.08 153.091 71.2164 153.253 71.3856L153.976 70.6944ZM152.235 70.08C151.552 70.08 150.948 70.2489 150.518 70.6745C150.087 71.1012 149.915 71.7015 149.915 72.38H150.915C150.915 71.8585 151.046 71.5589 151.221 71.3855C151.398 71.2112 151.704 71.08 152.235 71.08V70.08ZM149.915 72.38C149.915 73.062 150.103 73.6622 150.562 74.0834C151.013 74.4973 151.641 74.66 152.355 74.66V73.66C151.775 73.66 151.433 73.5261 151.238 73.3466C151.05 73.1746 150.915 72.8847 150.915 72.38H149.915ZM152.355 74.66C152.997 74.66 153.571 74.5012 153.981 74.0957C154.393 73.689 154.555 73.1186 154.555 72.48H153.555C153.555 72.9614 153.433 73.231 153.278 73.3844C153.122 73.5388 152.846 73.66 152.355 73.66V74.66ZM155.275 80.22C155.275 79.7824 155.038 79.428 154.717 79.1576L154.073 79.9225C154.258 80.0787 154.275 80.1776 154.275 80.22H155.275ZM154.705 79.1476C154.395 78.9035 153.889 78.6421 153.232 78.3605L152.838 79.2796C153.487 79.5579 153.887 79.7765 154.085 79.9325L154.705 79.1476ZM152.903 78.3378C151.927 78.6049 151.194 78.8663 150.755 79.1326L151.274 79.9874C151.582 79.8004 152.195 79.5684 153.167 79.3023L152.903 78.3378ZM150.748 79.1369C150.289 79.4263 149.975 79.8471 149.975 80.4H150.975C150.975 80.2863 151.021 80.147 151.281 79.9831L150.748 79.1369ZM149.975 80.4C149.975 80.9603 150.297 81.3734 150.772 81.6371L151.258 80.7629C151.012 80.6267 150.975 80.5064 150.975 80.4H149.975ZM150.767 81.6341C151.245 81.9074 151.856 82.02 152.555 82.02V81.02C151.947 81.02 151.531 80.9193 151.263 80.7659L150.767 81.6341ZM152.555 82.02C153.265 82.02 153.893 81.89 154.406 81.5924L153.904 80.7276C153.59 80.91 153.151 81.02 152.555 81.02V82.02ZM154.406 81.5924C154.931 81.2876 155.275 80.8291 155.275 80.22H154.275C154.275 80.3843 154.205 80.5524 153.904 80.7276L154.406 81.5924ZM162.471 75.52L162.202 75.9419L162.211 75.9471L162.471 75.52ZM161.371 74.96L161.171 75.4181L161.176 75.4203L161.371 74.96ZM160.071 74.34L159.826 74.7758C159.831 74.7788 159.837 74.7817 159.842 74.7845L160.071 74.34ZM158.971 73.36L158.563 73.6495L158.569 73.6579L158.971 73.36ZM159.711 69.6L159.388 69.2186L159.711 69.6ZM163.831 68.78L163.703 69.2634C163.708 69.2648 163.714 69.2662 163.72 69.2675L163.831 68.78ZM165.171 69.3L165.609 69.5407C165.741 69.3004 165.655 68.9986 165.416 68.8642L165.171 69.3ZM163.831 71.74L163.506 72.1197C163.62 72.2177 163.772 72.2589 163.92 72.2319C164.069 72.205 164.197 72.1127 164.269 71.9807L163.831 71.74ZM162.631 70.98L162.407 71.4272C162.413 71.4302 162.419 71.433 162.425 71.4357L162.631 70.98ZM160.831 70.9L161.151 71.2841L161.154 71.2817L160.831 70.9ZM161.271 72.22L161.027 72.6565C161.032 72.6593 161.037 72.662 161.042 72.6647L161.271 72.22ZM162.791 72.9L162.609 73.3659L162.619 73.3696L162.791 72.9ZM164.291 73.92L163.927 74.2633C163.931 74.2668 163.934 74.2702 163.937 74.2736L164.291 73.92ZM163.831 78.06L163.494 77.6909L163.49 77.6939L163.831 78.06ZM159.391 78.7L159.163 79.1451L159.167 79.1472L159.391 78.7ZM158.211 77.86L157.831 78.1854V78.1854L158.211 77.86ZM157.851 77.44L157.472 77.1143C157.311 77.3015 157.311 77.578 157.471 77.7654L157.851 77.44ZM159.431 75.6L159.831 75.3C159.74 75.1788 159.599 75.1053 159.447 75.1003C159.296 75.0953 159.15 75.1593 159.052 75.2743L159.431 75.6ZM159.771 76L160.14 75.6622L159.771 76ZM160.631 76.64L160.366 77.0641L160.372 77.0676L160.631 76.64ZM161.891 77.54C162.301 77.54 162.701 77.4508 163.002 77.1845C163.315 76.908 163.431 76.5207 163.431 76.12H162.431C162.431 76.3326 162.374 76.4054 162.34 76.4355C162.294 76.476 162.175 76.54 161.891 76.54V77.54ZM163.431 76.12C163.431 75.6376 163.082 75.3069 162.731 75.0929L162.211 75.9471C162.332 76.0209 162.392 76.0794 162.419 76.1142C162.441 76.1433 162.431 76.1424 162.431 76.12H163.431ZM162.739 75.0982C162.416 74.8924 162.023 74.6935 161.566 74.4997L161.176 75.4203C161.599 75.5999 161.939 75.7743 162.202 75.9419L162.739 75.0982ZM161.571 74.5019C161.155 74.3198 160.731 74.1177 160.3 73.8955L159.842 74.7845C160.291 75.0157 160.734 75.227 161.171 75.4181L161.571 74.5019ZM160.316 73.9042C159.954 73.7004 159.639 73.422 159.372 73.0621L158.569 73.6579C158.916 74.1248 159.335 74.4996 159.826 74.7758L160.316 73.9042ZM159.379 73.0707C159.149 72.7465 159.031 72.3754 159.031 71.94H158.031C158.031 72.5713 158.207 73.1469 158.563 73.6494L159.379 73.0707ZM159.031 71.94C159.031 71.2171 159.34 70.5695 160.034 69.9815L159.388 69.2186C158.508 69.9639 158.031 70.8763 158.031 71.94H159.031ZM160.034 69.9815C160.731 69.391 161.523 69.1 162.431 69.1V68.1C161.285 68.1 160.264 68.4757 159.388 69.2186L160.034 69.9815ZM162.431 69.1C162.869 69.1 163.292 69.1547 163.703 69.2634L163.959 68.2967C163.463 68.1654 162.953 68.1 162.431 68.1V69.1ZM163.72 69.2675C164.138 69.3632 164.54 69.5188 164.926 69.7358L165.416 68.8642C164.948 68.6012 164.457 68.4102 163.942 68.2926L163.72 69.2675ZM164.733 69.0593L163.393 71.4993L164.269 71.9807L165.609 69.5407L164.733 69.0593ZM164.156 71.3604C164.059 71.277 163.936 71.1743 163.788 71.053L163.154 71.827C163.299 71.9457 163.416 72.0431 163.506 72.1197L164.156 71.3604ZM163.788 71.053C163.585 70.8872 163.25 70.711 162.837 70.5243L162.425 71.4357C162.839 71.6224 163.064 71.7529 163.154 71.827L163.788 71.053ZM162.855 70.5328C162.411 70.3111 161.973 70.18 161.551 70.18V71.18C161.769 71.18 162.051 71.249 162.407 71.4272L162.855 70.5328ZM161.551 70.18C161.168 70.18 160.799 70.2721 160.508 70.5183L161.154 71.2817C161.21 71.2346 161.321 71.18 161.551 71.18V70.18ZM160.511 70.5159C160.212 70.7647 160.091 71.1136 160.091 71.48H161.091C161.091 71.3398 161.13 71.302 161.151 71.2841L160.511 70.5159ZM160.091 71.48C160.091 71.7675 160.228 72.0044 160.393 72.1833C160.556 72.3611 160.777 72.5165 161.027 72.6565L161.515 71.7836C161.312 71.6702 161.192 71.5756 161.129 71.5067C161.067 71.439 161.091 71.4325 161.091 71.48H160.091ZM161.042 72.6647C161.526 72.9134 162.048 73.147 162.609 73.3658L162.973 72.4342C162.44 72.2264 161.949 72.0067 161.5 71.7754L161.042 72.6647ZM162.619 73.3696C163.084 73.5396 163.52 73.8321 163.927 74.2633L164.654 73.5767C164.155 73.0479 163.591 72.6605 162.963 72.4305L162.619 73.3696ZM163.937 74.2736C164.311 74.6475 164.491 75.0808 164.491 75.6H165.491C165.491 74.8126 165.204 74.1258 164.644 73.5665L163.937 74.2736ZM164.491 75.6C164.491 76.3749 164.177 77.0661 163.494 77.6909L164.168 78.4291C165.031 77.6406 165.491 76.6918 165.491 75.6H164.491ZM163.49 77.6939C162.819 78.3181 162.059 78.62 161.191 78.62V79.62C162.322 79.62 163.323 79.2153 164.171 78.4262L163.49 77.6939ZM161.191 78.62C160.627 78.62 160.104 78.4973 159.615 78.2528L159.167 79.1472C159.798 79.4627 160.475 79.62 161.191 79.62V78.62ZM159.619 78.255C159.097 77.9875 158.769 77.7431 158.591 77.5346L157.831 78.1854C158.133 78.5369 158.592 78.8525 159.163 79.145L159.619 78.255ZM158.591 77.5346L158.231 77.1146L157.471 77.7654L157.831 78.1854L158.591 77.5346ZM158.23 77.7658L159.81 75.9258L159.052 75.2743L157.472 77.1143L158.23 77.7658ZM159.031 75.9C159.125 76.0254 159.251 76.1723 159.402 76.3379L160.14 75.6622C159.998 75.5078 159.897 75.388 159.831 75.3L159.031 75.9ZM159.402 76.3379C159.599 76.5526 159.938 76.7965 160.366 77.064L160.896 76.216C160.471 75.9502 160.236 75.7675 160.14 75.6622L159.402 76.3379ZM160.372 77.0676C160.868 77.3683 161.377 77.54 161.891 77.54V76.54C161.605 76.54 161.274 76.4451 160.89 76.2124L160.372 77.0676Z" fill="white" mask="url(#path-5-outside-1_13_12412)"/>
</g>
<defs>
<filter id="filter0_d_13_12412" x="0.677734" y="0" width="263.322" height="139.9" filterUnits="userSpaceOnUse" color-interpolation-filters="sRGB">
<feFlood flood-opacity="0" result="BackgroundImageFix"/>
<feColorMatrix in="SourceAlpha" type="matrix" values="0 0 0 0 0 0 0 0 0 0 0 0 0 0 0 0 0 0 127 0" result="hardAlpha"/>
<feOffset/>
<feGaussianBlur stdDeviation="25"/>
<feComposite in2="hardAlpha" operator="out"/>
<feColorMatrix type="matrix" values="0 0 0 0 0.380392 0 0 0 0 0.780392 0 0 0 0 1 0 0 0 1 0"/>
<feBlend mode="normal" in2="BackgroundImageFix" result="effect1_dropShadow_13_12412"/>
<feBlend mode="normal" in="SourceGraphic" in2="effect1_dropShadow_13_12412" result="shape"/>
</filter>
<linearGradient id="paint0_linear_13_12412" x1="212.573" y1="66.5718" x2="49.926" y2="66.5718" gradientUnits="userSpaceOnUse">
<stop stop-color="#117EC1"/>
<stop offset="0.01" stop-color="#218ECF"/>
<stop offset="0.02" stop-color="#339EDE"/>
<stop offset="0.3" stop-color="#7AD2FF"/>
<stop offset="0.33" stop-color="#6FCCFD"/>
<stop offset="0.41" stop-color="#58BFFA"/>
<stop offset="0.49" stop-color="#4AB7F8"/>
<stop offset="0.56" stop-color="#45B4F7"/>
<stop offset="0.81" stop-color="#73CEFF"/>
<stop offset="0.96" stop-color="#5BC3FF"/>
<stop offset="1" stop-color="#2B96D7"/>
</linearGradient>
<linearGradient id="paint1_linear_13_12412" x1="214" y1="66.5719" x2="50.6779" y2="66.5719" gradientUnits="userSpaceOnUse">
<stop stop-color="#0054A1"/>
<stop offset="0.06" stop-color="#0561AB"/>
<stop offset="0.15" stop-color="#0969B2"/>
<stop offset="0.28" stop-color="#0A6CB4"/>
<stop offset="0.42" stop-color="#45B4F7"/>
<stop offset="0.59" stop-color="#117EC1"/>
<stop offset="0.7" stop-color="#3EA8E7"/>
<stop offset="0.77" stop-color="#5BC3FF"/>
<stop offset="0.92" stop-color="#0867B0"/>
<stop offset="1" stop-color="#0054A1"/>
</linearGradient>
<linearGradient id="paint2_linear_13_12412" x1="132.339" y1="57.0595" x2="132.339" y2="89.7767" gradientUnits="userSpaceOnUse">
<stop stop-color="#117EC1"/>
<stop offset="0.02" stop-color="#319FE3"/>
<stop offset="0.04" stop-color="#44B4F8"/>
<stop offset="0.05" stop-color="#4BBBFF"/>
<stop offset="0.96" stop-color="#B4EFFF"/>
<stop offset="1" stop-color="#D3FEFF"/>
</linearGradient>
<linearGradient id="paint3_linear_13_12412" x1="132.339" y1="90.0628" x2="132.339" y2="56.8101" gradientUnits="userSpaceOnUse">
<stop stop-color="#73CEFF"/>
<stop offset="0.26" stop-color="#95DFFF"/>
<stop offset="0.57" stop-color="#B7F0FF"/>
<stop offset="0.83" stop-color="#CCFAFF"/>
<stop offset="1" stop-color="#D3FEFF"/>
</linearGradient>
</defs>
</svg>
