<svg width="52" height="29" viewBox="0 0 52 29" fill="none" xmlns="http://www.w3.org/2000/svg">
<path d="M0 9.44484L12.0207 0H42.8476L51.3384 16.7431L33.7529 28.7144L3.69003 26.9972L0 9.44484Z" fill="url(#paint0_linear_8_11180)"/>
<path d="M42.8459 0H12.0207L0 9.44484L3.14147 27.9844L33.7529 28.7144L51.3384 16.7431L42.8459 0ZM32.6907 25.9929L6.04783 24.5482L2.70193 9.77875L13.6051 1.83053H40.9396L48.6382 15.9203L32.6907 25.9929Z" fill="url(#paint1_radial_8_11180)"/>
<path style="mix-blend-mode:multiply" opacity="0.62" d="M40.937 1.83057L40.3833 3.38511L47.5393 16.3598L48.6365 15.9203L40.937 1.83057Z" fill="url(#paint2_linear_8_11180)"/>
<path style="mix-blend-mode:multiply" opacity="0.62" d="M40.3834 3.38511H14.1843L13.6025 1.83057H40.937L40.3834 3.38511Z" fill="url(#paint3_linear_8_11180)"/>
<path style="mix-blend-mode:multiply" opacity="0.62" d="M14.1845 3.38511L4.35806 10.7311L6.04805 24.5483L2.70215 9.77878L13.6027 1.83057L14.1845 3.38511Z" fill="url(#paint4_linear_8_11180)"/>
<defs>
<linearGradient id="paint0_linear_8_11180" x1="25.6692" y1="30.7801" x2="25.6692" y2="0.0902919" gradientUnits="userSpaceOnUse">
<stop stop-color="#21AEB8"/>
<stop offset="0.02" stop-color="#1FA7B2"/>
<stop offset="0.13" stop-color="#168497"/>
<stop offset="0.25" stop-color="#0E6780"/>
<stop offset="0.37" stop-color="#08506F"/>
<stop offset="0.51" stop-color="#034063"/>
<stop offset="0.66" stop-color="#01375B"/>
<stop offset="0.87" stop-color="#003459"/>
</linearGradient>
<radialGradient id="paint1_radial_8_11180" cx="0" cy="0" r="1" gradientUnits="userSpaceOnUse" gradientTransform="translate(23.6555 20.6291) scale(35.9471)">
<stop stop-color="#FEE4B1"/>
<stop offset="0.48" stop-color="#38B1BA"/>
<stop offset="0.59" stop-color="#379DBC"/>
<stop offset="0.72" stop-color="#358BBE"/>
<stop offset="0.81" stop-color="#3585BF"/>
</radialGradient>
<linearGradient id="paint2_linear_8_11180" x1="41.5162" y1="11.6289" x2="48.7676" y2="5.52315" gradientUnits="userSpaceOnUse">
<stop stop-color="#FEE4B1"/>
<stop offset="0.48" stop-color="#38B1BA"/>
<stop offset="0.59" stop-color="#379DBC"/>
<stop offset="0.72" stop-color="#358BBE"/>
<stop offset="0.81" stop-color="#3585BF"/>
</linearGradient>
<linearGradient id="paint3_linear_8_11180" x1="13.1741" y1="14.2448" x2="49.2941" y2="-16.1715" gradientUnits="userSpaceOnUse">
<stop stop-color="#FEE4B1"/>
<stop offset="0.48" stop-color="#38B1BA"/>
<stop offset="0.59" stop-color="#379DBC"/>
<stop offset="0.72" stop-color="#358BBE"/>
<stop offset="0.81" stop-color="#3585BF"/>
</linearGradient>
<linearGradient id="paint4_linear_8_11180" x1="-3.93428" y1="24.1615" x2="30.4131" y2="-4.76242" gradientUnits="userSpaceOnUse">
<stop stop-color="#FEE4B1"/>
<stop offset="0.48" stop-color="#38B1BA"/>
<stop offset="0.59" stop-color="#379DBC"/>
<stop offset="0.72" stop-color="#358BBE"/>
<stop offset="0.81" stop-color="#3585BF"/>
</linearGradient>
</defs>
</svg>
