<svg width="73" height="38" viewBox="0 0 73 38" fill="none" xmlns="http://www.w3.org/2000/svg">
<rect x="1" y="1" width="71" height="36" rx="18" fill="black" fill-opacity="0.2" stroke="url(#paint0_linear_38_5379)"/>
<path d="M24.456 20.816C25.3627 21.7227 26.2693 22.176 27.176 22.176C27.6453 22.176 28.0187 22.0693 28.296 21.856C28.584 21.632 28.728 21.3493 28.728 21.008C28.728 20.656 28.5573 20.3627 28.216 20.128C27.8747 19.8827 27.4587 19.6693 26.968 19.488C26.488 19.3067 26.008 19.104 25.528 18.88C25.048 18.6453 24.6373 18.3147 24.296 17.888C23.9547 17.4613 23.784 16.944 23.784 16.336C23.784 15.376 24.184 14.5493 24.984 13.856C25.784 13.152 26.7333 12.8 27.832 12.8C28.3333 12.8 28.8187 12.8533 29.288 12.96C29.7573 13.0667 30.2107 13.2213 30.648 13.424L29.56 15.76C29.2613 15.5253 28.8507 15.312 28.328 15.12C27.816 14.9173 27.3627 14.816 26.968 14.816C26.584 14.816 26.2693 14.912 26.024 15.104C25.7893 15.2853 25.672 15.5307 25.672 15.84C25.672 16.1493 25.8427 16.4267 26.184 16.672C26.5253 16.9067 26.936 17.1147 27.416 17.296C27.9067 17.4773 28.392 17.68 28.872 17.904C29.3627 18.1173 29.7787 18.4373 30.12 18.864C30.4613 19.2907 30.632 19.808 30.632 20.416C30.632 21.4187 30.232 22.2987 29.432 23.056C28.632 23.8027 27.6987 24.176 26.632 24.176C25.832 24.176 25.1227 23.984 24.504 23.6C23.96 23.2693 23.576 22.976 23.352 22.72L23.208 22.544L24.456 20.816ZM36.9669 24.16L33.9589 19.728V19.84L34.1349 23.6L31.9749 24L32.1669 20.112L31.9749 12.016L34.1669 11.616L33.9589 19.344L37.1589 15.84L38.6629 16.864L35.8629 19.488L38.7909 22.944L36.9669 24.16ZM41.8376 15.856L41.6456 19.84L41.8216 23.6L39.6776 24L39.8696 20.112L39.6936 16.256L41.8376 15.856ZM39.5816 13.52C39.5816 13.1573 39.7203 12.8373 39.9976 12.56C40.275 12.272 40.595 12.128 40.9576 12.128C41.3203 12.128 41.5976 12.2293 41.7896 12.432C41.9816 12.624 42.0776 12.9173 42.0776 13.312C42.0776 13.7067 41.939 14.048 41.6616 14.336C41.395 14.6133 41.0803 14.752 40.7176 14.752C40.3656 14.752 40.0883 14.6347 39.8856 14.4C39.683 14.1653 39.5816 13.872 39.5816 13.52ZM47.8719 15.92C48.5545 15.92 49.1252 16.2187 49.5839 16.816C50.0532 17.4133 50.2879 18.2187 50.2879 19.232C50.2879 20.6507 49.9199 21.8027 49.1839 22.688C48.4585 23.5627 47.5519 24 46.4639 24C46.2399 24 45.9892 23.984 45.7119 23.952L45.7919 27.008L43.5999 27.408L43.8079 20.112H43.8239C43.7812 18.6827 43.6639 17.4027 43.4719 16.272L45.4079 15.856C45.4719 16.4213 45.5252 16.9813 45.5679 17.536C45.5892 17.4827 45.6959 17.3387 45.8879 17.104C46.0905 16.8587 46.3839 16.6027 46.7679 16.336C47.1519 16.0587 47.5199 15.92 47.8719 15.92ZM47.2479 18C46.6825 18 46.1332 18.1547 45.5999 18.464V19.84L45.6639 22.128C46.2399 22.224 46.6772 22.272 46.9759 22.272C47.9999 22.272 48.5119 21.5627 48.5119 20.144C48.5119 18.7147 48.0905 18 47.2479 18Z" fill="white"/>
<defs>
<linearGradient id="paint0_linear_38_5379" x1="36.5" y1="1" x2="36.5" y2="37" gradientUnits="userSpaceOnUse">
<stop stop-color="#0077FF"/>
<stop offset="0.345" stop-color="#CC00FF"/>
<stop offset="0.575" stop-color="#7300FF"/>
<stop offset="0.8" stop-color="#FF00FB"/>
<stop offset="1" stop-color="#002BFF"/>
</linearGradient>
</defs>
</svg>
